G04 #@! TF.GenerationSoftware,KiCad,Pcbnew,5.0.2-5.0.2*
G04 #@! TF.CreationDate,2019-08-16T20:36:11+01:00*
G04 #@! TF.ProjectId,MaquinaSafetyLevel,4d617175-696e-4615-9361-666574794c65,rev?*
G04 #@! TF.SameCoordinates,Original*
G04 #@! TF.FileFunction,Copper,L1,Top*
G04 #@! TF.FilePolarity,Positive*
%FSLAX46Y46*%
G04 Gerber Fmt 4.6, Leading zero omitted, Abs format (unit mm)*
G04 Created by KiCad (PCBNEW 5.0.2-5.0.2) date Fri 16 Aug 2019 20:36:11 BST*
%MOMM*%
%LPD*%
G01*
G04 APERTURE LIST*
G04 #@! TA.AperFunction,ComponentPad*
%ADD10C,2.000000*%
G04 #@! TD*
G04 #@! TA.AperFunction,ComponentPad*
%ADD11C,1.600000*%
G04 #@! TD*
G04 #@! TA.AperFunction,ComponentPad*
%ADD12C,2.400000*%
G04 #@! TD*
G04 #@! TA.AperFunction,ComponentPad*
%ADD13R,1.800000X1.800000*%
G04 #@! TD*
G04 #@! TA.AperFunction,ComponentPad*
%ADD14O,1.800000X1.800000*%
G04 #@! TD*
G04 #@! TA.AperFunction,ComponentPad*
%ADD15R,1.700000X1.700000*%
G04 #@! TD*
G04 #@! TA.AperFunction,ComponentPad*
%ADD16O,1.700000X1.700000*%
G04 #@! TD*
G04 #@! TA.AperFunction,ComponentPad*
%ADD17O,1.600000X1.600000*%
G04 #@! TD*
G04 #@! TA.AperFunction,ComponentPad*
%ADD18R,1.600000X1.600000*%
G04 #@! TD*
G04 #@! TA.AperFunction,ComponentPad*
%ADD19C,1.500000*%
G04 #@! TD*
G04 #@! TA.AperFunction,ComponentPad*
%ADD20C,1.750000*%
G04 #@! TD*
G04 #@! TA.AperFunction,ComponentPad*
%ADD21C,1.000000*%
G04 #@! TD*
G04 #@! TA.AperFunction,ComponentPad*
%ADD22C,1.524000*%
G04 #@! TD*
G04 #@! TA.AperFunction,ComponentPad*
%ADD23O,1.500000X1.050000*%
G04 #@! TD*
G04 #@! TA.AperFunction,ComponentPad*
%ADD24R,1.500000X1.050000*%
G04 #@! TD*
G04 #@! TA.AperFunction,ComponentPad*
%ADD25C,7.600000*%
G04 #@! TD*
G04 #@! TA.AperFunction,ViaPad*
%ADD26C,0.800000*%
G04 #@! TD*
G04 #@! TA.AperFunction,Conductor*
%ADD27C,0.250000*%
G04 #@! TD*
G04 #@! TA.AperFunction,Conductor*
%ADD28C,1.000000*%
G04 #@! TD*
G04 #@! TA.AperFunction,Conductor*
%ADD29C,0.254000*%
G04 #@! TD*
G04 APERTURE END LIST*
D10*
G04 #@! TO.P,U3,1*
G04 #@! TO.N,Net-(J6-Pad2)*
X82250000Y-125250000D03*
G04 #@! TO.P,U3,2*
G04 #@! TO.N,Net-(J6-Pad1)*
X82250000Y-110010000D03*
G04 #@! TO.P,U3,3*
G04 #@! TO.N,GND*
X110250000Y-110010000D03*
G04 #@! TO.P,U3,4*
G04 #@! TO.N,VCC*
X110250000Y-117630000D03*
G04 #@! TD*
D11*
G04 #@! TO.P,C1,1*
G04 #@! TO.N,Net-(C1-Pad1)*
X68500000Y-76500000D03*
G04 #@! TO.P,C1,2*
G04 #@! TO.N,GND*
X68500000Y-81500000D03*
G04 #@! TD*
G04 #@! TO.P,C2,2*
G04 #@! TO.N,GND*
X62500000Y-81500000D03*
G04 #@! TO.P,C2,1*
G04 #@! TO.N,Net-(C2-Pad1)*
X62500000Y-76500000D03*
G04 #@! TD*
G04 #@! TO.P,C3,1*
G04 #@! TO.N,Net-(C3-Pad1)*
X56750000Y-76500000D03*
G04 #@! TO.P,C3,2*
G04 #@! TO.N,GND*
X56750000Y-81500000D03*
G04 #@! TD*
D10*
G04 #@! TO.P,C4,1*
G04 #@! TO.N,GND*
X112750000Y-95750000D03*
G04 #@! TO.P,C4,2*
G04 #@! TO.N,Net-(C4-Pad2)*
X102750000Y-95750000D03*
G04 #@! TD*
G04 #@! TO.P,C5,2*
G04 #@! TO.N,Net-(C5-Pad2)*
X97500000Y-95750000D03*
G04 #@! TO.P,C5,1*
G04 #@! TO.N,GND*
X87500000Y-95750000D03*
G04 #@! TD*
D12*
G04 #@! TO.P,C6,1*
G04 #@! TO.N,Net-(C6-Pad1)*
X127750000Y-66750000D03*
G04 #@! TO.P,C6,2*
G04 #@! TO.N,GND*
X127750000Y-51750000D03*
G04 #@! TD*
G04 #@! TO.P,C7,2*
G04 #@! TO.N,GND*
X136250000Y-90000000D03*
G04 #@! TO.P,C7,1*
G04 #@! TO.N,VCC*
X121250000Y-90000000D03*
G04 #@! TD*
D13*
G04 #@! TO.P,D1,1*
G04 #@! TO.N,Net-(C3-Pad1)*
X56750000Y-67500000D03*
D14*
G04 #@! TO.P,D1,2*
G04 #@! TO.N,Net-(D1-Pad2)*
X56750000Y-59880000D03*
G04 #@! TD*
D15*
G04 #@! TO.P,J1,1*
G04 #@! TO.N,MISO*
X129006598Y-79926800D03*
D16*
G04 #@! TO.P,J1,2*
G04 #@! TO.N,SCK*
X126466598Y-79926800D03*
G04 #@! TO.P,J1,3*
G04 #@! TO.N,RESET*
X129006598Y-77386800D03*
G04 #@! TO.P,J1,4*
G04 #@! TO.N,GND*
X126466598Y-77386800D03*
G04 #@! TO.P,J1,5*
G04 #@! TO.N,MOSI*
X129006598Y-74846800D03*
G04 #@! TO.P,J1,6*
G04 #@! TO.N,VCC*
X126466598Y-74846800D03*
G04 #@! TD*
D11*
G04 #@! TO.P,R1,1*
G04 #@! TO.N,VCC*
X58750000Y-87000000D03*
D17*
G04 #@! TO.P,R1,2*
G04 #@! TO.N,Net-(R1-Pad2)*
X66370000Y-87000000D03*
G04 #@! TD*
G04 #@! TO.P,R2,2*
G04 #@! TO.N,Net-(C1-Pad1)*
X74750000Y-76340000D03*
D11*
G04 #@! TO.P,R2,1*
G04 #@! TO.N,Net-(R1-Pad2)*
X74750000Y-86500000D03*
G04 #@! TD*
G04 #@! TO.P,R3,1*
G04 #@! TO.N,Net-(D1-Pad2)*
X50750000Y-58500000D03*
D17*
G04 #@! TO.P,R3,2*
G04 #@! TO.N,Net-(R3-Pad2)*
X50750000Y-68660000D03*
G04 #@! TD*
D11*
G04 #@! TO.P,R4,1*
G04 #@! TO.N,Net-(C3-Pad1)*
X50750000Y-76250000D03*
D17*
G04 #@! TO.P,R4,2*
G04 #@! TO.N,GND*
X50750000Y-86410000D03*
G04 #@! TD*
G04 #@! TO.P,R5,2*
G04 #@! TO.N,PWR_LED*
X118000000Y-63660000D03*
D11*
G04 #@! TO.P,R5,1*
G04 #@! TO.N,Net-(J3-Pad2)*
X118000000Y-53500000D03*
G04 #@! TD*
G04 #@! TO.P,R6,1*
G04 #@! TO.N,Net-(R6-Pad1)*
X78750000Y-63500000D03*
D17*
G04 #@! TO.P,R6,2*
G04 #@! TO.N,Net-(J3-Pad1)*
X78750000Y-53340000D03*
G04 #@! TD*
G04 #@! TO.P,R7,2*
G04 #@! TO.N,Net-(R7-Pad2)*
X102750000Y-63660000D03*
D11*
G04 #@! TO.P,R7,1*
G04 #@! TO.N,Net-(Q1-Pad2)*
X102750000Y-53500000D03*
G04 #@! TD*
G04 #@! TO.P,R8,1*
G04 #@! TO.N,Net-(Q1-Pad2)*
X110250000Y-53500000D03*
D17*
G04 #@! TO.P,R8,2*
G04 #@! TO.N,VCC*
X110250000Y-63660000D03*
G04 #@! TD*
G04 #@! TO.P,R9,2*
G04 #@! TO.N,GND*
X86500000Y-53340000D03*
D11*
G04 #@! TO.P,R9,1*
G04 #@! TO.N,Net-(J2-Pad2)*
X86500000Y-63500000D03*
G04 #@! TD*
D18*
G04 #@! TO.P,U1,1*
G04 #@! TO.N,GND*
X71250000Y-59750000D03*
D17*
G04 #@! TO.P,U1,5*
G04 #@! TO.N,Net-(C2-Pad1)*
X63630000Y-67370000D03*
G04 #@! TO.P,U1,2*
G04 #@! TO.N,Net-(C1-Pad1)*
X68710000Y-59750000D03*
G04 #@! TO.P,U1,6*
X66170000Y-67370000D03*
G04 #@! TO.P,U1,3*
G04 #@! TO.N,Net-(R3-Pad2)*
X66170000Y-59750000D03*
G04 #@! TO.P,U1,7*
G04 #@! TO.N,Net-(R1-Pad2)*
X68710000Y-67370000D03*
G04 #@! TO.P,U1,4*
G04 #@! TO.N,VCC*
X63630000Y-59750000D03*
G04 #@! TO.P,U1,8*
X71250000Y-67370000D03*
G04 #@! TD*
D18*
G04 #@! TO.P,U2,1*
G04 #@! TO.N,RESET*
X83250000Y-81250000D03*
D17*
G04 #@! TO.P,U2,15*
G04 #@! TO.N,PWR_LED*
X116270000Y-73630000D03*
G04 #@! TO.P,U2,2*
G04 #@! TO.N,N/C*
X85790000Y-81250000D03*
G04 #@! TO.P,U2,16*
X113730000Y-73630000D03*
G04 #@! TO.P,U2,3*
X88330000Y-81250000D03*
G04 #@! TO.P,U2,17*
G04 #@! TO.N,MOSI*
X111190000Y-73630000D03*
G04 #@! TO.P,U2,4*
G04 #@! TO.N,N/C*
X90870000Y-81250000D03*
G04 #@! TO.P,U2,18*
G04 #@! TO.N,MISO*
X108650000Y-73630000D03*
G04 #@! TO.P,U2,5*
G04 #@! TO.N,BZR*
X93410000Y-81250000D03*
G04 #@! TO.P,U2,19*
G04 #@! TO.N,SCK*
X106110000Y-73630000D03*
G04 #@! TO.P,U2,6*
G04 #@! TO.N,PD4*
X95950000Y-81250000D03*
G04 #@! TO.P,U2,20*
G04 #@! TO.N,VCC*
X103570000Y-73630000D03*
G04 #@! TO.P,U2,7*
X98490000Y-81250000D03*
G04 #@! TO.P,U2,21*
G04 #@! TO.N,Net-(C6-Pad1)*
X101030000Y-73630000D03*
G04 #@! TO.P,U2,8*
G04 #@! TO.N,GND*
X101030000Y-81250000D03*
G04 #@! TO.P,U2,22*
X98490000Y-73630000D03*
G04 #@! TO.P,U2,9*
G04 #@! TO.N,Net-(C5-Pad2)*
X103570000Y-81250000D03*
G04 #@! TO.P,U2,23*
G04 #@! TO.N,Net-(C3-Pad1)*
X95950000Y-73630000D03*
G04 #@! TO.P,U2,10*
G04 #@! TO.N,Net-(C4-Pad2)*
X106110000Y-81250000D03*
G04 #@! TO.P,U2,24*
G04 #@! TO.N,N/C*
X93410000Y-73630000D03*
G04 #@! TO.P,U2,11*
G04 #@! TO.N,PD5*
X108650000Y-81250000D03*
G04 #@! TO.P,U2,25*
G04 #@! TO.N,N/C*
X90870000Y-73630000D03*
G04 #@! TO.P,U2,12*
G04 #@! TO.N,Net-(R6-Pad1)*
X111190000Y-81250000D03*
G04 #@! TO.P,U2,26*
G04 #@! TO.N,N/C*
X88330000Y-73630000D03*
G04 #@! TO.P,U2,13*
G04 #@! TO.N,Net-(R7-Pad2)*
X113730000Y-81250000D03*
G04 #@! TO.P,U2,27*
G04 #@! TO.N,N/C*
X85790000Y-73630000D03*
G04 #@! TO.P,U2,14*
X116270000Y-81250000D03*
G04 #@! TO.P,U2,28*
X83250000Y-73630000D03*
G04 #@! TD*
D19*
G04 #@! TO.P,Y1,1*
G04 #@! TO.N,Net-(C5-Pad2)*
X97250000Y-88250000D03*
G04 #@! TO.P,Y1,2*
G04 #@! TO.N,Net-(C4-Pad2)*
X102130000Y-88250000D03*
G04 #@! TD*
D20*
G04 #@! TO.P,J3,3*
G04 #@! TO.N,GND*
X82380000Y-43250000D03*
D21*
G04 #@! TO.P,J3,*
G04 #@! TO.N,*
X82380000Y-40710000D03*
X84920000Y-40710000D03*
X87460000Y-40710000D03*
D20*
G04 #@! TO.P,J3,2*
G04 #@! TO.N,Net-(J3-Pad2)*
X84920000Y-43250000D03*
G04 #@! TO.P,J3,1*
G04 #@! TO.N,Net-(J3-Pad1)*
X87460000Y-43250000D03*
G04 #@! TD*
D22*
G04 #@! TO.P,BZ1,1*
G04 #@! TO.N,BZR*
X126750000Y-105750000D03*
G04 #@! TO.P,BZ1,2*
G04 #@! TO.N,GND*
X136910000Y-105750000D03*
G04 #@! TD*
D20*
G04 #@! TO.P,J4,1*
G04 #@! TO.N,PD4*
X106460000Y-43250000D03*
G04 #@! TO.P,J4,2*
G04 #@! TO.N,VCC*
X103920000Y-43250000D03*
D21*
G04 #@! TO.P,J4,*
G04 #@! TO.N,*
X106460000Y-40710000D03*
X103920000Y-40710000D03*
X101380000Y-40710000D03*
D20*
G04 #@! TO.P,J4,3*
G04 #@! TO.N,GND*
X101380000Y-43250000D03*
G04 #@! TD*
G04 #@! TO.P,J5,3*
G04 #@! TO.N,GND*
X118630000Y-43250000D03*
D21*
G04 #@! TO.P,J5,*
G04 #@! TO.N,*
X118630000Y-40710000D03*
X121170000Y-40710000D03*
X123710000Y-40710000D03*
D20*
G04 #@! TO.P,J5,2*
G04 #@! TO.N,VCC*
X121170000Y-43250000D03*
G04 #@! TO.P,J5,1*
G04 #@! TO.N,PD5*
X123710000Y-43250000D03*
G04 #@! TD*
G04 #@! TO.P,J6,1*
G04 #@! TO.N,Net-(J6-Pad1)*
X58000000Y-106000000D03*
G04 #@! TO.P,J6,2*
G04 #@! TO.N,Net-(J6-Pad2)*
X58000000Y-108540000D03*
D21*
G04 #@! TO.P,J6,3*
G04 #@! TO.N,N/C*
X55460000Y-106000000D03*
G04 #@! TO.P,J6,4*
X55460000Y-108540000D03*
G04 #@! TD*
D20*
G04 #@! TO.P,J2,3*
G04 #@! TO.N,GND*
X66880000Y-43250000D03*
D21*
G04 #@! TO.P,J2,*
G04 #@! TO.N,*
X66880000Y-40710000D03*
X69420000Y-40710000D03*
X71960000Y-40710000D03*
D20*
G04 #@! TO.P,J2,2*
G04 #@! TO.N,Net-(J2-Pad2)*
X69420000Y-43250000D03*
G04 #@! TO.P,J2,1*
G04 #@! TO.N,Net-(D1-Pad2)*
X71960000Y-43250000D03*
G04 #@! TD*
D23*
G04 #@! TO.P,Q1,2*
G04 #@! TO.N,Net-(Q1-Pad2)*
X94250000Y-58520000D03*
G04 #@! TO.P,Q1,3*
G04 #@! TO.N,Net-(J2-Pad2)*
X94250000Y-59790000D03*
D24*
G04 #@! TO.P,Q1,1*
G04 #@! TO.N,VCC*
X94250000Y-57250000D03*
G04 #@! TD*
D11*
G04 #@! TO.P,R10,1*
G04 #@! TO.N,RESET*
X139000000Y-82750000D03*
D17*
G04 #@! TO.P,R10,2*
G04 #@! TO.N,VCC*
X139000000Y-72590000D03*
G04 #@! TD*
D25*
G04 #@! TO.P,H1,1*
G04 #@! TO.N,GND*
X55250000Y-43250000D03*
G04 #@! TD*
G04 #@! TO.P,H2,1*
G04 #@! TO.N,GND*
X135250000Y-43250000D03*
G04 #@! TD*
G04 #@! TO.P,H3,1*
G04 #@! TO.N,GND*
X55250000Y-123250000D03*
G04 #@! TD*
G04 #@! TO.P,H4,1*
G04 #@! TO.N,GND*
X135250000Y-123250000D03*
G04 #@! TD*
D26*
G04 #@! TO.N,GND*
X118750000Y-77000000D03*
X105250000Y-77250000D03*
G04 #@! TO.N,Net-(C3-Pad1)*
X76500000Y-72250000D03*
G04 #@! TO.N,VCC*
X110250000Y-70750000D03*
G04 #@! TO.N,Net-(R6-Pad1)*
X92500000Y-79500000D03*
X103250000Y-79500000D03*
G04 #@! TO.N,RESET*
X119000000Y-84000000D03*
X121750000Y-76750000D03*
G04 #@! TD*
D27*
G04 #@! TO.N,Net-(C1-Pad1)*
X66170000Y-74170000D02*
X68500000Y-76500000D01*
X66170000Y-67370000D02*
X66170000Y-74170000D01*
X74590000Y-76500000D02*
X74750000Y-76340000D01*
X68500000Y-76500000D02*
X74590000Y-76500000D01*
G04 #@! TO.N,GND*
X136910000Y-90660000D02*
X136250000Y-90000000D01*
G04 #@! TO.N,Net-(C2-Pad1)*
X63630000Y-75370000D02*
X63630000Y-67370000D01*
X62500000Y-76500000D02*
X63630000Y-75370000D01*
G04 #@! TO.N,Net-(C3-Pad1)*
X56750000Y-75368630D02*
X56750000Y-67500000D01*
X56750000Y-76500000D02*
X56750000Y-75368630D01*
X51000000Y-76500000D02*
X50750000Y-76250000D01*
X56750000Y-76500000D02*
X51000000Y-76500000D01*
X76500000Y-72250000D02*
X94570000Y-72250000D01*
X94570000Y-72250000D02*
X95950000Y-73630000D01*
G04 #@! TO.N,Net-(C4-Pad2)*
X106110000Y-84270000D02*
X102130000Y-88250000D01*
X106110000Y-81250000D02*
X106110000Y-84270000D01*
X102130000Y-95130000D02*
X102750000Y-95750000D01*
X102130000Y-88250000D02*
X102130000Y-95130000D01*
G04 #@! TO.N,Net-(C5-Pad2)*
X97250000Y-87570000D02*
X97250000Y-88250000D01*
X103570000Y-81250000D02*
X97250000Y-87570000D01*
X97250000Y-95500000D02*
X97500000Y-95750000D01*
X97250000Y-88250000D02*
X97250000Y-95500000D01*
G04 #@! TO.N,VCC*
X121250000Y-106630000D02*
X121250000Y-90000000D01*
X110250000Y-117630000D02*
X121250000Y-106630000D01*
X121250000Y-80063398D02*
X126466598Y-74846800D01*
X121250000Y-90000000D02*
X121250000Y-80063398D01*
X94250000Y-57250000D02*
X94250000Y-52920000D01*
X94250000Y-57250000D02*
X94025000Y-57250000D01*
X90250000Y-59000000D02*
X90250000Y-65250000D01*
X94025000Y-57250000D02*
X90250000Y-59000000D01*
X71250000Y-67370000D02*
X63630000Y-59750000D01*
X117670000Y-46750000D02*
X100420000Y-46750000D01*
X121170000Y-43250000D02*
X117670000Y-46750000D01*
X94250000Y-52920000D02*
X100420000Y-46750000D01*
X100420000Y-46750000D02*
X103920000Y-43250000D01*
X128723398Y-72590000D02*
X139000000Y-72590000D01*
X126466598Y-74846800D02*
X128723398Y-72590000D01*
X94250000Y-57250000D02*
X94750000Y-57250000D01*
X94000000Y-69000000D02*
X90250000Y-65250000D01*
X98940000Y-69000000D02*
X94000000Y-69000000D01*
X103570000Y-73630000D02*
X98940000Y-69000000D01*
X110250000Y-64791370D02*
X110250000Y-70750000D01*
X110250000Y-63660000D02*
X110250000Y-64791370D01*
X72381370Y-67370000D02*
X71250000Y-67370000D01*
X90250000Y-65250000D02*
X88130000Y-67370000D01*
X88130000Y-67370000D02*
X72381370Y-67370000D01*
G04 #@! TO.N,Net-(D1-Pad2)*
X55370000Y-58500000D02*
X56750000Y-59880000D01*
X50750000Y-58500000D02*
X55370000Y-58500000D01*
G04 #@! TO.N,Net-(J3-Pad1)*
X87460000Y-44630000D02*
X78750000Y-53340000D01*
X87460000Y-43250000D02*
X87460000Y-44630000D01*
G04 #@! TO.N,Net-(Q1-Pad2)*
X103881370Y-53500000D02*
X110250000Y-53500000D01*
X102750000Y-53500000D02*
X103881370Y-53500000D01*
G04 #@! TO.N,Net-(R1-Pad2)*
X75549999Y-85700001D02*
X74750000Y-86500000D01*
X75875001Y-74535001D02*
X75875001Y-85374999D01*
X75875001Y-85374999D02*
X75549999Y-85700001D01*
X68710000Y-67370000D02*
X75875001Y-74535001D01*
G04 #@! TO.N,Net-(R6-Pad1)*
X92500000Y-79500000D02*
X103250000Y-79500000D01*
X103250000Y-79500000D02*
X103250000Y-79500000D01*
G04 #@! TO.N,RESET*
X133636800Y-77386800D02*
X129006598Y-77386800D01*
X139000000Y-82750000D02*
X133636800Y-77386800D01*
X119000000Y-79500000D02*
X119000000Y-84000000D01*
X121750000Y-76750000D02*
X119000000Y-79500000D01*
G04 #@! TO.N,Net-(J2-Pad2)*
X69420000Y-46420000D02*
X86500000Y-63500000D01*
X69420000Y-43250000D02*
X69420000Y-46420000D01*
G04 #@! TO.N,PD5*
X111440003Y-80124999D02*
X109775001Y-80124999D01*
X119125001Y-72440001D02*
X111440003Y-80124999D01*
X119125001Y-47834999D02*
X119125001Y-72440001D01*
X109449999Y-80450001D02*
X108650000Y-81250000D01*
X109775001Y-80124999D02*
X109449999Y-80450001D01*
X123710000Y-43250000D02*
X119125001Y-47834999D01*
D28*
G04 #@! TO.N,Net-(J6-Pad1)*
X78240000Y-106000000D02*
X82250000Y-110010000D01*
X58000000Y-106000000D02*
X78240000Y-106000000D01*
G04 #@! TO.N,Net-(J6-Pad2)*
X65540000Y-108540000D02*
X82250000Y-125250000D01*
X58000000Y-108540000D02*
X65540000Y-108540000D01*
D27*
G04 #@! TO.N,PWR_LED*
X118000000Y-71900000D02*
X116270000Y-73630000D01*
X118000000Y-63660000D02*
X118000000Y-71900000D01*
G04 #@! TO.N,Net-(R7-Pad2)*
X112930001Y-82049999D02*
X113730000Y-81250000D01*
X112604999Y-82375001D02*
X112930001Y-82049999D01*
X108109999Y-82375001D02*
X112604999Y-82375001D01*
X107235001Y-68145001D02*
X107235001Y-81500003D01*
X107235001Y-81500003D02*
X108109999Y-82375001D01*
X102750000Y-63660000D02*
X107235001Y-68145001D01*
G04 #@! TD*
D29*
G04 #@! TO.N,GND*
G36*
X136414170Y-34034647D02*
X137559981Y-34253222D01*
X138669362Y-34613682D01*
X139724813Y-35110339D01*
X140709703Y-35735370D01*
X141608480Y-36478903D01*
X142406987Y-37329228D01*
X143092621Y-38272922D01*
X143654575Y-39295110D01*
X144083979Y-40379662D01*
X144374071Y-41509494D01*
X144521669Y-42677864D01*
X144540001Y-43261197D01*
X144540000Y-123227687D01*
X144465353Y-124414169D01*
X144246778Y-125559981D01*
X143886318Y-126669362D01*
X143389661Y-127724813D01*
X142764630Y-128709703D01*
X142021096Y-129608480D01*
X141170773Y-130406987D01*
X140227078Y-131092621D01*
X139204888Y-131654576D01*
X138120338Y-132083979D01*
X136990505Y-132374071D01*
X135822146Y-132521668D01*
X135238835Y-132540000D01*
X114377000Y-132540000D01*
X114377000Y-126423699D01*
X132255906Y-126423699D01*
X132695895Y-126981489D01*
X134318293Y-127674859D01*
X136082536Y-127694585D01*
X137720031Y-127037664D01*
X137804105Y-126981489D01*
X138244094Y-126423699D01*
X135250000Y-123429605D01*
X132255906Y-126423699D01*
X114377000Y-126423699D01*
X114377000Y-124082536D01*
X130805415Y-124082536D01*
X131462336Y-125720031D01*
X131518511Y-125804105D01*
X132076301Y-126244094D01*
X135070395Y-123250000D01*
X135429605Y-123250000D01*
X138423699Y-126244094D01*
X138981489Y-125804105D01*
X139674859Y-124181707D01*
X139694585Y-122417464D01*
X139037664Y-120779969D01*
X138981489Y-120695895D01*
X138423699Y-120255906D01*
X135429605Y-123250000D01*
X135070395Y-123250000D01*
X132076301Y-120255906D01*
X131518511Y-120695895D01*
X130825141Y-122318293D01*
X130805415Y-124082536D01*
X114377000Y-124082536D01*
X114377000Y-120076301D01*
X132255906Y-120076301D01*
X135250000Y-123070395D01*
X138244094Y-120076301D01*
X137804105Y-119518511D01*
X136181707Y-118825141D01*
X134417464Y-118805415D01*
X132779969Y-119462336D01*
X132695895Y-119518511D01*
X132255906Y-120076301D01*
X114377000Y-120076301D01*
X114377000Y-114577801D01*
X121734473Y-107220329D01*
X121797929Y-107177929D01*
X121965904Y-106926537D01*
X122010000Y-106704852D01*
X122010000Y-106704848D01*
X122024888Y-106630001D01*
X122010000Y-106555154D01*
X122010000Y-105472119D01*
X125353000Y-105472119D01*
X125353000Y-106027881D01*
X125565680Y-106541337D01*
X125958663Y-106934320D01*
X126472119Y-107147000D01*
X127027881Y-107147000D01*
X127541337Y-106934320D01*
X127745444Y-106730213D01*
X136109392Y-106730213D01*
X136178857Y-106972397D01*
X136702302Y-107159144D01*
X137257368Y-107131362D01*
X137641143Y-106972397D01*
X137710608Y-106730213D01*
X136910000Y-105929605D01*
X136109392Y-106730213D01*
X127745444Y-106730213D01*
X127934320Y-106541337D01*
X128147000Y-106027881D01*
X128147000Y-105542302D01*
X135500856Y-105542302D01*
X135528638Y-106097368D01*
X135687603Y-106481143D01*
X135929787Y-106550608D01*
X136730395Y-105750000D01*
X137089605Y-105750000D01*
X137890213Y-106550608D01*
X138132397Y-106481143D01*
X138319144Y-105957698D01*
X138291362Y-105402632D01*
X138132397Y-105018857D01*
X137890213Y-104949392D01*
X137089605Y-105750000D01*
X136730395Y-105750000D01*
X135929787Y-104949392D01*
X135687603Y-105018857D01*
X135500856Y-105542302D01*
X128147000Y-105542302D01*
X128147000Y-105472119D01*
X127934320Y-104958663D01*
X127745444Y-104769787D01*
X136109392Y-104769787D01*
X136910000Y-105570395D01*
X137710608Y-104769787D01*
X137641143Y-104527603D01*
X137117698Y-104340856D01*
X136562632Y-104368638D01*
X136178857Y-104527603D01*
X136109392Y-104769787D01*
X127745444Y-104769787D01*
X127541337Y-104565680D01*
X127027881Y-104353000D01*
X126472119Y-104353000D01*
X125958663Y-104565680D01*
X125565680Y-104958663D01*
X125353000Y-105472119D01*
X122010000Y-105472119D01*
X122010000Y-91671387D01*
X122289444Y-91555638D01*
X122547907Y-91297175D01*
X135132430Y-91297175D01*
X135255565Y-91584788D01*
X135937734Y-91844707D01*
X136667443Y-91823786D01*
X137244435Y-91584788D01*
X137367570Y-91297175D01*
X136250000Y-90179605D01*
X135132430Y-91297175D01*
X122547907Y-91297175D01*
X122805638Y-91039444D01*
X123085000Y-90365004D01*
X123085000Y-89687734D01*
X134405293Y-89687734D01*
X134426214Y-90417443D01*
X134665212Y-90994435D01*
X134952825Y-91117570D01*
X136070395Y-90000000D01*
X136429605Y-90000000D01*
X137547175Y-91117570D01*
X137834788Y-90994435D01*
X138094707Y-90312266D01*
X138073786Y-89582557D01*
X137834788Y-89005565D01*
X137547175Y-88882430D01*
X136429605Y-90000000D01*
X136070395Y-90000000D01*
X134952825Y-88882430D01*
X134665212Y-89005565D01*
X134405293Y-89687734D01*
X123085000Y-89687734D01*
X123085000Y-89634996D01*
X122805638Y-88960556D01*
X122547907Y-88702825D01*
X135132430Y-88702825D01*
X136250000Y-89820395D01*
X137367570Y-88702825D01*
X137244435Y-88415212D01*
X136562266Y-88155293D01*
X135832557Y-88176214D01*
X135255565Y-88415212D01*
X135132430Y-88702825D01*
X122547907Y-88702825D01*
X122289444Y-88444362D01*
X122010000Y-88328613D01*
X122010000Y-80378199D01*
X124981598Y-77406601D01*
X124981598Y-77513802D01*
X125146442Y-77513802D01*
X125025122Y-77743690D01*
X125194953Y-78153724D01*
X125585240Y-78581983D01*
X125715076Y-78642957D01*
X125395973Y-78856175D01*
X125067759Y-79347382D01*
X124952506Y-79926800D01*
X125067759Y-80506218D01*
X125395973Y-80997425D01*
X125887180Y-81325639D01*
X126320342Y-81411800D01*
X126612854Y-81411800D01*
X127046016Y-81325639D01*
X127537223Y-80997425D01*
X127549414Y-80979181D01*
X127558441Y-81024565D01*
X127698789Y-81234609D01*
X127908833Y-81374957D01*
X128156598Y-81424240D01*
X129856598Y-81424240D01*
X130104363Y-81374957D01*
X130314407Y-81234609D01*
X130454755Y-81024565D01*
X130504038Y-80776800D01*
X130504038Y-79076800D01*
X130454755Y-78829035D01*
X130314407Y-78618991D01*
X130104363Y-78478643D01*
X130058979Y-78469616D01*
X130077223Y-78457425D01*
X130284776Y-78146800D01*
X133321999Y-78146800D01*
X137586896Y-82411698D01*
X137565000Y-82464561D01*
X137565000Y-83035439D01*
X137783466Y-83562862D01*
X138187138Y-83966534D01*
X138714561Y-84185000D01*
X139285439Y-84185000D01*
X139812862Y-83966534D01*
X140216534Y-83562862D01*
X140435000Y-83035439D01*
X140435000Y-82464561D01*
X140216534Y-81937138D01*
X139812862Y-81533466D01*
X139285439Y-81315000D01*
X138714561Y-81315000D01*
X138661698Y-81336896D01*
X134227131Y-76902330D01*
X134184729Y-76838871D01*
X133933337Y-76670896D01*
X133711652Y-76626800D01*
X133711647Y-76626800D01*
X133636800Y-76611912D01*
X133561953Y-76626800D01*
X130284776Y-76626800D01*
X130077223Y-76316175D01*
X129778837Y-76116800D01*
X130077223Y-75917425D01*
X130405437Y-75426218D01*
X130520690Y-74846800D01*
X130405437Y-74267382D01*
X130077223Y-73776175D01*
X129586016Y-73447961D01*
X129152854Y-73361800D01*
X129026400Y-73361800D01*
X129038200Y-73350000D01*
X137781957Y-73350000D01*
X137965423Y-73624577D01*
X138440091Y-73941740D01*
X138858667Y-74025000D01*
X139141333Y-74025000D01*
X139559909Y-73941740D01*
X140034577Y-73624577D01*
X140351740Y-73149909D01*
X140463113Y-72590000D01*
X140351740Y-72030091D01*
X140034577Y-71555423D01*
X139559909Y-71238260D01*
X139141333Y-71155000D01*
X138858667Y-71155000D01*
X138440091Y-71238260D01*
X137965423Y-71555423D01*
X137781957Y-71830000D01*
X128798244Y-71830000D01*
X128723397Y-71815112D01*
X128648550Y-71830000D01*
X128648546Y-71830000D01*
X128426861Y-71874096D01*
X128175469Y-72042071D01*
X128133069Y-72105527D01*
X126833006Y-73405591D01*
X126612854Y-73361800D01*
X126320342Y-73361800D01*
X125887180Y-73447961D01*
X125395973Y-73776175D01*
X125067759Y-74267382D01*
X124952506Y-74846800D01*
X125025389Y-75213207D01*
X120765528Y-79473069D01*
X120702072Y-79515469D01*
X120659672Y-79578925D01*
X120659671Y-79578926D01*
X120534097Y-79766861D01*
X120475112Y-80063398D01*
X120490001Y-80138250D01*
X120490000Y-88328613D01*
X120210556Y-88444362D01*
X119694362Y-88960556D01*
X119415000Y-89634996D01*
X119415000Y-90365004D01*
X119694362Y-91039444D01*
X120210556Y-91555638D01*
X120490001Y-91671388D01*
X120490000Y-106315198D01*
X114377000Y-112428199D01*
X114377000Y-106000000D01*
X114367333Y-105951399D01*
X114339803Y-105910197D01*
X114298601Y-105882667D01*
X114250000Y-105873000D01*
X83052606Y-105873000D01*
X79839803Y-102660197D01*
X79798601Y-102632667D01*
X79750000Y-102623000D01*
X45960000Y-102623000D01*
X45960000Y-96902532D01*
X86527073Y-96902532D01*
X86625736Y-97169387D01*
X87235461Y-97395908D01*
X87885460Y-97371856D01*
X88374264Y-97169387D01*
X88472927Y-96902532D01*
X87500000Y-95929605D01*
X86527073Y-96902532D01*
X45960000Y-96902532D01*
X45960000Y-95485461D01*
X85854092Y-95485461D01*
X85878144Y-96135460D01*
X86080613Y-96624264D01*
X86347468Y-96722927D01*
X87320395Y-95750000D01*
X87679605Y-95750000D01*
X88652532Y-96722927D01*
X88919387Y-96624264D01*
X89145908Y-96014539D01*
X89121856Y-95364540D01*
X88919387Y-94875736D01*
X88652532Y-94777073D01*
X87679605Y-95750000D01*
X87320395Y-95750000D01*
X86347468Y-94777073D01*
X86080613Y-94875736D01*
X85854092Y-95485461D01*
X45960000Y-95485461D01*
X45960000Y-94597468D01*
X86527073Y-94597468D01*
X87500000Y-95570395D01*
X88472927Y-94597468D01*
X88374264Y-94330613D01*
X87764539Y-94104092D01*
X87114540Y-94128144D01*
X86625736Y-94330613D01*
X86527073Y-94597468D01*
X45960000Y-94597468D01*
X45960000Y-86759041D01*
X49358086Y-86759041D01*
X49597611Y-87265134D01*
X50012577Y-87641041D01*
X50400961Y-87801904D01*
X50623000Y-87679915D01*
X50623000Y-86537000D01*
X50877000Y-86537000D01*
X50877000Y-87679915D01*
X51099039Y-87801904D01*
X51487423Y-87641041D01*
X51902389Y-87265134D01*
X52141914Y-86759041D01*
X52117618Y-86714561D01*
X57315000Y-86714561D01*
X57315000Y-87285439D01*
X57533466Y-87812862D01*
X57937138Y-88216534D01*
X58464561Y-88435000D01*
X59035439Y-88435000D01*
X59562862Y-88216534D01*
X59966534Y-87812862D01*
X60185000Y-87285439D01*
X60185000Y-87000000D01*
X64906887Y-87000000D01*
X65018260Y-87559909D01*
X65335423Y-88034577D01*
X65810091Y-88351740D01*
X66228667Y-88435000D01*
X66511333Y-88435000D01*
X66929909Y-88351740D01*
X67404577Y-88034577D01*
X67721740Y-87559909D01*
X67833113Y-87000000D01*
X67721740Y-86440091D01*
X67404577Y-85965423D01*
X66929909Y-85648260D01*
X66511333Y-85565000D01*
X66228667Y-85565000D01*
X65810091Y-85648260D01*
X65335423Y-85965423D01*
X65018260Y-86440091D01*
X64906887Y-87000000D01*
X60185000Y-87000000D01*
X60185000Y-86714561D01*
X59966534Y-86187138D01*
X59562862Y-85783466D01*
X59035439Y-85565000D01*
X58464561Y-85565000D01*
X57937138Y-85783466D01*
X57533466Y-86187138D01*
X57315000Y-86714561D01*
X52117618Y-86714561D01*
X52020629Y-86537000D01*
X50877000Y-86537000D01*
X50623000Y-86537000D01*
X49479371Y-86537000D01*
X49358086Y-86759041D01*
X45960000Y-86759041D01*
X45960000Y-86060959D01*
X49358086Y-86060959D01*
X49479371Y-86283000D01*
X50623000Y-86283000D01*
X50623000Y-85140085D01*
X50877000Y-85140085D01*
X50877000Y-86283000D01*
X52020629Y-86283000D01*
X52141914Y-86060959D01*
X51902389Y-85554866D01*
X51487423Y-85178959D01*
X51099039Y-85018096D01*
X50877000Y-85140085D01*
X50623000Y-85140085D01*
X50400961Y-85018096D01*
X50012577Y-85178959D01*
X49597611Y-85554866D01*
X49358086Y-86060959D01*
X45960000Y-86060959D01*
X45960000Y-82507745D01*
X55921861Y-82507745D01*
X55995995Y-82753864D01*
X56533223Y-82946965D01*
X57103454Y-82919778D01*
X57504005Y-82753864D01*
X57578139Y-82507745D01*
X61671861Y-82507745D01*
X61745995Y-82753864D01*
X62283223Y-82946965D01*
X62853454Y-82919778D01*
X63254005Y-82753864D01*
X63328139Y-82507745D01*
X67671861Y-82507745D01*
X67745995Y-82753864D01*
X68283223Y-82946965D01*
X68853454Y-82919778D01*
X69254005Y-82753864D01*
X69328139Y-82507745D01*
X68500000Y-81679605D01*
X67671861Y-82507745D01*
X63328139Y-82507745D01*
X62500000Y-81679605D01*
X61671861Y-82507745D01*
X57578139Y-82507745D01*
X56750000Y-81679605D01*
X55921861Y-82507745D01*
X45960000Y-82507745D01*
X45960000Y-81283223D01*
X55303035Y-81283223D01*
X55330222Y-81853454D01*
X55496136Y-82254005D01*
X55742255Y-82328139D01*
X56570395Y-81500000D01*
X56929605Y-81500000D01*
X57757745Y-82328139D01*
X58003864Y-82254005D01*
X58196965Y-81716777D01*
X58176295Y-81283223D01*
X61053035Y-81283223D01*
X61080222Y-81853454D01*
X61246136Y-82254005D01*
X61492255Y-82328139D01*
X62320395Y-81500000D01*
X62679605Y-81500000D01*
X63507745Y-82328139D01*
X63753864Y-82254005D01*
X63946965Y-81716777D01*
X63926295Y-81283223D01*
X67053035Y-81283223D01*
X67080222Y-81853454D01*
X67246136Y-82254005D01*
X67492255Y-82328139D01*
X68320395Y-81500000D01*
X68679605Y-81500000D01*
X69507745Y-82328139D01*
X69753864Y-82254005D01*
X69946965Y-81716777D01*
X69919778Y-81146546D01*
X69753864Y-80745995D01*
X69507745Y-80671861D01*
X68679605Y-81500000D01*
X68320395Y-81500000D01*
X67492255Y-80671861D01*
X67246136Y-80745995D01*
X67053035Y-81283223D01*
X63926295Y-81283223D01*
X63919778Y-81146546D01*
X63753864Y-80745995D01*
X63507745Y-80671861D01*
X62679605Y-81500000D01*
X62320395Y-81500000D01*
X61492255Y-80671861D01*
X61246136Y-80745995D01*
X61053035Y-81283223D01*
X58176295Y-81283223D01*
X58169778Y-81146546D01*
X58003864Y-80745995D01*
X57757745Y-80671861D01*
X56929605Y-81500000D01*
X56570395Y-81500000D01*
X55742255Y-80671861D01*
X55496136Y-80745995D01*
X55303035Y-81283223D01*
X45960000Y-81283223D01*
X45960000Y-80492255D01*
X55921861Y-80492255D01*
X56750000Y-81320395D01*
X57578139Y-80492255D01*
X61671861Y-80492255D01*
X62500000Y-81320395D01*
X63328139Y-80492255D01*
X67671861Y-80492255D01*
X68500000Y-81320395D01*
X69328139Y-80492255D01*
X69254005Y-80246136D01*
X68716777Y-80053035D01*
X68146546Y-80080222D01*
X67745995Y-80246136D01*
X67671861Y-80492255D01*
X63328139Y-80492255D01*
X63254005Y-80246136D01*
X62716777Y-80053035D01*
X62146546Y-80080222D01*
X61745995Y-80246136D01*
X61671861Y-80492255D01*
X57578139Y-80492255D01*
X57504005Y-80246136D01*
X56966777Y-80053035D01*
X56396546Y-80080222D01*
X55995995Y-80246136D01*
X55921861Y-80492255D01*
X45960000Y-80492255D01*
X45960000Y-75964561D01*
X49315000Y-75964561D01*
X49315000Y-76535439D01*
X49533466Y-77062862D01*
X49937138Y-77466534D01*
X50464561Y-77685000D01*
X51035439Y-77685000D01*
X51562862Y-77466534D01*
X51769396Y-77260000D01*
X55511570Y-77260000D01*
X55533466Y-77312862D01*
X55937138Y-77716534D01*
X56464561Y-77935000D01*
X57035439Y-77935000D01*
X57562862Y-77716534D01*
X57966534Y-77312862D01*
X58185000Y-76785439D01*
X58185000Y-76214561D01*
X61065000Y-76214561D01*
X61065000Y-76785439D01*
X61283466Y-77312862D01*
X61687138Y-77716534D01*
X62214561Y-77935000D01*
X62785439Y-77935000D01*
X63312862Y-77716534D01*
X63716534Y-77312862D01*
X63935000Y-76785439D01*
X63935000Y-76214561D01*
X63913104Y-76161699D01*
X64114476Y-75960327D01*
X64177929Y-75917929D01*
X64220327Y-75854476D01*
X64220329Y-75854474D01*
X64345903Y-75666538D01*
X64345904Y-75666537D01*
X64390000Y-75444852D01*
X64390000Y-75444848D01*
X64404888Y-75370001D01*
X64390000Y-75295154D01*
X64390000Y-68588043D01*
X64664577Y-68404577D01*
X64900000Y-68052242D01*
X65135423Y-68404577D01*
X65410000Y-68588044D01*
X65410001Y-74095148D01*
X65395112Y-74170000D01*
X65454097Y-74466537D01*
X65579421Y-74654097D01*
X65622072Y-74717929D01*
X65685528Y-74760329D01*
X67086897Y-76161698D01*
X67065000Y-76214561D01*
X67065000Y-76785439D01*
X67283466Y-77312862D01*
X67687138Y-77716534D01*
X68214561Y-77935000D01*
X68785439Y-77935000D01*
X69312862Y-77716534D01*
X69716534Y-77312862D01*
X69738430Y-77260000D01*
X73638865Y-77260000D01*
X73715423Y-77374577D01*
X74190091Y-77691740D01*
X74608667Y-77775000D01*
X74891333Y-77775000D01*
X75115001Y-77730510D01*
X75115002Y-85060197D01*
X75088302Y-85086897D01*
X75035439Y-85065000D01*
X74464561Y-85065000D01*
X73937138Y-85283466D01*
X73533466Y-85687138D01*
X73315000Y-86214561D01*
X73315000Y-86785439D01*
X73533466Y-87312862D01*
X73937138Y-87716534D01*
X74464561Y-87935000D01*
X75035439Y-87935000D01*
X75562862Y-87716534D01*
X75966534Y-87312862D01*
X76185000Y-86785439D01*
X76185000Y-86214561D01*
X76163103Y-86161698D01*
X76359471Y-85965330D01*
X76422930Y-85922928D01*
X76590905Y-85671536D01*
X76635001Y-85449851D01*
X76635001Y-85449847D01*
X76649889Y-85375000D01*
X76635001Y-85300153D01*
X76635001Y-74609849D01*
X76649889Y-74535001D01*
X76635001Y-74460153D01*
X76635001Y-74460149D01*
X76590905Y-74238464D01*
X76422930Y-73987072D01*
X76359474Y-73944672D01*
X74458928Y-72044126D01*
X75465000Y-72044126D01*
X75465000Y-72455874D01*
X75622569Y-72836280D01*
X75913720Y-73127431D01*
X76294126Y-73285000D01*
X76705874Y-73285000D01*
X77086280Y-73127431D01*
X77203711Y-73010000D01*
X81938412Y-73010000D01*
X81898260Y-73070091D01*
X81786887Y-73630000D01*
X81898260Y-74189909D01*
X82215423Y-74664577D01*
X82690091Y-74981740D01*
X83108667Y-75065000D01*
X83391333Y-75065000D01*
X83809909Y-74981740D01*
X84284577Y-74664577D01*
X84520000Y-74312242D01*
X84755423Y-74664577D01*
X85230091Y-74981740D01*
X85648667Y-75065000D01*
X85931333Y-75065000D01*
X86349909Y-74981740D01*
X86824577Y-74664577D01*
X87060000Y-74312242D01*
X87295423Y-74664577D01*
X87770091Y-74981740D01*
X88188667Y-75065000D01*
X88471333Y-75065000D01*
X88889909Y-74981740D01*
X89364577Y-74664577D01*
X89600000Y-74312242D01*
X89835423Y-74664577D01*
X90310091Y-74981740D01*
X90728667Y-75065000D01*
X91011333Y-75065000D01*
X91429909Y-74981740D01*
X91904577Y-74664577D01*
X92140000Y-74312242D01*
X92375423Y-74664577D01*
X92850091Y-74981740D01*
X93268667Y-75065000D01*
X93551333Y-75065000D01*
X93969909Y-74981740D01*
X94444577Y-74664577D01*
X94680000Y-74312242D01*
X94915423Y-74664577D01*
X95390091Y-74981740D01*
X95808667Y-75065000D01*
X96091333Y-75065000D01*
X96509909Y-74981740D01*
X96984577Y-74664577D01*
X97240947Y-74280892D01*
X97337611Y-74485134D01*
X97752577Y-74861041D01*
X98140961Y-75021904D01*
X98363000Y-74899915D01*
X98363000Y-73757000D01*
X98343000Y-73757000D01*
X98343000Y-73503000D01*
X98363000Y-73503000D01*
X98363000Y-72360085D01*
X98140961Y-72238096D01*
X97752577Y-72398959D01*
X97337611Y-72774866D01*
X97240947Y-72979108D01*
X96984577Y-72595423D01*
X96509909Y-72278260D01*
X96091333Y-72195000D01*
X95808667Y-72195000D01*
X95626114Y-72231312D01*
X95160331Y-71765530D01*
X95117929Y-71702071D01*
X94866537Y-71534096D01*
X94644852Y-71490000D01*
X94644847Y-71490000D01*
X94570000Y-71475112D01*
X94495153Y-71490000D01*
X77203711Y-71490000D01*
X77086280Y-71372569D01*
X76705874Y-71215000D01*
X76294126Y-71215000D01*
X75913720Y-71372569D01*
X75622569Y-71663720D01*
X75465000Y-72044126D01*
X74458928Y-72044126D01*
X71219801Y-68805000D01*
X71391333Y-68805000D01*
X71809909Y-68721740D01*
X72284577Y-68404577D01*
X72468043Y-68130000D01*
X88055153Y-68130000D01*
X88130000Y-68144888D01*
X88204847Y-68130000D01*
X88204852Y-68130000D01*
X88426537Y-68085904D01*
X88677929Y-67917929D01*
X88720331Y-67854470D01*
X90250000Y-66324801D01*
X93409670Y-69484472D01*
X93452071Y-69547929D01*
X93703463Y-69715904D01*
X93925148Y-69760000D01*
X93925153Y-69760000D01*
X94000000Y-69774888D01*
X94074847Y-69760000D01*
X98625199Y-69760000D01*
X101060198Y-72195000D01*
X100888667Y-72195000D01*
X100470091Y-72278260D01*
X99995423Y-72595423D01*
X99739053Y-72979108D01*
X99642389Y-72774866D01*
X99227423Y-72398959D01*
X98839039Y-72238096D01*
X98617000Y-72360085D01*
X98617000Y-73503000D01*
X98637000Y-73503000D01*
X98637000Y-73757000D01*
X98617000Y-73757000D01*
X98617000Y-74899915D01*
X98839039Y-75021904D01*
X99227423Y-74861041D01*
X99642389Y-74485134D01*
X99739053Y-74280892D01*
X99995423Y-74664577D01*
X100470091Y-74981740D01*
X100888667Y-75065000D01*
X101171333Y-75065000D01*
X101589909Y-74981740D01*
X102064577Y-74664577D01*
X102300000Y-74312242D01*
X102535423Y-74664577D01*
X103010091Y-74981740D01*
X103428667Y-75065000D01*
X103711333Y-75065000D01*
X104129909Y-74981740D01*
X104604577Y-74664577D01*
X104840000Y-74312242D01*
X105075423Y-74664577D01*
X105550091Y-74981740D01*
X105968667Y-75065000D01*
X106251333Y-75065000D01*
X106475002Y-75020510D01*
X106475002Y-79859491D01*
X106251333Y-79815000D01*
X105968667Y-79815000D01*
X105550091Y-79898260D01*
X105075423Y-80215423D01*
X104840000Y-80567758D01*
X104604577Y-80215423D01*
X104188966Y-79937721D01*
X104285000Y-79705874D01*
X104285000Y-79294126D01*
X104127431Y-78913720D01*
X103836280Y-78622569D01*
X103455874Y-78465000D01*
X103044126Y-78465000D01*
X102663720Y-78622569D01*
X102546289Y-78740000D01*
X93203711Y-78740000D01*
X93086280Y-78622569D01*
X92705874Y-78465000D01*
X92294126Y-78465000D01*
X91913720Y-78622569D01*
X91622569Y-78913720D01*
X91465000Y-79294126D01*
X91465000Y-79705874D01*
X91588613Y-80004303D01*
X91429909Y-79898260D01*
X91011333Y-79815000D01*
X90728667Y-79815000D01*
X90310091Y-79898260D01*
X89835423Y-80215423D01*
X89600000Y-80567758D01*
X89364577Y-80215423D01*
X88889909Y-79898260D01*
X88471333Y-79815000D01*
X88188667Y-79815000D01*
X87770091Y-79898260D01*
X87295423Y-80215423D01*
X87060000Y-80567758D01*
X86824577Y-80215423D01*
X86349909Y-79898260D01*
X85931333Y-79815000D01*
X85648667Y-79815000D01*
X85230091Y-79898260D01*
X84755423Y-80215423D01*
X84674785Y-80336106D01*
X84648157Y-80202235D01*
X84507809Y-79992191D01*
X84297765Y-79851843D01*
X84050000Y-79802560D01*
X82450000Y-79802560D01*
X82202235Y-79851843D01*
X81992191Y-79992191D01*
X81851843Y-80202235D01*
X81802560Y-80450000D01*
X81802560Y-82050000D01*
X81851843Y-82297765D01*
X81992191Y-82507809D01*
X82202235Y-82648157D01*
X82450000Y-82697440D01*
X84050000Y-82697440D01*
X84297765Y-82648157D01*
X84507809Y-82507809D01*
X84648157Y-82297765D01*
X84674785Y-82163894D01*
X84755423Y-82284577D01*
X85230091Y-82601740D01*
X85648667Y-82685000D01*
X85931333Y-82685000D01*
X86349909Y-82601740D01*
X86824577Y-82284577D01*
X87060000Y-81932242D01*
X87295423Y-82284577D01*
X87770091Y-82601740D01*
X88188667Y-82685000D01*
X88471333Y-82685000D01*
X88889909Y-82601740D01*
X89364577Y-82284577D01*
X89600000Y-81932242D01*
X89835423Y-82284577D01*
X90310091Y-82601740D01*
X90728667Y-82685000D01*
X91011333Y-82685000D01*
X91429909Y-82601740D01*
X91904577Y-82284577D01*
X92140000Y-81932242D01*
X92375423Y-82284577D01*
X92850091Y-82601740D01*
X93268667Y-82685000D01*
X93551333Y-82685000D01*
X93969909Y-82601740D01*
X94444577Y-82284577D01*
X94680000Y-81932242D01*
X94915423Y-82284577D01*
X95390091Y-82601740D01*
X95808667Y-82685000D01*
X96091333Y-82685000D01*
X96509909Y-82601740D01*
X96984577Y-82284577D01*
X97220000Y-81932242D01*
X97455423Y-82284577D01*
X97930091Y-82601740D01*
X98348667Y-82685000D01*
X98631333Y-82685000D01*
X99049909Y-82601740D01*
X99524577Y-82284577D01*
X99780947Y-81900892D01*
X99877611Y-82105134D01*
X100292577Y-82481041D01*
X100680961Y-82641904D01*
X100903000Y-82519915D01*
X100903000Y-81377000D01*
X100883000Y-81377000D01*
X100883000Y-81123000D01*
X100903000Y-81123000D01*
X100903000Y-81103000D01*
X101157000Y-81103000D01*
X101157000Y-81123000D01*
X101177000Y-81123000D01*
X101177000Y-81377000D01*
X101157000Y-81377000D01*
X101157000Y-82519915D01*
X101201071Y-82544128D01*
X96813514Y-86931685D01*
X96465460Y-87075853D01*
X96075853Y-87465460D01*
X95865000Y-87974506D01*
X95865000Y-88525494D01*
X96075853Y-89034540D01*
X96465460Y-89424147D01*
X96490000Y-89434312D01*
X96490001Y-94447760D01*
X96113914Y-94823847D01*
X95865000Y-95424778D01*
X95865000Y-96075222D01*
X96113914Y-96676153D01*
X96573847Y-97136086D01*
X97174778Y-97385000D01*
X97825222Y-97385000D01*
X98426153Y-97136086D01*
X98886086Y-96676153D01*
X99135000Y-96075222D01*
X99135000Y-95424778D01*
X98886086Y-94823847D01*
X98426153Y-94363914D01*
X98010000Y-94191538D01*
X98010000Y-89434312D01*
X98034540Y-89424147D01*
X98424147Y-89034540D01*
X98635000Y-88525494D01*
X98635000Y-87974506D01*
X98425668Y-87469133D01*
X103246114Y-82648688D01*
X103428667Y-82685000D01*
X103711333Y-82685000D01*
X104129909Y-82601740D01*
X104604577Y-82284577D01*
X104840000Y-81932242D01*
X105075423Y-82284577D01*
X105350000Y-82468044D01*
X105350001Y-83955197D01*
X102430034Y-86875165D01*
X102405494Y-86865000D01*
X101854506Y-86865000D01*
X101345460Y-87075853D01*
X100955853Y-87465460D01*
X100745000Y-87974506D01*
X100745000Y-88525494D01*
X100955853Y-89034540D01*
X101345460Y-89424147D01*
X101370000Y-89434312D01*
X101370001Y-94817760D01*
X101363914Y-94823847D01*
X101115000Y-95424778D01*
X101115000Y-96075222D01*
X101363914Y-96676153D01*
X101823847Y-97136086D01*
X102424778Y-97385000D01*
X103075222Y-97385000D01*
X103676153Y-97136086D01*
X103909707Y-96902532D01*
X111777073Y-96902532D01*
X111875736Y-97169387D01*
X112485461Y-97395908D01*
X113135460Y-97371856D01*
X113624264Y-97169387D01*
X113722927Y-96902532D01*
X112750000Y-95929605D01*
X111777073Y-96902532D01*
X103909707Y-96902532D01*
X104136086Y-96676153D01*
X104385000Y-96075222D01*
X104385000Y-95485461D01*
X111104092Y-95485461D01*
X111128144Y-96135460D01*
X111330613Y-96624264D01*
X111597468Y-96722927D01*
X112570395Y-95750000D01*
X112929605Y-95750000D01*
X113902532Y-96722927D01*
X114169387Y-96624264D01*
X114395908Y-96014539D01*
X114371856Y-95364540D01*
X114169387Y-94875736D01*
X113902532Y-94777073D01*
X112929605Y-95750000D01*
X112570395Y-95750000D01*
X111597468Y-94777073D01*
X111330613Y-94875736D01*
X111104092Y-95485461D01*
X104385000Y-95485461D01*
X104385000Y-95424778D01*
X104136086Y-94823847D01*
X103909707Y-94597468D01*
X111777073Y-94597468D01*
X112750000Y-95570395D01*
X113722927Y-94597468D01*
X113624264Y-94330613D01*
X113014539Y-94104092D01*
X112364540Y-94128144D01*
X111875736Y-94330613D01*
X111777073Y-94597468D01*
X103909707Y-94597468D01*
X103676153Y-94363914D01*
X103075222Y-94115000D01*
X102890000Y-94115000D01*
X102890000Y-89434312D01*
X102914540Y-89424147D01*
X103304147Y-89034540D01*
X103515000Y-88525494D01*
X103515000Y-87974506D01*
X103504835Y-87949966D01*
X106594473Y-84860329D01*
X106657929Y-84817929D01*
X106825904Y-84566537D01*
X106870000Y-84344852D01*
X106870000Y-84344847D01*
X106884888Y-84270000D01*
X106870000Y-84195153D01*
X106870000Y-83794126D01*
X117965000Y-83794126D01*
X117965000Y-84205874D01*
X118122569Y-84586280D01*
X118413720Y-84877431D01*
X118794126Y-85035000D01*
X119205874Y-85035000D01*
X119586280Y-84877431D01*
X119877431Y-84586280D01*
X120035000Y-84205874D01*
X120035000Y-83794126D01*
X119877431Y-83413720D01*
X119760000Y-83296289D01*
X119760000Y-79814801D01*
X121789803Y-77785000D01*
X121955874Y-77785000D01*
X122336280Y-77627431D01*
X122627431Y-77336280D01*
X122785000Y-76955874D01*
X122785000Y-76544126D01*
X122627431Y-76163720D01*
X122336280Y-75872569D01*
X121955874Y-75715000D01*
X121544126Y-75715000D01*
X121163720Y-75872569D01*
X120872569Y-76163720D01*
X120715000Y-76544126D01*
X120715000Y-76710197D01*
X118515530Y-78909669D01*
X118452071Y-78952071D01*
X118284096Y-79203464D01*
X118240000Y-79425149D01*
X118240000Y-79425153D01*
X118225112Y-79500000D01*
X118240000Y-79574847D01*
X118240001Y-83296288D01*
X118122569Y-83413720D01*
X117965000Y-83794126D01*
X106870000Y-83794126D01*
X106870000Y-82468043D01*
X107024804Y-82364607D01*
X107519670Y-82859474D01*
X107562070Y-82922930D01*
X107813462Y-83090905D01*
X108035147Y-83135001D01*
X108035151Y-83135001D01*
X108109998Y-83149889D01*
X108184845Y-83135001D01*
X112530152Y-83135001D01*
X112604999Y-83149889D01*
X112679846Y-83135001D01*
X112679851Y-83135001D01*
X112901536Y-83090905D01*
X113152928Y-82922930D01*
X113195330Y-82859471D01*
X113406113Y-82648688D01*
X113588667Y-82685000D01*
X113871333Y-82685000D01*
X114289909Y-82601740D01*
X114764577Y-82284577D01*
X115000000Y-81932242D01*
X115235423Y-82284577D01*
X115710091Y-82601740D01*
X116128667Y-82685000D01*
X116411333Y-82685000D01*
X116829909Y-82601740D01*
X117304577Y-82284577D01*
X117621740Y-81809909D01*
X117733113Y-81250000D01*
X117621740Y-80690091D01*
X117304577Y-80215423D01*
X116829909Y-79898260D01*
X116411333Y-79815000D01*
X116128667Y-79815000D01*
X115710091Y-79898260D01*
X115235423Y-80215423D01*
X115000000Y-80567758D01*
X114764577Y-80215423D01*
X114289909Y-79898260D01*
X113871333Y-79815000D01*
X113588667Y-79815000D01*
X113170091Y-79898260D01*
X112695423Y-80215423D01*
X112460000Y-80567758D01*
X112304607Y-80335196D01*
X119609477Y-73030328D01*
X119672930Y-72987930D01*
X119715328Y-72924477D01*
X119715330Y-72924475D01*
X119840904Y-72736539D01*
X119840905Y-72736538D01*
X119885001Y-72514853D01*
X119885001Y-72514849D01*
X119899889Y-72440002D01*
X119885001Y-72365155D01*
X119885001Y-66384996D01*
X125915000Y-66384996D01*
X125915000Y-67115004D01*
X126194362Y-67789444D01*
X126710556Y-68305638D01*
X127384996Y-68585000D01*
X128115004Y-68585000D01*
X128789444Y-68305638D01*
X129305638Y-67789444D01*
X129585000Y-67115004D01*
X129585000Y-66384996D01*
X129305638Y-65710556D01*
X128789444Y-65194362D01*
X128115004Y-64915000D01*
X127384996Y-64915000D01*
X126710556Y-65194362D01*
X126194362Y-65710556D01*
X125915000Y-66384996D01*
X119885001Y-66384996D01*
X119885001Y-53047175D01*
X126632430Y-53047175D01*
X126755565Y-53334788D01*
X127437734Y-53594707D01*
X128167443Y-53573786D01*
X128744435Y-53334788D01*
X128867570Y-53047175D01*
X127750000Y-51929605D01*
X126632430Y-53047175D01*
X119885001Y-53047175D01*
X119885001Y-51437734D01*
X125905293Y-51437734D01*
X125926214Y-52167443D01*
X126165212Y-52744435D01*
X126452825Y-52867570D01*
X127570395Y-51750000D01*
X127929605Y-51750000D01*
X129047175Y-52867570D01*
X129334788Y-52744435D01*
X129594707Y-52062266D01*
X129573786Y-51332557D01*
X129334788Y-50755565D01*
X129047175Y-50632430D01*
X127929605Y-51750000D01*
X127570395Y-51750000D01*
X126452825Y-50632430D01*
X126165212Y-50755565D01*
X125905293Y-51437734D01*
X119885001Y-51437734D01*
X119885001Y-50452825D01*
X126632430Y-50452825D01*
X127750000Y-51570395D01*
X128867570Y-50452825D01*
X128744435Y-50165212D01*
X128062266Y-49905293D01*
X127332557Y-49926214D01*
X126755565Y-50165212D01*
X126632430Y-50452825D01*
X119885001Y-50452825D01*
X119885001Y-48149800D01*
X121611102Y-46423699D01*
X132255906Y-46423699D01*
X132695895Y-46981489D01*
X134318293Y-47674859D01*
X136082536Y-47694585D01*
X137720031Y-47037664D01*
X137804105Y-46981489D01*
X138244094Y-46423699D01*
X135250000Y-43429605D01*
X132255906Y-46423699D01*
X121611102Y-46423699D01*
X123314296Y-44720506D01*
X123409642Y-44760000D01*
X124010358Y-44760000D01*
X124565346Y-44530116D01*
X124990116Y-44105346D01*
X124999564Y-44082536D01*
X130805415Y-44082536D01*
X131462336Y-45720031D01*
X131518511Y-45804105D01*
X132076301Y-46244094D01*
X135070395Y-43250000D01*
X135429605Y-43250000D01*
X138423699Y-46244094D01*
X138981489Y-45804105D01*
X139674859Y-44181707D01*
X139694585Y-42417464D01*
X139037664Y-40779969D01*
X138981489Y-40695895D01*
X138423699Y-40255906D01*
X135429605Y-43250000D01*
X135070395Y-43250000D01*
X132076301Y-40255906D01*
X131518511Y-40695895D01*
X130825141Y-42318293D01*
X130805415Y-44082536D01*
X124999564Y-44082536D01*
X125220000Y-43550358D01*
X125220000Y-42949642D01*
X124990116Y-42394654D01*
X124565346Y-41969884D01*
X124099808Y-41777052D01*
X124352926Y-41672207D01*
X124672207Y-41352926D01*
X124845000Y-40935766D01*
X124845000Y-40484234D01*
X124676029Y-40076301D01*
X132255906Y-40076301D01*
X135250000Y-43070395D01*
X138244094Y-40076301D01*
X137804105Y-39518511D01*
X136181707Y-38825141D01*
X134417464Y-38805415D01*
X132779969Y-39462336D01*
X132695895Y-39518511D01*
X132255906Y-40076301D01*
X124676029Y-40076301D01*
X124672207Y-40067074D01*
X124352926Y-39747793D01*
X123935766Y-39575000D01*
X123484234Y-39575000D01*
X123067074Y-39747793D01*
X122747793Y-40067074D01*
X122575000Y-40484234D01*
X122575000Y-40935766D01*
X122747793Y-41352926D01*
X123067074Y-41672207D01*
X123320192Y-41777052D01*
X122854654Y-41969884D01*
X122440000Y-42384538D01*
X122025346Y-41969884D01*
X121559808Y-41777052D01*
X121812926Y-41672207D01*
X122132207Y-41352926D01*
X122305000Y-40935766D01*
X122305000Y-40484234D01*
X122132207Y-40067074D01*
X121812926Y-39747793D01*
X121395766Y-39575000D01*
X120944234Y-39575000D01*
X120527074Y-39747793D01*
X120207793Y-40067074D01*
X120035000Y-40484234D01*
X120035000Y-40935766D01*
X120207793Y-41352926D01*
X120527074Y-41672207D01*
X120780192Y-41777052D01*
X120314654Y-41969884D01*
X119889884Y-42394654D01*
X119876091Y-42427952D01*
X119692060Y-42367545D01*
X118809605Y-43250000D01*
X118823748Y-43264143D01*
X118644143Y-43443748D01*
X118630000Y-43429605D01*
X117747545Y-44312060D01*
X117830884Y-44565953D01*
X118395306Y-44771590D01*
X118581686Y-44763512D01*
X117355199Y-45990000D01*
X102254802Y-45990000D01*
X103524296Y-44720506D01*
X103619642Y-44760000D01*
X104220358Y-44760000D01*
X104775346Y-44530116D01*
X105190000Y-44115462D01*
X105604654Y-44530116D01*
X106159642Y-44760000D01*
X106760358Y-44760000D01*
X107315346Y-44530116D01*
X107740116Y-44105346D01*
X107970000Y-43550358D01*
X107970000Y-43015306D01*
X117108410Y-43015306D01*
X117134421Y-43615458D01*
X117314047Y-44049116D01*
X117567940Y-44132455D01*
X118450395Y-43250000D01*
X117567940Y-42367545D01*
X117314047Y-42450884D01*
X117108410Y-43015306D01*
X107970000Y-43015306D01*
X107970000Y-42949642D01*
X107740116Y-42394654D01*
X107315346Y-41969884D01*
X106849808Y-41777052D01*
X107102926Y-41672207D01*
X107422207Y-41352926D01*
X107595000Y-40935766D01*
X107595000Y-40484234D01*
X117495000Y-40484234D01*
X117495000Y-40935766D01*
X117667793Y-41352926D01*
X117987074Y-41672207D01*
X118225049Y-41770779D01*
X117830884Y-41934047D01*
X117747545Y-42187940D01*
X118630000Y-43070395D01*
X119512455Y-42187940D01*
X119429116Y-41934047D01*
X119009698Y-41781240D01*
X119272926Y-41672207D01*
X119592207Y-41352926D01*
X119765000Y-40935766D01*
X119765000Y-40484234D01*
X119592207Y-40067074D01*
X119272926Y-39747793D01*
X118855766Y-39575000D01*
X118404234Y-39575000D01*
X117987074Y-39747793D01*
X117667793Y-40067074D01*
X117495000Y-40484234D01*
X107595000Y-40484234D01*
X107422207Y-40067074D01*
X107102926Y-39747793D01*
X106685766Y-39575000D01*
X106234234Y-39575000D01*
X105817074Y-39747793D01*
X105497793Y-40067074D01*
X105325000Y-40484234D01*
X105325000Y-40935766D01*
X105497793Y-41352926D01*
X105817074Y-41672207D01*
X106070192Y-41777052D01*
X105604654Y-41969884D01*
X105190000Y-42384538D01*
X104775346Y-41969884D01*
X104309808Y-41777052D01*
X104562926Y-41672207D01*
X104882207Y-41352926D01*
X105055000Y-40935766D01*
X105055000Y-40484234D01*
X104882207Y-40067074D01*
X104562926Y-39747793D01*
X104145766Y-39575000D01*
X103694234Y-39575000D01*
X103277074Y-39747793D01*
X102957793Y-40067074D01*
X102785000Y-40484234D01*
X102785000Y-40935766D01*
X102957793Y-41352926D01*
X103277074Y-41672207D01*
X103530192Y-41777052D01*
X103064654Y-41969884D01*
X102639884Y-42394654D01*
X102626091Y-42427952D01*
X102442060Y-42367545D01*
X101559605Y-43250000D01*
X101573748Y-43264143D01*
X101394143Y-43443748D01*
X101380000Y-43429605D01*
X100497545Y-44312060D01*
X100580884Y-44565953D01*
X101145306Y-44771590D01*
X101331686Y-44763512D01*
X99935530Y-46159669D01*
X99872071Y-46202071D01*
X99829671Y-46265527D01*
X93765528Y-52329671D01*
X93702072Y-52372071D01*
X93659672Y-52435527D01*
X93659671Y-52435528D01*
X93534097Y-52623463D01*
X93475112Y-52920000D01*
X93490001Y-52994852D01*
X93490000Y-56079549D01*
X93252235Y-56126843D01*
X93042191Y-56267191D01*
X92901843Y-56477235D01*
X92852560Y-56725000D01*
X92852560Y-56955824D01*
X90012708Y-58272311D01*
X89953463Y-58284096D01*
X89876827Y-58335303D01*
X89862449Y-58341968D01*
X89814697Y-58376817D01*
X89702071Y-58452071D01*
X89693023Y-58465612D01*
X89679870Y-58475211D01*
X89609347Y-58590842D01*
X89534096Y-58703464D01*
X89530919Y-58719435D01*
X89522440Y-58733338D01*
X89501536Y-58867154D01*
X89490000Y-58925149D01*
X89490000Y-58941001D01*
X89475775Y-59032061D01*
X89490000Y-59090765D01*
X89490001Y-64935197D01*
X87815199Y-66610000D01*
X72468043Y-66610000D01*
X72284577Y-66335423D01*
X71809909Y-66018260D01*
X71391333Y-65935000D01*
X71108667Y-65935000D01*
X70926115Y-65971312D01*
X68169364Y-63214561D01*
X77315000Y-63214561D01*
X77315000Y-63785439D01*
X77533466Y-64312862D01*
X77937138Y-64716534D01*
X78464561Y-64935000D01*
X79035439Y-64935000D01*
X79562862Y-64716534D01*
X79966534Y-64312862D01*
X80185000Y-63785439D01*
X80185000Y-63214561D01*
X79966534Y-62687138D01*
X79562862Y-62283466D01*
X79035439Y-62065000D01*
X78464561Y-62065000D01*
X77937138Y-62283466D01*
X77533466Y-62687138D01*
X77315000Y-63214561D01*
X68169364Y-63214561D01*
X66139802Y-61185000D01*
X66311333Y-61185000D01*
X66729909Y-61101740D01*
X67204577Y-60784577D01*
X67440000Y-60432242D01*
X67675423Y-60784577D01*
X68150091Y-61101740D01*
X68568667Y-61185000D01*
X68851333Y-61185000D01*
X69269909Y-61101740D01*
X69744577Y-60784577D01*
X69815735Y-60678082D01*
X69911673Y-60909698D01*
X70090301Y-61088327D01*
X70323690Y-61185000D01*
X70964250Y-61185000D01*
X71123000Y-61026250D01*
X71123000Y-59877000D01*
X71377000Y-59877000D01*
X71377000Y-61026250D01*
X71535750Y-61185000D01*
X72176310Y-61185000D01*
X72409699Y-61088327D01*
X72588327Y-60909698D01*
X72685000Y-60676309D01*
X72685000Y-60035750D01*
X72526250Y-59877000D01*
X71377000Y-59877000D01*
X71123000Y-59877000D01*
X71103000Y-59877000D01*
X71103000Y-59623000D01*
X71123000Y-59623000D01*
X71123000Y-58473750D01*
X71377000Y-58473750D01*
X71377000Y-59623000D01*
X72526250Y-59623000D01*
X72685000Y-59464250D01*
X72685000Y-58823691D01*
X72588327Y-58590302D01*
X72409699Y-58411673D01*
X72176310Y-58315000D01*
X71535750Y-58315000D01*
X71377000Y-58473750D01*
X71123000Y-58473750D01*
X70964250Y-58315000D01*
X70323690Y-58315000D01*
X70090301Y-58411673D01*
X69911673Y-58590302D01*
X69815735Y-58821918D01*
X69744577Y-58715423D01*
X69269909Y-58398260D01*
X68851333Y-58315000D01*
X68568667Y-58315000D01*
X68150091Y-58398260D01*
X67675423Y-58715423D01*
X67440000Y-59067758D01*
X67204577Y-58715423D01*
X66729909Y-58398260D01*
X66311333Y-58315000D01*
X66028667Y-58315000D01*
X65610091Y-58398260D01*
X65135423Y-58715423D01*
X64900000Y-59067758D01*
X64664577Y-58715423D01*
X64189909Y-58398260D01*
X63771333Y-58315000D01*
X63488667Y-58315000D01*
X63070091Y-58398260D01*
X62595423Y-58715423D01*
X62278260Y-59190091D01*
X62166887Y-59750000D01*
X62278260Y-60309909D01*
X62595423Y-60784577D01*
X63070091Y-61101740D01*
X63488667Y-61185000D01*
X63771333Y-61185000D01*
X63953887Y-61148688D01*
X68740198Y-65935000D01*
X68568667Y-65935000D01*
X68150091Y-66018260D01*
X67675423Y-66335423D01*
X67440000Y-66687758D01*
X67204577Y-66335423D01*
X66729909Y-66018260D01*
X66311333Y-65935000D01*
X66028667Y-65935000D01*
X65610091Y-66018260D01*
X65135423Y-66335423D01*
X64900000Y-66687758D01*
X64664577Y-66335423D01*
X64189909Y-66018260D01*
X63771333Y-65935000D01*
X63488667Y-65935000D01*
X63070091Y-66018260D01*
X62595423Y-66335423D01*
X62278260Y-66810091D01*
X62166887Y-67370000D01*
X62278260Y-67929909D01*
X62595423Y-68404577D01*
X62870001Y-68588044D01*
X62870000Y-75055197D01*
X62838301Y-75086896D01*
X62785439Y-75065000D01*
X62214561Y-75065000D01*
X61687138Y-75283466D01*
X61283466Y-75687138D01*
X61065000Y-76214561D01*
X58185000Y-76214561D01*
X57966534Y-75687138D01*
X57562862Y-75283466D01*
X57510000Y-75261570D01*
X57510000Y-69047440D01*
X57650000Y-69047440D01*
X57897765Y-68998157D01*
X58107809Y-68857809D01*
X58248157Y-68647765D01*
X58297440Y-68400000D01*
X58297440Y-66600000D01*
X58248157Y-66352235D01*
X58107809Y-66142191D01*
X57897765Y-66001843D01*
X57650000Y-65952560D01*
X55850000Y-65952560D01*
X55602235Y-66001843D01*
X55392191Y-66142191D01*
X55251843Y-66352235D01*
X55202560Y-66600000D01*
X55202560Y-68400000D01*
X55251843Y-68647765D01*
X55392191Y-68857809D01*
X55602235Y-68998157D01*
X55850000Y-69047440D01*
X55990001Y-69047440D01*
X55990000Y-75261570D01*
X55937138Y-75283466D01*
X55533466Y-75687138D01*
X55511570Y-75740000D01*
X52091984Y-75740000D01*
X51966534Y-75437138D01*
X51562862Y-75033466D01*
X51035439Y-74815000D01*
X50464561Y-74815000D01*
X49937138Y-75033466D01*
X49533466Y-75437138D01*
X49315000Y-75964561D01*
X45960000Y-75964561D01*
X45960000Y-68660000D01*
X49286887Y-68660000D01*
X49398260Y-69219909D01*
X49715423Y-69694577D01*
X50190091Y-70011740D01*
X50608667Y-70095000D01*
X50891333Y-70095000D01*
X51309909Y-70011740D01*
X51784577Y-69694577D01*
X52101740Y-69219909D01*
X52213113Y-68660000D01*
X52101740Y-68100091D01*
X51784577Y-67625423D01*
X51309909Y-67308260D01*
X50891333Y-67225000D01*
X50608667Y-67225000D01*
X50190091Y-67308260D01*
X49715423Y-67625423D01*
X49398260Y-68100091D01*
X49286887Y-68660000D01*
X45960000Y-68660000D01*
X45960000Y-58214561D01*
X49315000Y-58214561D01*
X49315000Y-58785439D01*
X49533466Y-59312862D01*
X49937138Y-59716534D01*
X50464561Y-59935000D01*
X51035439Y-59935000D01*
X51562862Y-59716534D01*
X51966534Y-59312862D01*
X51988430Y-59260000D01*
X55055199Y-59260000D01*
X55266269Y-59471070D01*
X55184928Y-59880000D01*
X55304062Y-60478927D01*
X55643327Y-60986673D01*
X56151073Y-61325938D01*
X56598818Y-61415000D01*
X56901182Y-61415000D01*
X57348927Y-61325938D01*
X57856673Y-60986673D01*
X58195938Y-60478927D01*
X58315072Y-59880000D01*
X58195938Y-59281073D01*
X57856673Y-58773327D01*
X57348927Y-58434062D01*
X56901182Y-58345000D01*
X56598818Y-58345000D01*
X56341070Y-58396269D01*
X55960331Y-58015530D01*
X55917929Y-57952071D01*
X55666537Y-57784096D01*
X55444852Y-57740000D01*
X55444847Y-57740000D01*
X55370000Y-57725112D01*
X55295153Y-57740000D01*
X51988430Y-57740000D01*
X51966534Y-57687138D01*
X51562862Y-57283466D01*
X51035439Y-57065000D01*
X50464561Y-57065000D01*
X49937138Y-57283466D01*
X49533466Y-57687138D01*
X49315000Y-58214561D01*
X45960000Y-58214561D01*
X45960000Y-46423699D01*
X52255906Y-46423699D01*
X52695895Y-46981489D01*
X54318293Y-47674859D01*
X56082536Y-47694585D01*
X57720031Y-47037664D01*
X57804105Y-46981489D01*
X58244094Y-46423699D01*
X55250000Y-43429605D01*
X52255906Y-46423699D01*
X45960000Y-46423699D01*
X45960000Y-44082536D01*
X50805415Y-44082536D01*
X51462336Y-45720031D01*
X51518511Y-45804105D01*
X52076301Y-46244094D01*
X55070395Y-43250000D01*
X55429605Y-43250000D01*
X58423699Y-46244094D01*
X58981489Y-45804105D01*
X59619149Y-44312060D01*
X65997545Y-44312060D01*
X66080884Y-44565953D01*
X66645306Y-44771590D01*
X67245458Y-44745579D01*
X67679116Y-44565953D01*
X67762455Y-44312060D01*
X66880000Y-43429605D01*
X65997545Y-44312060D01*
X59619149Y-44312060D01*
X59674859Y-44181707D01*
X59687900Y-43015306D01*
X65358410Y-43015306D01*
X65384421Y-43615458D01*
X65564047Y-44049116D01*
X65817940Y-44132455D01*
X66700395Y-43250000D01*
X67059605Y-43250000D01*
X67942060Y-44132455D01*
X68126091Y-44072048D01*
X68139884Y-44105346D01*
X68564654Y-44530116D01*
X68660000Y-44569610D01*
X68660001Y-46345148D01*
X68645112Y-46420000D01*
X68660001Y-46494852D01*
X68704097Y-46716537D01*
X68872072Y-46967929D01*
X68935528Y-47010329D01*
X85086896Y-63161698D01*
X85065000Y-63214561D01*
X85065000Y-63785439D01*
X85283466Y-64312862D01*
X85687138Y-64716534D01*
X86214561Y-64935000D01*
X86785439Y-64935000D01*
X87312862Y-64716534D01*
X87716534Y-64312862D01*
X87935000Y-63785439D01*
X87935000Y-63214561D01*
X87716534Y-62687138D01*
X87312862Y-62283466D01*
X86785439Y-62065000D01*
X86214561Y-62065000D01*
X86161698Y-62086896D01*
X78849802Y-54775000D01*
X78891333Y-54775000D01*
X79309909Y-54691740D01*
X79784577Y-54374577D01*
X80101740Y-53899909D01*
X80143684Y-53689041D01*
X85108086Y-53689041D01*
X85347611Y-54195134D01*
X85762577Y-54571041D01*
X86150961Y-54731904D01*
X86373000Y-54609915D01*
X86373000Y-53467000D01*
X86627000Y-53467000D01*
X86627000Y-54609915D01*
X86849039Y-54731904D01*
X87237423Y-54571041D01*
X87652389Y-54195134D01*
X87891914Y-53689041D01*
X87770629Y-53467000D01*
X86627000Y-53467000D01*
X86373000Y-53467000D01*
X85229371Y-53467000D01*
X85108086Y-53689041D01*
X80143684Y-53689041D01*
X80213113Y-53340000D01*
X80148688Y-53016113D01*
X80173842Y-52990959D01*
X85108086Y-52990959D01*
X85229371Y-53213000D01*
X86373000Y-53213000D01*
X86373000Y-52070085D01*
X86627000Y-52070085D01*
X86627000Y-53213000D01*
X87770629Y-53213000D01*
X87891914Y-52990959D01*
X87652389Y-52484866D01*
X87237423Y-52108959D01*
X86849039Y-51948096D01*
X86627000Y-52070085D01*
X86373000Y-52070085D01*
X86150961Y-51948096D01*
X85762577Y-52108959D01*
X85347611Y-52484866D01*
X85108086Y-52990959D01*
X80173842Y-52990959D01*
X87944473Y-45220329D01*
X88007929Y-45177929D01*
X88175904Y-44926537D01*
X88220000Y-44704852D01*
X88220000Y-44704848D01*
X88234888Y-44630001D01*
X88222657Y-44568509D01*
X88315346Y-44530116D01*
X88740116Y-44105346D01*
X88970000Y-43550358D01*
X88970000Y-43015306D01*
X99858410Y-43015306D01*
X99884421Y-43615458D01*
X100064047Y-44049116D01*
X100317940Y-44132455D01*
X101200395Y-43250000D01*
X100317940Y-42367545D01*
X100064047Y-42450884D01*
X99858410Y-43015306D01*
X88970000Y-43015306D01*
X88970000Y-42949642D01*
X88740116Y-42394654D01*
X88315346Y-41969884D01*
X87849808Y-41777052D01*
X88102926Y-41672207D01*
X88422207Y-41352926D01*
X88595000Y-40935766D01*
X88595000Y-40484234D01*
X100245000Y-40484234D01*
X100245000Y-40935766D01*
X100417793Y-41352926D01*
X100737074Y-41672207D01*
X100975049Y-41770779D01*
X100580884Y-41934047D01*
X100497545Y-42187940D01*
X101380000Y-43070395D01*
X102262455Y-42187940D01*
X102179116Y-41934047D01*
X101759698Y-41781240D01*
X102022926Y-41672207D01*
X102342207Y-41352926D01*
X102515000Y-40935766D01*
X102515000Y-40484234D01*
X102342207Y-40067074D01*
X102022926Y-39747793D01*
X101605766Y-39575000D01*
X101154234Y-39575000D01*
X100737074Y-39747793D01*
X100417793Y-40067074D01*
X100245000Y-40484234D01*
X88595000Y-40484234D01*
X88422207Y-40067074D01*
X88102926Y-39747793D01*
X87685766Y-39575000D01*
X87234234Y-39575000D01*
X86817074Y-39747793D01*
X86497793Y-40067074D01*
X86325000Y-40484234D01*
X86325000Y-40935766D01*
X86497793Y-41352926D01*
X86817074Y-41672207D01*
X87070192Y-41777052D01*
X86604654Y-41969884D01*
X86190000Y-42384538D01*
X85775346Y-41969884D01*
X85309808Y-41777052D01*
X85562926Y-41672207D01*
X85882207Y-41352926D01*
X86055000Y-40935766D01*
X86055000Y-40484234D01*
X85882207Y-40067074D01*
X85562926Y-39747793D01*
X85145766Y-39575000D01*
X84694234Y-39575000D01*
X84277074Y-39747793D01*
X83957793Y-40067074D01*
X83785000Y-40484234D01*
X83785000Y-40935766D01*
X83957793Y-41352926D01*
X84277074Y-41672207D01*
X84530192Y-41777052D01*
X84064654Y-41969884D01*
X83639884Y-42394654D01*
X83626091Y-42427952D01*
X83442060Y-42367545D01*
X82559605Y-43250000D01*
X83442060Y-44132455D01*
X83626091Y-44072048D01*
X83639884Y-44105346D01*
X84064654Y-44530116D01*
X84619642Y-44760000D01*
X85220358Y-44760000D01*
X85775346Y-44530116D01*
X86190000Y-44115462D01*
X86544868Y-44470330D01*
X79073887Y-51941312D01*
X78891333Y-51905000D01*
X78608667Y-51905000D01*
X78190091Y-51988260D01*
X77715423Y-52305423D01*
X77398260Y-52780091D01*
X77308109Y-53233308D01*
X70180000Y-46105199D01*
X70180000Y-44569610D01*
X70275346Y-44530116D01*
X70690000Y-44115462D01*
X71104654Y-44530116D01*
X71659642Y-44760000D01*
X72260358Y-44760000D01*
X72815346Y-44530116D01*
X73033402Y-44312060D01*
X81497545Y-44312060D01*
X81580884Y-44565953D01*
X82145306Y-44771590D01*
X82745458Y-44745579D01*
X83179116Y-44565953D01*
X83262455Y-44312060D01*
X82380000Y-43429605D01*
X81497545Y-44312060D01*
X73033402Y-44312060D01*
X73240116Y-44105346D01*
X73470000Y-43550358D01*
X73470000Y-43015306D01*
X80858410Y-43015306D01*
X80884421Y-43615458D01*
X81064047Y-44049116D01*
X81317940Y-44132455D01*
X82200395Y-43250000D01*
X81317940Y-42367545D01*
X81064047Y-42450884D01*
X80858410Y-43015306D01*
X73470000Y-43015306D01*
X73470000Y-42949642D01*
X73240116Y-42394654D01*
X72815346Y-41969884D01*
X72349808Y-41777052D01*
X72602926Y-41672207D01*
X72922207Y-41352926D01*
X73095000Y-40935766D01*
X73095000Y-40484234D01*
X81245000Y-40484234D01*
X81245000Y-40935766D01*
X81417793Y-41352926D01*
X81737074Y-41672207D01*
X81975049Y-41770779D01*
X81580884Y-41934047D01*
X81497545Y-42187940D01*
X82380000Y-43070395D01*
X83262455Y-42187940D01*
X83179116Y-41934047D01*
X82759698Y-41781240D01*
X83022926Y-41672207D01*
X83342207Y-41352926D01*
X83515000Y-40935766D01*
X83515000Y-40484234D01*
X83342207Y-40067074D01*
X83022926Y-39747793D01*
X82605766Y-39575000D01*
X82154234Y-39575000D01*
X81737074Y-39747793D01*
X81417793Y-40067074D01*
X81245000Y-40484234D01*
X73095000Y-40484234D01*
X72922207Y-40067074D01*
X72602926Y-39747793D01*
X72185766Y-39575000D01*
X71734234Y-39575000D01*
X71317074Y-39747793D01*
X70997793Y-40067074D01*
X70825000Y-40484234D01*
X70825000Y-40935766D01*
X70997793Y-41352926D01*
X71317074Y-41672207D01*
X71570192Y-41777052D01*
X71104654Y-41969884D01*
X70690000Y-42384538D01*
X70275346Y-41969884D01*
X69809808Y-41777052D01*
X70062926Y-41672207D01*
X70382207Y-41352926D01*
X70555000Y-40935766D01*
X70555000Y-40484234D01*
X70382207Y-40067074D01*
X70062926Y-39747793D01*
X69645766Y-39575000D01*
X69194234Y-39575000D01*
X68777074Y-39747793D01*
X68457793Y-40067074D01*
X68285000Y-40484234D01*
X68285000Y-40935766D01*
X68457793Y-41352926D01*
X68777074Y-41672207D01*
X69030192Y-41777052D01*
X68564654Y-41969884D01*
X68139884Y-42394654D01*
X68126091Y-42427952D01*
X67942060Y-42367545D01*
X67059605Y-43250000D01*
X66700395Y-43250000D01*
X65817940Y-42367545D01*
X65564047Y-42450884D01*
X65358410Y-43015306D01*
X59687900Y-43015306D01*
X59694585Y-42417464D01*
X59037664Y-40779969D01*
X58981489Y-40695895D01*
X58713159Y-40484234D01*
X65745000Y-40484234D01*
X65745000Y-40935766D01*
X65917793Y-41352926D01*
X66237074Y-41672207D01*
X66475049Y-41770779D01*
X66080884Y-41934047D01*
X65997545Y-42187940D01*
X66880000Y-43070395D01*
X67762455Y-42187940D01*
X67679116Y-41934047D01*
X67259698Y-41781240D01*
X67522926Y-41672207D01*
X67842207Y-41352926D01*
X68015000Y-40935766D01*
X68015000Y-40484234D01*
X67842207Y-40067074D01*
X67522926Y-39747793D01*
X67105766Y-39575000D01*
X66654234Y-39575000D01*
X66237074Y-39747793D01*
X65917793Y-40067074D01*
X65745000Y-40484234D01*
X58713159Y-40484234D01*
X58423699Y-40255906D01*
X55429605Y-43250000D01*
X55070395Y-43250000D01*
X52076301Y-40255906D01*
X51518511Y-40695895D01*
X50825141Y-42318293D01*
X50805415Y-44082536D01*
X45960000Y-44082536D01*
X45960000Y-43272313D01*
X46034647Y-42085830D01*
X46253222Y-40940019D01*
X46533861Y-40076301D01*
X52255906Y-40076301D01*
X55250000Y-43070395D01*
X58244094Y-40076301D01*
X57804105Y-39518511D01*
X56181707Y-38825141D01*
X54417464Y-38805415D01*
X52779969Y-39462336D01*
X52695895Y-39518511D01*
X52255906Y-40076301D01*
X46533861Y-40076301D01*
X46613682Y-39830638D01*
X47110339Y-38775187D01*
X47735370Y-37790297D01*
X48478903Y-36891520D01*
X49329228Y-36093013D01*
X50272922Y-35407379D01*
X51295110Y-34845425D01*
X52379662Y-34416021D01*
X53509494Y-34125929D01*
X54677864Y-33978331D01*
X55261165Y-33960000D01*
X135227687Y-33960000D01*
X136414170Y-34034647D01*
X136414170Y-34034647D01*
G37*
X136414170Y-34034647D02*
X137559981Y-34253222D01*
X138669362Y-34613682D01*
X139724813Y-35110339D01*
X140709703Y-35735370D01*
X141608480Y-36478903D01*
X142406987Y-37329228D01*
X143092621Y-38272922D01*
X143654575Y-39295110D01*
X144083979Y-40379662D01*
X144374071Y-41509494D01*
X144521669Y-42677864D01*
X144540001Y-43261197D01*
X144540000Y-123227687D01*
X144465353Y-124414169D01*
X144246778Y-125559981D01*
X143886318Y-126669362D01*
X143389661Y-127724813D01*
X142764630Y-128709703D01*
X142021096Y-129608480D01*
X141170773Y-130406987D01*
X140227078Y-131092621D01*
X139204888Y-131654576D01*
X138120338Y-132083979D01*
X136990505Y-132374071D01*
X135822146Y-132521668D01*
X135238835Y-132540000D01*
X114377000Y-132540000D01*
X114377000Y-126423699D01*
X132255906Y-126423699D01*
X132695895Y-126981489D01*
X134318293Y-127674859D01*
X136082536Y-127694585D01*
X137720031Y-127037664D01*
X137804105Y-126981489D01*
X138244094Y-126423699D01*
X135250000Y-123429605D01*
X132255906Y-126423699D01*
X114377000Y-126423699D01*
X114377000Y-124082536D01*
X130805415Y-124082536D01*
X131462336Y-125720031D01*
X131518511Y-125804105D01*
X132076301Y-126244094D01*
X135070395Y-123250000D01*
X135429605Y-123250000D01*
X138423699Y-126244094D01*
X138981489Y-125804105D01*
X139674859Y-124181707D01*
X139694585Y-122417464D01*
X139037664Y-120779969D01*
X138981489Y-120695895D01*
X138423699Y-120255906D01*
X135429605Y-123250000D01*
X135070395Y-123250000D01*
X132076301Y-120255906D01*
X131518511Y-120695895D01*
X130825141Y-122318293D01*
X130805415Y-124082536D01*
X114377000Y-124082536D01*
X114377000Y-120076301D01*
X132255906Y-120076301D01*
X135250000Y-123070395D01*
X138244094Y-120076301D01*
X137804105Y-119518511D01*
X136181707Y-118825141D01*
X134417464Y-118805415D01*
X132779969Y-119462336D01*
X132695895Y-119518511D01*
X132255906Y-120076301D01*
X114377000Y-120076301D01*
X114377000Y-114577801D01*
X121734473Y-107220329D01*
X121797929Y-107177929D01*
X121965904Y-106926537D01*
X122010000Y-106704852D01*
X122010000Y-106704848D01*
X122024888Y-106630001D01*
X122010000Y-106555154D01*
X122010000Y-105472119D01*
X125353000Y-105472119D01*
X125353000Y-106027881D01*
X125565680Y-106541337D01*
X125958663Y-106934320D01*
X126472119Y-107147000D01*
X127027881Y-107147000D01*
X127541337Y-106934320D01*
X127745444Y-106730213D01*
X136109392Y-106730213D01*
X136178857Y-106972397D01*
X136702302Y-107159144D01*
X137257368Y-107131362D01*
X137641143Y-106972397D01*
X137710608Y-106730213D01*
X136910000Y-105929605D01*
X136109392Y-106730213D01*
X127745444Y-106730213D01*
X127934320Y-106541337D01*
X128147000Y-106027881D01*
X128147000Y-105542302D01*
X135500856Y-105542302D01*
X135528638Y-106097368D01*
X135687603Y-106481143D01*
X135929787Y-106550608D01*
X136730395Y-105750000D01*
X137089605Y-105750000D01*
X137890213Y-106550608D01*
X138132397Y-106481143D01*
X138319144Y-105957698D01*
X138291362Y-105402632D01*
X138132397Y-105018857D01*
X137890213Y-104949392D01*
X137089605Y-105750000D01*
X136730395Y-105750000D01*
X135929787Y-104949392D01*
X135687603Y-105018857D01*
X135500856Y-105542302D01*
X128147000Y-105542302D01*
X128147000Y-105472119D01*
X127934320Y-104958663D01*
X127745444Y-104769787D01*
X136109392Y-104769787D01*
X136910000Y-105570395D01*
X137710608Y-104769787D01*
X137641143Y-104527603D01*
X137117698Y-104340856D01*
X136562632Y-104368638D01*
X136178857Y-104527603D01*
X136109392Y-104769787D01*
X127745444Y-104769787D01*
X127541337Y-104565680D01*
X127027881Y-104353000D01*
X126472119Y-104353000D01*
X125958663Y-104565680D01*
X125565680Y-104958663D01*
X125353000Y-105472119D01*
X122010000Y-105472119D01*
X122010000Y-91671387D01*
X122289444Y-91555638D01*
X122547907Y-91297175D01*
X135132430Y-91297175D01*
X135255565Y-91584788D01*
X135937734Y-91844707D01*
X136667443Y-91823786D01*
X137244435Y-91584788D01*
X137367570Y-91297175D01*
X136250000Y-90179605D01*
X135132430Y-91297175D01*
X122547907Y-91297175D01*
X122805638Y-91039444D01*
X123085000Y-90365004D01*
X123085000Y-89687734D01*
X134405293Y-89687734D01*
X134426214Y-90417443D01*
X134665212Y-90994435D01*
X134952825Y-91117570D01*
X136070395Y-90000000D01*
X136429605Y-90000000D01*
X137547175Y-91117570D01*
X137834788Y-90994435D01*
X138094707Y-90312266D01*
X138073786Y-89582557D01*
X137834788Y-89005565D01*
X137547175Y-88882430D01*
X136429605Y-90000000D01*
X136070395Y-90000000D01*
X134952825Y-88882430D01*
X134665212Y-89005565D01*
X134405293Y-89687734D01*
X123085000Y-89687734D01*
X123085000Y-89634996D01*
X122805638Y-88960556D01*
X122547907Y-88702825D01*
X135132430Y-88702825D01*
X136250000Y-89820395D01*
X137367570Y-88702825D01*
X137244435Y-88415212D01*
X136562266Y-88155293D01*
X135832557Y-88176214D01*
X135255565Y-88415212D01*
X135132430Y-88702825D01*
X122547907Y-88702825D01*
X122289444Y-88444362D01*
X122010000Y-88328613D01*
X122010000Y-80378199D01*
X124981598Y-77406601D01*
X124981598Y-77513802D01*
X125146442Y-77513802D01*
X125025122Y-77743690D01*
X125194953Y-78153724D01*
X125585240Y-78581983D01*
X125715076Y-78642957D01*
X125395973Y-78856175D01*
X125067759Y-79347382D01*
X124952506Y-79926800D01*
X125067759Y-80506218D01*
X125395973Y-80997425D01*
X125887180Y-81325639D01*
X126320342Y-81411800D01*
X126612854Y-81411800D01*
X127046016Y-81325639D01*
X127537223Y-80997425D01*
X127549414Y-80979181D01*
X127558441Y-81024565D01*
X127698789Y-81234609D01*
X127908833Y-81374957D01*
X128156598Y-81424240D01*
X129856598Y-81424240D01*
X130104363Y-81374957D01*
X130314407Y-81234609D01*
X130454755Y-81024565D01*
X130504038Y-80776800D01*
X130504038Y-79076800D01*
X130454755Y-78829035D01*
X130314407Y-78618991D01*
X130104363Y-78478643D01*
X130058979Y-78469616D01*
X130077223Y-78457425D01*
X130284776Y-78146800D01*
X133321999Y-78146800D01*
X137586896Y-82411698D01*
X137565000Y-82464561D01*
X137565000Y-83035439D01*
X137783466Y-83562862D01*
X138187138Y-83966534D01*
X138714561Y-84185000D01*
X139285439Y-84185000D01*
X139812862Y-83966534D01*
X140216534Y-83562862D01*
X140435000Y-83035439D01*
X140435000Y-82464561D01*
X140216534Y-81937138D01*
X139812862Y-81533466D01*
X139285439Y-81315000D01*
X138714561Y-81315000D01*
X138661698Y-81336896D01*
X134227131Y-76902330D01*
X134184729Y-76838871D01*
X133933337Y-76670896D01*
X133711652Y-76626800D01*
X133711647Y-76626800D01*
X133636800Y-76611912D01*
X133561953Y-76626800D01*
X130284776Y-76626800D01*
X130077223Y-76316175D01*
X129778837Y-76116800D01*
X130077223Y-75917425D01*
X130405437Y-75426218D01*
X130520690Y-74846800D01*
X130405437Y-74267382D01*
X130077223Y-73776175D01*
X129586016Y-73447961D01*
X129152854Y-73361800D01*
X129026400Y-73361800D01*
X129038200Y-73350000D01*
X137781957Y-73350000D01*
X137965423Y-73624577D01*
X138440091Y-73941740D01*
X138858667Y-74025000D01*
X139141333Y-74025000D01*
X139559909Y-73941740D01*
X140034577Y-73624577D01*
X140351740Y-73149909D01*
X140463113Y-72590000D01*
X140351740Y-72030091D01*
X140034577Y-71555423D01*
X139559909Y-71238260D01*
X139141333Y-71155000D01*
X138858667Y-71155000D01*
X138440091Y-71238260D01*
X137965423Y-71555423D01*
X137781957Y-71830000D01*
X128798244Y-71830000D01*
X128723397Y-71815112D01*
X128648550Y-71830000D01*
X128648546Y-71830000D01*
X128426861Y-71874096D01*
X128175469Y-72042071D01*
X128133069Y-72105527D01*
X126833006Y-73405591D01*
X126612854Y-73361800D01*
X126320342Y-73361800D01*
X125887180Y-73447961D01*
X125395973Y-73776175D01*
X125067759Y-74267382D01*
X124952506Y-74846800D01*
X125025389Y-75213207D01*
X120765528Y-79473069D01*
X120702072Y-79515469D01*
X120659672Y-79578925D01*
X120659671Y-79578926D01*
X120534097Y-79766861D01*
X120475112Y-80063398D01*
X120490001Y-80138250D01*
X120490000Y-88328613D01*
X120210556Y-88444362D01*
X119694362Y-88960556D01*
X119415000Y-89634996D01*
X119415000Y-90365004D01*
X119694362Y-91039444D01*
X120210556Y-91555638D01*
X120490001Y-91671388D01*
X120490000Y-106315198D01*
X114377000Y-112428199D01*
X114377000Y-106000000D01*
X114367333Y-105951399D01*
X114339803Y-105910197D01*
X114298601Y-105882667D01*
X114250000Y-105873000D01*
X83052606Y-105873000D01*
X79839803Y-102660197D01*
X79798601Y-102632667D01*
X79750000Y-102623000D01*
X45960000Y-102623000D01*
X45960000Y-96902532D01*
X86527073Y-96902532D01*
X86625736Y-97169387D01*
X87235461Y-97395908D01*
X87885460Y-97371856D01*
X88374264Y-97169387D01*
X88472927Y-96902532D01*
X87500000Y-95929605D01*
X86527073Y-96902532D01*
X45960000Y-96902532D01*
X45960000Y-95485461D01*
X85854092Y-95485461D01*
X85878144Y-96135460D01*
X86080613Y-96624264D01*
X86347468Y-96722927D01*
X87320395Y-95750000D01*
X87679605Y-95750000D01*
X88652532Y-96722927D01*
X88919387Y-96624264D01*
X89145908Y-96014539D01*
X89121856Y-95364540D01*
X88919387Y-94875736D01*
X88652532Y-94777073D01*
X87679605Y-95750000D01*
X87320395Y-95750000D01*
X86347468Y-94777073D01*
X86080613Y-94875736D01*
X85854092Y-95485461D01*
X45960000Y-95485461D01*
X45960000Y-94597468D01*
X86527073Y-94597468D01*
X87500000Y-95570395D01*
X88472927Y-94597468D01*
X88374264Y-94330613D01*
X87764539Y-94104092D01*
X87114540Y-94128144D01*
X86625736Y-94330613D01*
X86527073Y-94597468D01*
X45960000Y-94597468D01*
X45960000Y-86759041D01*
X49358086Y-86759041D01*
X49597611Y-87265134D01*
X50012577Y-87641041D01*
X50400961Y-87801904D01*
X50623000Y-87679915D01*
X50623000Y-86537000D01*
X50877000Y-86537000D01*
X50877000Y-87679915D01*
X51099039Y-87801904D01*
X51487423Y-87641041D01*
X51902389Y-87265134D01*
X52141914Y-86759041D01*
X52117618Y-86714561D01*
X57315000Y-86714561D01*
X57315000Y-87285439D01*
X57533466Y-87812862D01*
X57937138Y-88216534D01*
X58464561Y-88435000D01*
X59035439Y-88435000D01*
X59562862Y-88216534D01*
X59966534Y-87812862D01*
X60185000Y-87285439D01*
X60185000Y-87000000D01*
X64906887Y-87000000D01*
X65018260Y-87559909D01*
X65335423Y-88034577D01*
X65810091Y-88351740D01*
X66228667Y-88435000D01*
X66511333Y-88435000D01*
X66929909Y-88351740D01*
X67404577Y-88034577D01*
X67721740Y-87559909D01*
X67833113Y-87000000D01*
X67721740Y-86440091D01*
X67404577Y-85965423D01*
X66929909Y-85648260D01*
X66511333Y-85565000D01*
X66228667Y-85565000D01*
X65810091Y-85648260D01*
X65335423Y-85965423D01*
X65018260Y-86440091D01*
X64906887Y-87000000D01*
X60185000Y-87000000D01*
X60185000Y-86714561D01*
X59966534Y-86187138D01*
X59562862Y-85783466D01*
X59035439Y-85565000D01*
X58464561Y-85565000D01*
X57937138Y-85783466D01*
X57533466Y-86187138D01*
X57315000Y-86714561D01*
X52117618Y-86714561D01*
X52020629Y-86537000D01*
X50877000Y-86537000D01*
X50623000Y-86537000D01*
X49479371Y-86537000D01*
X49358086Y-86759041D01*
X45960000Y-86759041D01*
X45960000Y-86060959D01*
X49358086Y-86060959D01*
X49479371Y-86283000D01*
X50623000Y-86283000D01*
X50623000Y-85140085D01*
X50877000Y-85140085D01*
X50877000Y-86283000D01*
X52020629Y-86283000D01*
X52141914Y-86060959D01*
X51902389Y-85554866D01*
X51487423Y-85178959D01*
X51099039Y-85018096D01*
X50877000Y-85140085D01*
X50623000Y-85140085D01*
X50400961Y-85018096D01*
X50012577Y-85178959D01*
X49597611Y-85554866D01*
X49358086Y-86060959D01*
X45960000Y-86060959D01*
X45960000Y-82507745D01*
X55921861Y-82507745D01*
X55995995Y-82753864D01*
X56533223Y-82946965D01*
X57103454Y-82919778D01*
X57504005Y-82753864D01*
X57578139Y-82507745D01*
X61671861Y-82507745D01*
X61745995Y-82753864D01*
X62283223Y-82946965D01*
X62853454Y-82919778D01*
X63254005Y-82753864D01*
X63328139Y-82507745D01*
X67671861Y-82507745D01*
X67745995Y-82753864D01*
X68283223Y-82946965D01*
X68853454Y-82919778D01*
X69254005Y-82753864D01*
X69328139Y-82507745D01*
X68500000Y-81679605D01*
X67671861Y-82507745D01*
X63328139Y-82507745D01*
X62500000Y-81679605D01*
X61671861Y-82507745D01*
X57578139Y-82507745D01*
X56750000Y-81679605D01*
X55921861Y-82507745D01*
X45960000Y-82507745D01*
X45960000Y-81283223D01*
X55303035Y-81283223D01*
X55330222Y-81853454D01*
X55496136Y-82254005D01*
X55742255Y-82328139D01*
X56570395Y-81500000D01*
X56929605Y-81500000D01*
X57757745Y-82328139D01*
X58003864Y-82254005D01*
X58196965Y-81716777D01*
X58176295Y-81283223D01*
X61053035Y-81283223D01*
X61080222Y-81853454D01*
X61246136Y-82254005D01*
X61492255Y-82328139D01*
X62320395Y-81500000D01*
X62679605Y-81500000D01*
X63507745Y-82328139D01*
X63753864Y-82254005D01*
X63946965Y-81716777D01*
X63926295Y-81283223D01*
X67053035Y-81283223D01*
X67080222Y-81853454D01*
X67246136Y-82254005D01*
X67492255Y-82328139D01*
X68320395Y-81500000D01*
X68679605Y-81500000D01*
X69507745Y-82328139D01*
X69753864Y-82254005D01*
X69946965Y-81716777D01*
X69919778Y-81146546D01*
X69753864Y-80745995D01*
X69507745Y-80671861D01*
X68679605Y-81500000D01*
X68320395Y-81500000D01*
X67492255Y-80671861D01*
X67246136Y-80745995D01*
X67053035Y-81283223D01*
X63926295Y-81283223D01*
X63919778Y-81146546D01*
X63753864Y-80745995D01*
X63507745Y-80671861D01*
X62679605Y-81500000D01*
X62320395Y-81500000D01*
X61492255Y-80671861D01*
X61246136Y-80745995D01*
X61053035Y-81283223D01*
X58176295Y-81283223D01*
X58169778Y-81146546D01*
X58003864Y-80745995D01*
X57757745Y-80671861D01*
X56929605Y-81500000D01*
X56570395Y-81500000D01*
X55742255Y-80671861D01*
X55496136Y-80745995D01*
X55303035Y-81283223D01*
X45960000Y-81283223D01*
X45960000Y-80492255D01*
X55921861Y-80492255D01*
X56750000Y-81320395D01*
X57578139Y-80492255D01*
X61671861Y-80492255D01*
X62500000Y-81320395D01*
X63328139Y-80492255D01*
X67671861Y-80492255D01*
X68500000Y-81320395D01*
X69328139Y-80492255D01*
X69254005Y-80246136D01*
X68716777Y-80053035D01*
X68146546Y-80080222D01*
X67745995Y-80246136D01*
X67671861Y-80492255D01*
X63328139Y-80492255D01*
X63254005Y-80246136D01*
X62716777Y-80053035D01*
X62146546Y-80080222D01*
X61745995Y-80246136D01*
X61671861Y-80492255D01*
X57578139Y-80492255D01*
X57504005Y-80246136D01*
X56966777Y-80053035D01*
X56396546Y-80080222D01*
X55995995Y-80246136D01*
X55921861Y-80492255D01*
X45960000Y-80492255D01*
X45960000Y-75964561D01*
X49315000Y-75964561D01*
X49315000Y-76535439D01*
X49533466Y-77062862D01*
X49937138Y-77466534D01*
X50464561Y-77685000D01*
X51035439Y-77685000D01*
X51562862Y-77466534D01*
X51769396Y-77260000D01*
X55511570Y-77260000D01*
X55533466Y-77312862D01*
X55937138Y-77716534D01*
X56464561Y-77935000D01*
X57035439Y-77935000D01*
X57562862Y-77716534D01*
X57966534Y-77312862D01*
X58185000Y-76785439D01*
X58185000Y-76214561D01*
X61065000Y-76214561D01*
X61065000Y-76785439D01*
X61283466Y-77312862D01*
X61687138Y-77716534D01*
X62214561Y-77935000D01*
X62785439Y-77935000D01*
X63312862Y-77716534D01*
X63716534Y-77312862D01*
X63935000Y-76785439D01*
X63935000Y-76214561D01*
X63913104Y-76161699D01*
X64114476Y-75960327D01*
X64177929Y-75917929D01*
X64220327Y-75854476D01*
X64220329Y-75854474D01*
X64345903Y-75666538D01*
X64345904Y-75666537D01*
X64390000Y-75444852D01*
X64390000Y-75444848D01*
X64404888Y-75370001D01*
X64390000Y-75295154D01*
X64390000Y-68588043D01*
X64664577Y-68404577D01*
X64900000Y-68052242D01*
X65135423Y-68404577D01*
X65410000Y-68588044D01*
X65410001Y-74095148D01*
X65395112Y-74170000D01*
X65454097Y-74466537D01*
X65579421Y-74654097D01*
X65622072Y-74717929D01*
X65685528Y-74760329D01*
X67086897Y-76161698D01*
X67065000Y-76214561D01*
X67065000Y-76785439D01*
X67283466Y-77312862D01*
X67687138Y-77716534D01*
X68214561Y-77935000D01*
X68785439Y-77935000D01*
X69312862Y-77716534D01*
X69716534Y-77312862D01*
X69738430Y-77260000D01*
X73638865Y-77260000D01*
X73715423Y-77374577D01*
X74190091Y-77691740D01*
X74608667Y-77775000D01*
X74891333Y-77775000D01*
X75115001Y-77730510D01*
X75115002Y-85060197D01*
X75088302Y-85086897D01*
X75035439Y-85065000D01*
X74464561Y-85065000D01*
X73937138Y-85283466D01*
X73533466Y-85687138D01*
X73315000Y-86214561D01*
X73315000Y-86785439D01*
X73533466Y-87312862D01*
X73937138Y-87716534D01*
X74464561Y-87935000D01*
X75035439Y-87935000D01*
X75562862Y-87716534D01*
X75966534Y-87312862D01*
X76185000Y-86785439D01*
X76185000Y-86214561D01*
X76163103Y-86161698D01*
X76359471Y-85965330D01*
X76422930Y-85922928D01*
X76590905Y-85671536D01*
X76635001Y-85449851D01*
X76635001Y-85449847D01*
X76649889Y-85375000D01*
X76635001Y-85300153D01*
X76635001Y-74609849D01*
X76649889Y-74535001D01*
X76635001Y-74460153D01*
X76635001Y-74460149D01*
X76590905Y-74238464D01*
X76422930Y-73987072D01*
X76359474Y-73944672D01*
X74458928Y-72044126D01*
X75465000Y-72044126D01*
X75465000Y-72455874D01*
X75622569Y-72836280D01*
X75913720Y-73127431D01*
X76294126Y-73285000D01*
X76705874Y-73285000D01*
X77086280Y-73127431D01*
X77203711Y-73010000D01*
X81938412Y-73010000D01*
X81898260Y-73070091D01*
X81786887Y-73630000D01*
X81898260Y-74189909D01*
X82215423Y-74664577D01*
X82690091Y-74981740D01*
X83108667Y-75065000D01*
X83391333Y-75065000D01*
X83809909Y-74981740D01*
X84284577Y-74664577D01*
X84520000Y-74312242D01*
X84755423Y-74664577D01*
X85230091Y-74981740D01*
X85648667Y-75065000D01*
X85931333Y-75065000D01*
X86349909Y-74981740D01*
X86824577Y-74664577D01*
X87060000Y-74312242D01*
X87295423Y-74664577D01*
X87770091Y-74981740D01*
X88188667Y-75065000D01*
X88471333Y-75065000D01*
X88889909Y-74981740D01*
X89364577Y-74664577D01*
X89600000Y-74312242D01*
X89835423Y-74664577D01*
X90310091Y-74981740D01*
X90728667Y-75065000D01*
X91011333Y-75065000D01*
X91429909Y-74981740D01*
X91904577Y-74664577D01*
X92140000Y-74312242D01*
X92375423Y-74664577D01*
X92850091Y-74981740D01*
X93268667Y-75065000D01*
X93551333Y-75065000D01*
X93969909Y-74981740D01*
X94444577Y-74664577D01*
X94680000Y-74312242D01*
X94915423Y-74664577D01*
X95390091Y-74981740D01*
X95808667Y-75065000D01*
X96091333Y-75065000D01*
X96509909Y-74981740D01*
X96984577Y-74664577D01*
X97240947Y-74280892D01*
X97337611Y-74485134D01*
X97752577Y-74861041D01*
X98140961Y-75021904D01*
X98363000Y-74899915D01*
X98363000Y-73757000D01*
X98343000Y-73757000D01*
X98343000Y-73503000D01*
X98363000Y-73503000D01*
X98363000Y-72360085D01*
X98140961Y-72238096D01*
X97752577Y-72398959D01*
X97337611Y-72774866D01*
X97240947Y-72979108D01*
X96984577Y-72595423D01*
X96509909Y-72278260D01*
X96091333Y-72195000D01*
X95808667Y-72195000D01*
X95626114Y-72231312D01*
X95160331Y-71765530D01*
X95117929Y-71702071D01*
X94866537Y-71534096D01*
X94644852Y-71490000D01*
X94644847Y-71490000D01*
X94570000Y-71475112D01*
X94495153Y-71490000D01*
X77203711Y-71490000D01*
X77086280Y-71372569D01*
X76705874Y-71215000D01*
X76294126Y-71215000D01*
X75913720Y-71372569D01*
X75622569Y-71663720D01*
X75465000Y-72044126D01*
X74458928Y-72044126D01*
X71219801Y-68805000D01*
X71391333Y-68805000D01*
X71809909Y-68721740D01*
X72284577Y-68404577D01*
X72468043Y-68130000D01*
X88055153Y-68130000D01*
X88130000Y-68144888D01*
X88204847Y-68130000D01*
X88204852Y-68130000D01*
X88426537Y-68085904D01*
X88677929Y-67917929D01*
X88720331Y-67854470D01*
X90250000Y-66324801D01*
X93409670Y-69484472D01*
X93452071Y-69547929D01*
X93703463Y-69715904D01*
X93925148Y-69760000D01*
X93925153Y-69760000D01*
X94000000Y-69774888D01*
X94074847Y-69760000D01*
X98625199Y-69760000D01*
X101060198Y-72195000D01*
X100888667Y-72195000D01*
X100470091Y-72278260D01*
X99995423Y-72595423D01*
X99739053Y-72979108D01*
X99642389Y-72774866D01*
X99227423Y-72398959D01*
X98839039Y-72238096D01*
X98617000Y-72360085D01*
X98617000Y-73503000D01*
X98637000Y-73503000D01*
X98637000Y-73757000D01*
X98617000Y-73757000D01*
X98617000Y-74899915D01*
X98839039Y-75021904D01*
X99227423Y-74861041D01*
X99642389Y-74485134D01*
X99739053Y-74280892D01*
X99995423Y-74664577D01*
X100470091Y-74981740D01*
X100888667Y-75065000D01*
X101171333Y-75065000D01*
X101589909Y-74981740D01*
X102064577Y-74664577D01*
X102300000Y-74312242D01*
X102535423Y-74664577D01*
X103010091Y-74981740D01*
X103428667Y-75065000D01*
X103711333Y-75065000D01*
X104129909Y-74981740D01*
X104604577Y-74664577D01*
X104840000Y-74312242D01*
X105075423Y-74664577D01*
X105550091Y-74981740D01*
X105968667Y-75065000D01*
X106251333Y-75065000D01*
X106475002Y-75020510D01*
X106475002Y-79859491D01*
X106251333Y-79815000D01*
X105968667Y-79815000D01*
X105550091Y-79898260D01*
X105075423Y-80215423D01*
X104840000Y-80567758D01*
X104604577Y-80215423D01*
X104188966Y-79937721D01*
X104285000Y-79705874D01*
X104285000Y-79294126D01*
X104127431Y-78913720D01*
X103836280Y-78622569D01*
X103455874Y-78465000D01*
X103044126Y-78465000D01*
X102663720Y-78622569D01*
X102546289Y-78740000D01*
X93203711Y-78740000D01*
X93086280Y-78622569D01*
X92705874Y-78465000D01*
X92294126Y-78465000D01*
X91913720Y-78622569D01*
X91622569Y-78913720D01*
X91465000Y-79294126D01*
X91465000Y-79705874D01*
X91588613Y-80004303D01*
X91429909Y-79898260D01*
X91011333Y-79815000D01*
X90728667Y-79815000D01*
X90310091Y-79898260D01*
X89835423Y-80215423D01*
X89600000Y-80567758D01*
X89364577Y-80215423D01*
X88889909Y-79898260D01*
X88471333Y-79815000D01*
X88188667Y-79815000D01*
X87770091Y-79898260D01*
X87295423Y-80215423D01*
X87060000Y-80567758D01*
X86824577Y-80215423D01*
X86349909Y-79898260D01*
X85931333Y-79815000D01*
X85648667Y-79815000D01*
X85230091Y-79898260D01*
X84755423Y-80215423D01*
X84674785Y-80336106D01*
X84648157Y-80202235D01*
X84507809Y-79992191D01*
X84297765Y-79851843D01*
X84050000Y-79802560D01*
X82450000Y-79802560D01*
X82202235Y-79851843D01*
X81992191Y-79992191D01*
X81851843Y-80202235D01*
X81802560Y-80450000D01*
X81802560Y-82050000D01*
X81851843Y-82297765D01*
X81992191Y-82507809D01*
X82202235Y-82648157D01*
X82450000Y-82697440D01*
X84050000Y-82697440D01*
X84297765Y-82648157D01*
X84507809Y-82507809D01*
X84648157Y-82297765D01*
X84674785Y-82163894D01*
X84755423Y-82284577D01*
X85230091Y-82601740D01*
X85648667Y-82685000D01*
X85931333Y-82685000D01*
X86349909Y-82601740D01*
X86824577Y-82284577D01*
X87060000Y-81932242D01*
X87295423Y-82284577D01*
X87770091Y-82601740D01*
X88188667Y-82685000D01*
X88471333Y-82685000D01*
X88889909Y-82601740D01*
X89364577Y-82284577D01*
X89600000Y-81932242D01*
X89835423Y-82284577D01*
X90310091Y-82601740D01*
X90728667Y-82685000D01*
X91011333Y-82685000D01*
X91429909Y-82601740D01*
X91904577Y-82284577D01*
X92140000Y-81932242D01*
X92375423Y-82284577D01*
X92850091Y-82601740D01*
X93268667Y-82685000D01*
X93551333Y-82685000D01*
X93969909Y-82601740D01*
X94444577Y-82284577D01*
X94680000Y-81932242D01*
X94915423Y-82284577D01*
X95390091Y-82601740D01*
X95808667Y-82685000D01*
X96091333Y-82685000D01*
X96509909Y-82601740D01*
X96984577Y-82284577D01*
X97220000Y-81932242D01*
X97455423Y-82284577D01*
X97930091Y-82601740D01*
X98348667Y-82685000D01*
X98631333Y-82685000D01*
X99049909Y-82601740D01*
X99524577Y-82284577D01*
X99780947Y-81900892D01*
X99877611Y-82105134D01*
X100292577Y-82481041D01*
X100680961Y-82641904D01*
X100903000Y-82519915D01*
X100903000Y-81377000D01*
X100883000Y-81377000D01*
X100883000Y-81123000D01*
X100903000Y-81123000D01*
X100903000Y-81103000D01*
X101157000Y-81103000D01*
X101157000Y-81123000D01*
X101177000Y-81123000D01*
X101177000Y-81377000D01*
X101157000Y-81377000D01*
X101157000Y-82519915D01*
X101201071Y-82544128D01*
X96813514Y-86931685D01*
X96465460Y-87075853D01*
X96075853Y-87465460D01*
X95865000Y-87974506D01*
X95865000Y-88525494D01*
X96075853Y-89034540D01*
X96465460Y-89424147D01*
X96490000Y-89434312D01*
X96490001Y-94447760D01*
X96113914Y-94823847D01*
X95865000Y-95424778D01*
X95865000Y-96075222D01*
X96113914Y-96676153D01*
X96573847Y-97136086D01*
X97174778Y-97385000D01*
X97825222Y-97385000D01*
X98426153Y-97136086D01*
X98886086Y-96676153D01*
X99135000Y-96075222D01*
X99135000Y-95424778D01*
X98886086Y-94823847D01*
X98426153Y-94363914D01*
X98010000Y-94191538D01*
X98010000Y-89434312D01*
X98034540Y-89424147D01*
X98424147Y-89034540D01*
X98635000Y-88525494D01*
X98635000Y-87974506D01*
X98425668Y-87469133D01*
X103246114Y-82648688D01*
X103428667Y-82685000D01*
X103711333Y-82685000D01*
X104129909Y-82601740D01*
X104604577Y-82284577D01*
X104840000Y-81932242D01*
X105075423Y-82284577D01*
X105350000Y-82468044D01*
X105350001Y-83955197D01*
X102430034Y-86875165D01*
X102405494Y-86865000D01*
X101854506Y-86865000D01*
X101345460Y-87075853D01*
X100955853Y-87465460D01*
X100745000Y-87974506D01*
X100745000Y-88525494D01*
X100955853Y-89034540D01*
X101345460Y-89424147D01*
X101370000Y-89434312D01*
X101370001Y-94817760D01*
X101363914Y-94823847D01*
X101115000Y-95424778D01*
X101115000Y-96075222D01*
X101363914Y-96676153D01*
X101823847Y-97136086D01*
X102424778Y-97385000D01*
X103075222Y-97385000D01*
X103676153Y-97136086D01*
X103909707Y-96902532D01*
X111777073Y-96902532D01*
X111875736Y-97169387D01*
X112485461Y-97395908D01*
X113135460Y-97371856D01*
X113624264Y-97169387D01*
X113722927Y-96902532D01*
X112750000Y-95929605D01*
X111777073Y-96902532D01*
X103909707Y-96902532D01*
X104136086Y-96676153D01*
X104385000Y-96075222D01*
X104385000Y-95485461D01*
X111104092Y-95485461D01*
X111128144Y-96135460D01*
X111330613Y-96624264D01*
X111597468Y-96722927D01*
X112570395Y-95750000D01*
X112929605Y-95750000D01*
X113902532Y-96722927D01*
X114169387Y-96624264D01*
X114395908Y-96014539D01*
X114371856Y-95364540D01*
X114169387Y-94875736D01*
X113902532Y-94777073D01*
X112929605Y-95750000D01*
X112570395Y-95750000D01*
X111597468Y-94777073D01*
X111330613Y-94875736D01*
X111104092Y-95485461D01*
X104385000Y-95485461D01*
X104385000Y-95424778D01*
X104136086Y-94823847D01*
X103909707Y-94597468D01*
X111777073Y-94597468D01*
X112750000Y-95570395D01*
X113722927Y-94597468D01*
X113624264Y-94330613D01*
X113014539Y-94104092D01*
X112364540Y-94128144D01*
X111875736Y-94330613D01*
X111777073Y-94597468D01*
X103909707Y-94597468D01*
X103676153Y-94363914D01*
X103075222Y-94115000D01*
X102890000Y-94115000D01*
X102890000Y-89434312D01*
X102914540Y-89424147D01*
X103304147Y-89034540D01*
X103515000Y-88525494D01*
X103515000Y-87974506D01*
X103504835Y-87949966D01*
X106594473Y-84860329D01*
X106657929Y-84817929D01*
X106825904Y-84566537D01*
X106870000Y-84344852D01*
X106870000Y-84344847D01*
X106884888Y-84270000D01*
X106870000Y-84195153D01*
X106870000Y-83794126D01*
X117965000Y-83794126D01*
X117965000Y-84205874D01*
X118122569Y-84586280D01*
X118413720Y-84877431D01*
X118794126Y-85035000D01*
X119205874Y-85035000D01*
X119586280Y-84877431D01*
X119877431Y-84586280D01*
X120035000Y-84205874D01*
X120035000Y-83794126D01*
X119877431Y-83413720D01*
X119760000Y-83296289D01*
X119760000Y-79814801D01*
X121789803Y-77785000D01*
X121955874Y-77785000D01*
X122336280Y-77627431D01*
X122627431Y-77336280D01*
X122785000Y-76955874D01*
X122785000Y-76544126D01*
X122627431Y-76163720D01*
X122336280Y-75872569D01*
X121955874Y-75715000D01*
X121544126Y-75715000D01*
X121163720Y-75872569D01*
X120872569Y-76163720D01*
X120715000Y-76544126D01*
X120715000Y-76710197D01*
X118515530Y-78909669D01*
X118452071Y-78952071D01*
X118284096Y-79203464D01*
X118240000Y-79425149D01*
X118240000Y-79425153D01*
X118225112Y-79500000D01*
X118240000Y-79574847D01*
X118240001Y-83296288D01*
X118122569Y-83413720D01*
X117965000Y-83794126D01*
X106870000Y-83794126D01*
X106870000Y-82468043D01*
X107024804Y-82364607D01*
X107519670Y-82859474D01*
X107562070Y-82922930D01*
X107813462Y-83090905D01*
X108035147Y-83135001D01*
X108035151Y-83135001D01*
X108109998Y-83149889D01*
X108184845Y-83135001D01*
X112530152Y-83135001D01*
X112604999Y-83149889D01*
X112679846Y-83135001D01*
X112679851Y-83135001D01*
X112901536Y-83090905D01*
X113152928Y-82922930D01*
X113195330Y-82859471D01*
X113406113Y-82648688D01*
X113588667Y-82685000D01*
X113871333Y-82685000D01*
X114289909Y-82601740D01*
X114764577Y-82284577D01*
X115000000Y-81932242D01*
X115235423Y-82284577D01*
X115710091Y-82601740D01*
X116128667Y-82685000D01*
X116411333Y-82685000D01*
X116829909Y-82601740D01*
X117304577Y-82284577D01*
X117621740Y-81809909D01*
X117733113Y-81250000D01*
X117621740Y-80690091D01*
X117304577Y-80215423D01*
X116829909Y-79898260D01*
X116411333Y-79815000D01*
X116128667Y-79815000D01*
X115710091Y-79898260D01*
X115235423Y-80215423D01*
X115000000Y-80567758D01*
X114764577Y-80215423D01*
X114289909Y-79898260D01*
X113871333Y-79815000D01*
X113588667Y-79815000D01*
X113170091Y-79898260D01*
X112695423Y-80215423D01*
X112460000Y-80567758D01*
X112304607Y-80335196D01*
X119609477Y-73030328D01*
X119672930Y-72987930D01*
X119715328Y-72924477D01*
X119715330Y-72924475D01*
X119840904Y-72736539D01*
X119840905Y-72736538D01*
X119885001Y-72514853D01*
X119885001Y-72514849D01*
X119899889Y-72440002D01*
X119885001Y-72365155D01*
X119885001Y-66384996D01*
X125915000Y-66384996D01*
X125915000Y-67115004D01*
X126194362Y-67789444D01*
X126710556Y-68305638D01*
X127384996Y-68585000D01*
X128115004Y-68585000D01*
X128789444Y-68305638D01*
X129305638Y-67789444D01*
X129585000Y-67115004D01*
X129585000Y-66384996D01*
X129305638Y-65710556D01*
X128789444Y-65194362D01*
X128115004Y-64915000D01*
X127384996Y-64915000D01*
X126710556Y-65194362D01*
X126194362Y-65710556D01*
X125915000Y-66384996D01*
X119885001Y-66384996D01*
X119885001Y-53047175D01*
X126632430Y-53047175D01*
X126755565Y-53334788D01*
X127437734Y-53594707D01*
X128167443Y-53573786D01*
X128744435Y-53334788D01*
X128867570Y-53047175D01*
X127750000Y-51929605D01*
X126632430Y-53047175D01*
X119885001Y-53047175D01*
X119885001Y-51437734D01*
X125905293Y-51437734D01*
X125926214Y-52167443D01*
X126165212Y-52744435D01*
X126452825Y-52867570D01*
X127570395Y-51750000D01*
X127929605Y-51750000D01*
X129047175Y-52867570D01*
X129334788Y-52744435D01*
X129594707Y-52062266D01*
X129573786Y-51332557D01*
X129334788Y-50755565D01*
X129047175Y-50632430D01*
X127929605Y-51750000D01*
X127570395Y-51750000D01*
X126452825Y-50632430D01*
X126165212Y-50755565D01*
X125905293Y-51437734D01*
X119885001Y-51437734D01*
X119885001Y-50452825D01*
X126632430Y-50452825D01*
X127750000Y-51570395D01*
X128867570Y-50452825D01*
X128744435Y-50165212D01*
X128062266Y-49905293D01*
X127332557Y-49926214D01*
X126755565Y-50165212D01*
X126632430Y-50452825D01*
X119885001Y-50452825D01*
X119885001Y-48149800D01*
X121611102Y-46423699D01*
X132255906Y-46423699D01*
X132695895Y-46981489D01*
X134318293Y-47674859D01*
X136082536Y-47694585D01*
X137720031Y-47037664D01*
X137804105Y-46981489D01*
X138244094Y-46423699D01*
X135250000Y-43429605D01*
X132255906Y-46423699D01*
X121611102Y-46423699D01*
X123314296Y-44720506D01*
X123409642Y-44760000D01*
X124010358Y-44760000D01*
X124565346Y-44530116D01*
X124990116Y-44105346D01*
X124999564Y-44082536D01*
X130805415Y-44082536D01*
X131462336Y-45720031D01*
X131518511Y-45804105D01*
X132076301Y-46244094D01*
X135070395Y-43250000D01*
X135429605Y-43250000D01*
X138423699Y-46244094D01*
X138981489Y-45804105D01*
X139674859Y-44181707D01*
X139694585Y-42417464D01*
X139037664Y-40779969D01*
X138981489Y-40695895D01*
X138423699Y-40255906D01*
X135429605Y-43250000D01*
X135070395Y-43250000D01*
X132076301Y-40255906D01*
X131518511Y-40695895D01*
X130825141Y-42318293D01*
X130805415Y-44082536D01*
X124999564Y-44082536D01*
X125220000Y-43550358D01*
X125220000Y-42949642D01*
X124990116Y-42394654D01*
X124565346Y-41969884D01*
X124099808Y-41777052D01*
X124352926Y-41672207D01*
X124672207Y-41352926D01*
X124845000Y-40935766D01*
X124845000Y-40484234D01*
X124676029Y-40076301D01*
X132255906Y-40076301D01*
X135250000Y-43070395D01*
X138244094Y-40076301D01*
X137804105Y-39518511D01*
X136181707Y-38825141D01*
X134417464Y-38805415D01*
X132779969Y-39462336D01*
X132695895Y-39518511D01*
X132255906Y-40076301D01*
X124676029Y-40076301D01*
X124672207Y-40067074D01*
X124352926Y-39747793D01*
X123935766Y-39575000D01*
X123484234Y-39575000D01*
X123067074Y-39747793D01*
X122747793Y-40067074D01*
X122575000Y-40484234D01*
X122575000Y-40935766D01*
X122747793Y-41352926D01*
X123067074Y-41672207D01*
X123320192Y-41777052D01*
X122854654Y-41969884D01*
X122440000Y-42384538D01*
X122025346Y-41969884D01*
X121559808Y-41777052D01*
X121812926Y-41672207D01*
X122132207Y-41352926D01*
X122305000Y-40935766D01*
X122305000Y-40484234D01*
X122132207Y-40067074D01*
X121812926Y-39747793D01*
X121395766Y-39575000D01*
X120944234Y-39575000D01*
X120527074Y-39747793D01*
X120207793Y-40067074D01*
X120035000Y-40484234D01*
X120035000Y-40935766D01*
X120207793Y-41352926D01*
X120527074Y-41672207D01*
X120780192Y-41777052D01*
X120314654Y-41969884D01*
X119889884Y-42394654D01*
X119876091Y-42427952D01*
X119692060Y-42367545D01*
X118809605Y-43250000D01*
X118823748Y-43264143D01*
X118644143Y-43443748D01*
X118630000Y-43429605D01*
X117747545Y-44312060D01*
X117830884Y-44565953D01*
X118395306Y-44771590D01*
X118581686Y-44763512D01*
X117355199Y-45990000D01*
X102254802Y-45990000D01*
X103524296Y-44720506D01*
X103619642Y-44760000D01*
X104220358Y-44760000D01*
X104775346Y-44530116D01*
X105190000Y-44115462D01*
X105604654Y-44530116D01*
X106159642Y-44760000D01*
X106760358Y-44760000D01*
X107315346Y-44530116D01*
X107740116Y-44105346D01*
X107970000Y-43550358D01*
X107970000Y-43015306D01*
X117108410Y-43015306D01*
X117134421Y-43615458D01*
X117314047Y-44049116D01*
X117567940Y-44132455D01*
X118450395Y-43250000D01*
X117567940Y-42367545D01*
X117314047Y-42450884D01*
X117108410Y-43015306D01*
X107970000Y-43015306D01*
X107970000Y-42949642D01*
X107740116Y-42394654D01*
X107315346Y-41969884D01*
X106849808Y-41777052D01*
X107102926Y-41672207D01*
X107422207Y-41352926D01*
X107595000Y-40935766D01*
X107595000Y-40484234D01*
X117495000Y-40484234D01*
X117495000Y-40935766D01*
X117667793Y-41352926D01*
X117987074Y-41672207D01*
X118225049Y-41770779D01*
X117830884Y-41934047D01*
X117747545Y-42187940D01*
X118630000Y-43070395D01*
X119512455Y-42187940D01*
X119429116Y-41934047D01*
X119009698Y-41781240D01*
X119272926Y-41672207D01*
X119592207Y-41352926D01*
X119765000Y-40935766D01*
X119765000Y-40484234D01*
X119592207Y-40067074D01*
X119272926Y-39747793D01*
X118855766Y-39575000D01*
X118404234Y-39575000D01*
X117987074Y-39747793D01*
X117667793Y-40067074D01*
X117495000Y-40484234D01*
X107595000Y-40484234D01*
X107422207Y-40067074D01*
X107102926Y-39747793D01*
X106685766Y-39575000D01*
X106234234Y-39575000D01*
X105817074Y-39747793D01*
X105497793Y-40067074D01*
X105325000Y-40484234D01*
X105325000Y-40935766D01*
X105497793Y-41352926D01*
X105817074Y-41672207D01*
X106070192Y-41777052D01*
X105604654Y-41969884D01*
X105190000Y-42384538D01*
X104775346Y-41969884D01*
X104309808Y-41777052D01*
X104562926Y-41672207D01*
X104882207Y-41352926D01*
X105055000Y-40935766D01*
X105055000Y-40484234D01*
X104882207Y-40067074D01*
X104562926Y-39747793D01*
X104145766Y-39575000D01*
X103694234Y-39575000D01*
X103277074Y-39747793D01*
X102957793Y-40067074D01*
X102785000Y-40484234D01*
X102785000Y-40935766D01*
X102957793Y-41352926D01*
X103277074Y-41672207D01*
X103530192Y-41777052D01*
X103064654Y-41969884D01*
X102639884Y-42394654D01*
X102626091Y-42427952D01*
X102442060Y-42367545D01*
X101559605Y-43250000D01*
X101573748Y-43264143D01*
X101394143Y-43443748D01*
X101380000Y-43429605D01*
X100497545Y-44312060D01*
X100580884Y-44565953D01*
X101145306Y-44771590D01*
X101331686Y-44763512D01*
X99935530Y-46159669D01*
X99872071Y-46202071D01*
X99829671Y-46265527D01*
X93765528Y-52329671D01*
X93702072Y-52372071D01*
X93659672Y-52435527D01*
X93659671Y-52435528D01*
X93534097Y-52623463D01*
X93475112Y-52920000D01*
X93490001Y-52994852D01*
X93490000Y-56079549D01*
X93252235Y-56126843D01*
X93042191Y-56267191D01*
X92901843Y-56477235D01*
X92852560Y-56725000D01*
X92852560Y-56955824D01*
X90012708Y-58272311D01*
X89953463Y-58284096D01*
X89876827Y-58335303D01*
X89862449Y-58341968D01*
X89814697Y-58376817D01*
X89702071Y-58452071D01*
X89693023Y-58465612D01*
X89679870Y-58475211D01*
X89609347Y-58590842D01*
X89534096Y-58703464D01*
X89530919Y-58719435D01*
X89522440Y-58733338D01*
X89501536Y-58867154D01*
X89490000Y-58925149D01*
X89490000Y-58941001D01*
X89475775Y-59032061D01*
X89490000Y-59090765D01*
X89490001Y-64935197D01*
X87815199Y-66610000D01*
X72468043Y-66610000D01*
X72284577Y-66335423D01*
X71809909Y-66018260D01*
X71391333Y-65935000D01*
X71108667Y-65935000D01*
X70926115Y-65971312D01*
X68169364Y-63214561D01*
X77315000Y-63214561D01*
X77315000Y-63785439D01*
X77533466Y-64312862D01*
X77937138Y-64716534D01*
X78464561Y-64935000D01*
X79035439Y-64935000D01*
X79562862Y-64716534D01*
X79966534Y-64312862D01*
X80185000Y-63785439D01*
X80185000Y-63214561D01*
X79966534Y-62687138D01*
X79562862Y-62283466D01*
X79035439Y-62065000D01*
X78464561Y-62065000D01*
X77937138Y-62283466D01*
X77533466Y-62687138D01*
X77315000Y-63214561D01*
X68169364Y-63214561D01*
X66139802Y-61185000D01*
X66311333Y-61185000D01*
X66729909Y-61101740D01*
X67204577Y-60784577D01*
X67440000Y-60432242D01*
X67675423Y-60784577D01*
X68150091Y-61101740D01*
X68568667Y-61185000D01*
X68851333Y-61185000D01*
X69269909Y-61101740D01*
X69744577Y-60784577D01*
X69815735Y-60678082D01*
X69911673Y-60909698D01*
X70090301Y-61088327D01*
X70323690Y-61185000D01*
X70964250Y-61185000D01*
X71123000Y-61026250D01*
X71123000Y-59877000D01*
X71377000Y-59877000D01*
X71377000Y-61026250D01*
X71535750Y-61185000D01*
X72176310Y-61185000D01*
X72409699Y-61088327D01*
X72588327Y-60909698D01*
X72685000Y-60676309D01*
X72685000Y-60035750D01*
X72526250Y-59877000D01*
X71377000Y-59877000D01*
X71123000Y-59877000D01*
X71103000Y-59877000D01*
X71103000Y-59623000D01*
X71123000Y-59623000D01*
X71123000Y-58473750D01*
X71377000Y-58473750D01*
X71377000Y-59623000D01*
X72526250Y-59623000D01*
X72685000Y-59464250D01*
X72685000Y-58823691D01*
X72588327Y-58590302D01*
X72409699Y-58411673D01*
X72176310Y-58315000D01*
X71535750Y-58315000D01*
X71377000Y-58473750D01*
X71123000Y-58473750D01*
X70964250Y-58315000D01*
X70323690Y-58315000D01*
X70090301Y-58411673D01*
X69911673Y-58590302D01*
X69815735Y-58821918D01*
X69744577Y-58715423D01*
X69269909Y-58398260D01*
X68851333Y-58315000D01*
X68568667Y-58315000D01*
X68150091Y-58398260D01*
X67675423Y-58715423D01*
X67440000Y-59067758D01*
X67204577Y-58715423D01*
X66729909Y-58398260D01*
X66311333Y-58315000D01*
X66028667Y-58315000D01*
X65610091Y-58398260D01*
X65135423Y-58715423D01*
X64900000Y-59067758D01*
X64664577Y-58715423D01*
X64189909Y-58398260D01*
X63771333Y-58315000D01*
X63488667Y-58315000D01*
X63070091Y-58398260D01*
X62595423Y-58715423D01*
X62278260Y-59190091D01*
X62166887Y-59750000D01*
X62278260Y-60309909D01*
X62595423Y-60784577D01*
X63070091Y-61101740D01*
X63488667Y-61185000D01*
X63771333Y-61185000D01*
X63953887Y-61148688D01*
X68740198Y-65935000D01*
X68568667Y-65935000D01*
X68150091Y-66018260D01*
X67675423Y-66335423D01*
X67440000Y-66687758D01*
X67204577Y-66335423D01*
X66729909Y-66018260D01*
X66311333Y-65935000D01*
X66028667Y-65935000D01*
X65610091Y-66018260D01*
X65135423Y-66335423D01*
X64900000Y-66687758D01*
X64664577Y-66335423D01*
X64189909Y-66018260D01*
X63771333Y-65935000D01*
X63488667Y-65935000D01*
X63070091Y-66018260D01*
X62595423Y-66335423D01*
X62278260Y-66810091D01*
X62166887Y-67370000D01*
X62278260Y-67929909D01*
X62595423Y-68404577D01*
X62870001Y-68588044D01*
X62870000Y-75055197D01*
X62838301Y-75086896D01*
X62785439Y-75065000D01*
X62214561Y-75065000D01*
X61687138Y-75283466D01*
X61283466Y-75687138D01*
X61065000Y-76214561D01*
X58185000Y-76214561D01*
X57966534Y-75687138D01*
X57562862Y-75283466D01*
X57510000Y-75261570D01*
X57510000Y-69047440D01*
X57650000Y-69047440D01*
X57897765Y-68998157D01*
X58107809Y-68857809D01*
X58248157Y-68647765D01*
X58297440Y-68400000D01*
X58297440Y-66600000D01*
X58248157Y-66352235D01*
X58107809Y-66142191D01*
X57897765Y-66001843D01*
X57650000Y-65952560D01*
X55850000Y-65952560D01*
X55602235Y-66001843D01*
X55392191Y-66142191D01*
X55251843Y-66352235D01*
X55202560Y-66600000D01*
X55202560Y-68400000D01*
X55251843Y-68647765D01*
X55392191Y-68857809D01*
X55602235Y-68998157D01*
X55850000Y-69047440D01*
X55990001Y-69047440D01*
X55990000Y-75261570D01*
X55937138Y-75283466D01*
X55533466Y-75687138D01*
X55511570Y-75740000D01*
X52091984Y-75740000D01*
X51966534Y-75437138D01*
X51562862Y-75033466D01*
X51035439Y-74815000D01*
X50464561Y-74815000D01*
X49937138Y-75033466D01*
X49533466Y-75437138D01*
X49315000Y-75964561D01*
X45960000Y-75964561D01*
X45960000Y-68660000D01*
X49286887Y-68660000D01*
X49398260Y-69219909D01*
X49715423Y-69694577D01*
X50190091Y-70011740D01*
X50608667Y-70095000D01*
X50891333Y-70095000D01*
X51309909Y-70011740D01*
X51784577Y-69694577D01*
X52101740Y-69219909D01*
X52213113Y-68660000D01*
X52101740Y-68100091D01*
X51784577Y-67625423D01*
X51309909Y-67308260D01*
X50891333Y-67225000D01*
X50608667Y-67225000D01*
X50190091Y-67308260D01*
X49715423Y-67625423D01*
X49398260Y-68100091D01*
X49286887Y-68660000D01*
X45960000Y-68660000D01*
X45960000Y-58214561D01*
X49315000Y-58214561D01*
X49315000Y-58785439D01*
X49533466Y-59312862D01*
X49937138Y-59716534D01*
X50464561Y-59935000D01*
X51035439Y-59935000D01*
X51562862Y-59716534D01*
X51966534Y-59312862D01*
X51988430Y-59260000D01*
X55055199Y-59260000D01*
X55266269Y-59471070D01*
X55184928Y-59880000D01*
X55304062Y-60478927D01*
X55643327Y-60986673D01*
X56151073Y-61325938D01*
X56598818Y-61415000D01*
X56901182Y-61415000D01*
X57348927Y-61325938D01*
X57856673Y-60986673D01*
X58195938Y-60478927D01*
X58315072Y-59880000D01*
X58195938Y-59281073D01*
X57856673Y-58773327D01*
X57348927Y-58434062D01*
X56901182Y-58345000D01*
X56598818Y-58345000D01*
X56341070Y-58396269D01*
X55960331Y-58015530D01*
X55917929Y-57952071D01*
X55666537Y-57784096D01*
X55444852Y-57740000D01*
X55444847Y-57740000D01*
X55370000Y-57725112D01*
X55295153Y-57740000D01*
X51988430Y-57740000D01*
X51966534Y-57687138D01*
X51562862Y-57283466D01*
X51035439Y-57065000D01*
X50464561Y-57065000D01*
X49937138Y-57283466D01*
X49533466Y-57687138D01*
X49315000Y-58214561D01*
X45960000Y-58214561D01*
X45960000Y-46423699D01*
X52255906Y-46423699D01*
X52695895Y-46981489D01*
X54318293Y-47674859D01*
X56082536Y-47694585D01*
X57720031Y-47037664D01*
X57804105Y-46981489D01*
X58244094Y-46423699D01*
X55250000Y-43429605D01*
X52255906Y-46423699D01*
X45960000Y-46423699D01*
X45960000Y-44082536D01*
X50805415Y-44082536D01*
X51462336Y-45720031D01*
X51518511Y-45804105D01*
X52076301Y-46244094D01*
X55070395Y-43250000D01*
X55429605Y-43250000D01*
X58423699Y-46244094D01*
X58981489Y-45804105D01*
X59619149Y-44312060D01*
X65997545Y-44312060D01*
X66080884Y-44565953D01*
X66645306Y-44771590D01*
X67245458Y-44745579D01*
X67679116Y-44565953D01*
X67762455Y-44312060D01*
X66880000Y-43429605D01*
X65997545Y-44312060D01*
X59619149Y-44312060D01*
X59674859Y-44181707D01*
X59687900Y-43015306D01*
X65358410Y-43015306D01*
X65384421Y-43615458D01*
X65564047Y-44049116D01*
X65817940Y-44132455D01*
X66700395Y-43250000D01*
X67059605Y-43250000D01*
X67942060Y-44132455D01*
X68126091Y-44072048D01*
X68139884Y-44105346D01*
X68564654Y-44530116D01*
X68660000Y-44569610D01*
X68660001Y-46345148D01*
X68645112Y-46420000D01*
X68660001Y-46494852D01*
X68704097Y-46716537D01*
X68872072Y-46967929D01*
X68935528Y-47010329D01*
X85086896Y-63161698D01*
X85065000Y-63214561D01*
X85065000Y-63785439D01*
X85283466Y-64312862D01*
X85687138Y-64716534D01*
X86214561Y-64935000D01*
X86785439Y-64935000D01*
X87312862Y-64716534D01*
X87716534Y-64312862D01*
X87935000Y-63785439D01*
X87935000Y-63214561D01*
X87716534Y-62687138D01*
X87312862Y-62283466D01*
X86785439Y-62065000D01*
X86214561Y-62065000D01*
X86161698Y-62086896D01*
X78849802Y-54775000D01*
X78891333Y-54775000D01*
X79309909Y-54691740D01*
X79784577Y-54374577D01*
X80101740Y-53899909D01*
X80143684Y-53689041D01*
X85108086Y-53689041D01*
X85347611Y-54195134D01*
X85762577Y-54571041D01*
X86150961Y-54731904D01*
X86373000Y-54609915D01*
X86373000Y-53467000D01*
X86627000Y-53467000D01*
X86627000Y-54609915D01*
X86849039Y-54731904D01*
X87237423Y-54571041D01*
X87652389Y-54195134D01*
X87891914Y-53689041D01*
X87770629Y-53467000D01*
X86627000Y-53467000D01*
X86373000Y-53467000D01*
X85229371Y-53467000D01*
X85108086Y-53689041D01*
X80143684Y-53689041D01*
X80213113Y-53340000D01*
X80148688Y-53016113D01*
X80173842Y-52990959D01*
X85108086Y-52990959D01*
X85229371Y-53213000D01*
X86373000Y-53213000D01*
X86373000Y-52070085D01*
X86627000Y-52070085D01*
X86627000Y-53213000D01*
X87770629Y-53213000D01*
X87891914Y-52990959D01*
X87652389Y-52484866D01*
X87237423Y-52108959D01*
X86849039Y-51948096D01*
X86627000Y-52070085D01*
X86373000Y-52070085D01*
X86150961Y-51948096D01*
X85762577Y-52108959D01*
X85347611Y-52484866D01*
X85108086Y-52990959D01*
X80173842Y-52990959D01*
X87944473Y-45220329D01*
X88007929Y-45177929D01*
X88175904Y-44926537D01*
X88220000Y-44704852D01*
X88220000Y-44704848D01*
X88234888Y-44630001D01*
X88222657Y-44568509D01*
X88315346Y-44530116D01*
X88740116Y-44105346D01*
X88970000Y-43550358D01*
X88970000Y-43015306D01*
X99858410Y-43015306D01*
X99884421Y-43615458D01*
X100064047Y-44049116D01*
X100317940Y-44132455D01*
X101200395Y-43250000D01*
X100317940Y-42367545D01*
X100064047Y-42450884D01*
X99858410Y-43015306D01*
X88970000Y-43015306D01*
X88970000Y-42949642D01*
X88740116Y-42394654D01*
X88315346Y-41969884D01*
X87849808Y-41777052D01*
X88102926Y-41672207D01*
X88422207Y-41352926D01*
X88595000Y-40935766D01*
X88595000Y-40484234D01*
X100245000Y-40484234D01*
X100245000Y-40935766D01*
X100417793Y-41352926D01*
X100737074Y-41672207D01*
X100975049Y-41770779D01*
X100580884Y-41934047D01*
X100497545Y-42187940D01*
X101380000Y-43070395D01*
X102262455Y-42187940D01*
X102179116Y-41934047D01*
X101759698Y-41781240D01*
X102022926Y-41672207D01*
X102342207Y-41352926D01*
X102515000Y-40935766D01*
X102515000Y-40484234D01*
X102342207Y-40067074D01*
X102022926Y-39747793D01*
X101605766Y-39575000D01*
X101154234Y-39575000D01*
X100737074Y-39747793D01*
X100417793Y-40067074D01*
X100245000Y-40484234D01*
X88595000Y-40484234D01*
X88422207Y-40067074D01*
X88102926Y-39747793D01*
X87685766Y-39575000D01*
X87234234Y-39575000D01*
X86817074Y-39747793D01*
X86497793Y-40067074D01*
X86325000Y-40484234D01*
X86325000Y-40935766D01*
X86497793Y-41352926D01*
X86817074Y-41672207D01*
X87070192Y-41777052D01*
X86604654Y-41969884D01*
X86190000Y-42384538D01*
X85775346Y-41969884D01*
X85309808Y-41777052D01*
X85562926Y-41672207D01*
X85882207Y-41352926D01*
X86055000Y-40935766D01*
X86055000Y-40484234D01*
X85882207Y-40067074D01*
X85562926Y-39747793D01*
X85145766Y-39575000D01*
X84694234Y-39575000D01*
X84277074Y-39747793D01*
X83957793Y-40067074D01*
X83785000Y-40484234D01*
X83785000Y-40935766D01*
X83957793Y-41352926D01*
X84277074Y-41672207D01*
X84530192Y-41777052D01*
X84064654Y-41969884D01*
X83639884Y-42394654D01*
X83626091Y-42427952D01*
X83442060Y-42367545D01*
X82559605Y-43250000D01*
X83442060Y-44132455D01*
X83626091Y-44072048D01*
X83639884Y-44105346D01*
X84064654Y-44530116D01*
X84619642Y-44760000D01*
X85220358Y-44760000D01*
X85775346Y-44530116D01*
X86190000Y-44115462D01*
X86544868Y-44470330D01*
X79073887Y-51941312D01*
X78891333Y-51905000D01*
X78608667Y-51905000D01*
X78190091Y-51988260D01*
X77715423Y-52305423D01*
X77398260Y-52780091D01*
X77308109Y-53233308D01*
X70180000Y-46105199D01*
X70180000Y-44569610D01*
X70275346Y-44530116D01*
X70690000Y-44115462D01*
X71104654Y-44530116D01*
X71659642Y-44760000D01*
X72260358Y-44760000D01*
X72815346Y-44530116D01*
X73033402Y-44312060D01*
X81497545Y-44312060D01*
X81580884Y-44565953D01*
X82145306Y-44771590D01*
X82745458Y-44745579D01*
X83179116Y-44565953D01*
X83262455Y-44312060D01*
X82380000Y-43429605D01*
X81497545Y-44312060D01*
X73033402Y-44312060D01*
X73240116Y-44105346D01*
X73470000Y-43550358D01*
X73470000Y-43015306D01*
X80858410Y-43015306D01*
X80884421Y-43615458D01*
X81064047Y-44049116D01*
X81317940Y-44132455D01*
X82200395Y-43250000D01*
X81317940Y-42367545D01*
X81064047Y-42450884D01*
X80858410Y-43015306D01*
X73470000Y-43015306D01*
X73470000Y-42949642D01*
X73240116Y-42394654D01*
X72815346Y-41969884D01*
X72349808Y-41777052D01*
X72602926Y-41672207D01*
X72922207Y-41352926D01*
X73095000Y-40935766D01*
X73095000Y-40484234D01*
X81245000Y-40484234D01*
X81245000Y-40935766D01*
X81417793Y-41352926D01*
X81737074Y-41672207D01*
X81975049Y-41770779D01*
X81580884Y-41934047D01*
X81497545Y-42187940D01*
X82380000Y-43070395D01*
X83262455Y-42187940D01*
X83179116Y-41934047D01*
X82759698Y-41781240D01*
X83022926Y-41672207D01*
X83342207Y-41352926D01*
X83515000Y-40935766D01*
X83515000Y-40484234D01*
X83342207Y-40067074D01*
X83022926Y-39747793D01*
X82605766Y-39575000D01*
X82154234Y-39575000D01*
X81737074Y-39747793D01*
X81417793Y-40067074D01*
X81245000Y-40484234D01*
X73095000Y-40484234D01*
X72922207Y-40067074D01*
X72602926Y-39747793D01*
X72185766Y-39575000D01*
X71734234Y-39575000D01*
X71317074Y-39747793D01*
X70997793Y-40067074D01*
X70825000Y-40484234D01*
X70825000Y-40935766D01*
X70997793Y-41352926D01*
X71317074Y-41672207D01*
X71570192Y-41777052D01*
X71104654Y-41969884D01*
X70690000Y-42384538D01*
X70275346Y-41969884D01*
X69809808Y-41777052D01*
X70062926Y-41672207D01*
X70382207Y-41352926D01*
X70555000Y-40935766D01*
X70555000Y-40484234D01*
X70382207Y-40067074D01*
X70062926Y-39747793D01*
X69645766Y-39575000D01*
X69194234Y-39575000D01*
X68777074Y-39747793D01*
X68457793Y-40067074D01*
X68285000Y-40484234D01*
X68285000Y-40935766D01*
X68457793Y-41352926D01*
X68777074Y-41672207D01*
X69030192Y-41777052D01*
X68564654Y-41969884D01*
X68139884Y-42394654D01*
X68126091Y-42427952D01*
X67942060Y-42367545D01*
X67059605Y-43250000D01*
X66700395Y-43250000D01*
X65817940Y-42367545D01*
X65564047Y-42450884D01*
X65358410Y-43015306D01*
X59687900Y-43015306D01*
X59694585Y-42417464D01*
X59037664Y-40779969D01*
X58981489Y-40695895D01*
X58713159Y-40484234D01*
X65745000Y-40484234D01*
X65745000Y-40935766D01*
X65917793Y-41352926D01*
X66237074Y-41672207D01*
X66475049Y-41770779D01*
X66080884Y-41934047D01*
X65997545Y-42187940D01*
X66880000Y-43070395D01*
X67762455Y-42187940D01*
X67679116Y-41934047D01*
X67259698Y-41781240D01*
X67522926Y-41672207D01*
X67842207Y-41352926D01*
X68015000Y-40935766D01*
X68015000Y-40484234D01*
X67842207Y-40067074D01*
X67522926Y-39747793D01*
X67105766Y-39575000D01*
X66654234Y-39575000D01*
X66237074Y-39747793D01*
X65917793Y-40067074D01*
X65745000Y-40484234D01*
X58713159Y-40484234D01*
X58423699Y-40255906D01*
X55429605Y-43250000D01*
X55070395Y-43250000D01*
X52076301Y-40255906D01*
X51518511Y-40695895D01*
X50825141Y-42318293D01*
X50805415Y-44082536D01*
X45960000Y-44082536D01*
X45960000Y-43272313D01*
X46034647Y-42085830D01*
X46253222Y-40940019D01*
X46533861Y-40076301D01*
X52255906Y-40076301D01*
X55250000Y-43070395D01*
X58244094Y-40076301D01*
X57804105Y-39518511D01*
X56181707Y-38825141D01*
X54417464Y-38805415D01*
X52779969Y-39462336D01*
X52695895Y-39518511D01*
X52255906Y-40076301D01*
X46533861Y-40076301D01*
X46613682Y-39830638D01*
X47110339Y-38775187D01*
X47735370Y-37790297D01*
X48478903Y-36891520D01*
X49329228Y-36093013D01*
X50272922Y-35407379D01*
X51295110Y-34845425D01*
X52379662Y-34416021D01*
X53509494Y-34125929D01*
X54677864Y-33978331D01*
X55261165Y-33960000D01*
X135227687Y-33960000D01*
X136414170Y-34034647D01*
G36*
X126593598Y-77259800D02*
X126613598Y-77259800D01*
X126613598Y-77513800D01*
X126593598Y-77513800D01*
X126593598Y-77533800D01*
X126339598Y-77533800D01*
X126339598Y-77513800D01*
X126319598Y-77513800D01*
X126319598Y-77259800D01*
X126339598Y-77259800D01*
X126339598Y-77239800D01*
X126593598Y-77239800D01*
X126593598Y-77259800D01*
X126593598Y-77259800D01*
G37*
X126593598Y-77259800D02*
X126613598Y-77259800D01*
X126613598Y-77513800D01*
X126593598Y-77513800D01*
X126593598Y-77533800D01*
X126339598Y-77533800D01*
X126339598Y-77513800D01*
X126319598Y-77513800D01*
X126319598Y-77259800D01*
X126339598Y-77259800D01*
X126339598Y-77239800D01*
X126593598Y-77239800D01*
X126593598Y-77259800D01*
G04 #@! TD*
M02*
