M48
;DRILL file {KiCad 5.0.2-5.0.2} date Fri 16 Aug 2019 20:34:54 BST
;FORMAT={-:-/ absolute / metric / decimal}
FMAT,2
METRIC,TZ
T1C0.400
T2C0.750
T3C0.762
T4C0.800
T5C0.900
T6C1.000
T7C1.100
T8C1.200
T9C4.300
%
G90
G05
T1
X76.5Y-72.25
X92.5Y-79.5
X103.25Y-79.5
X105.25Y-77.25
X110.25Y-70.75
X118.75Y-77.
X119.Y-84.
X121.75Y-76.75
T2
X94.25Y-57.25
X94.25Y-58.52
X94.25Y-59.79
T3
X126.75Y-105.75
X136.91Y-105.75
T4
X118.Y-53.5
X118.Y-63.66
X78.75Y-53.34
X78.75Y-63.5
X97.25Y-88.25
X102.13Y-88.25
X58.75Y-87.
X66.37Y-87.
X68.5Y-76.5
X68.5Y-81.5
X86.5Y-53.34
X86.5Y-63.5
X62.5Y-76.5
X62.5Y-81.5
X56.75Y-76.5
X56.75Y-81.5
X83.25Y-73.63
X83.25Y-81.25
X85.79Y-73.63
X85.79Y-81.25
X88.33Y-73.63
X88.33Y-81.25
X90.87Y-73.63
X90.87Y-81.25
X93.41Y-73.63
X93.41Y-81.25
X95.95Y-73.63
X95.95Y-81.25
X98.49Y-73.63
X98.49Y-81.25
X101.03Y-73.63
X101.03Y-81.25
X103.57Y-73.63
X103.57Y-81.25
X106.11Y-73.63
X106.11Y-81.25
X108.65Y-73.63
X108.65Y-81.25
X111.19Y-73.63
X111.19Y-81.25
X113.73Y-73.63
X113.73Y-81.25
X116.27Y-73.63
X116.27Y-81.25
X63.63Y-59.75
X63.63Y-67.37
X66.17Y-59.75
X66.17Y-67.37
X68.71Y-59.75
X68.71Y-67.37
X71.25Y-59.75
X71.25Y-67.37
X102.75Y-53.5
X102.75Y-63.66
X50.75Y-76.25
X50.75Y-86.41
X74.75Y-76.34
X74.75Y-86.5
X110.25Y-53.5
X110.25Y-63.66
X50.75Y-58.5
X50.75Y-68.66
X139.Y-72.59
X139.Y-82.75
T5
X56.75Y-59.88
X56.75Y-67.5
T6
X87.5Y-95.75
X97.5Y-95.75
X66.88Y-40.71
X69.42Y-40.71
X71.96Y-40.71
X102.75Y-95.75
X112.75Y-95.75
X82.38Y-40.71
X84.92Y-40.71
X87.46Y-40.71
X55.46Y-106.
X55.46Y-108.54
X126.467Y-74.847
X126.467Y-77.387
X126.467Y-79.927
X129.007Y-74.847
X129.007Y-77.387
X129.007Y-79.927
X82.25Y-110.01
X82.25Y-125.25
X110.25Y-110.01
X110.25Y-117.63
X101.38Y-40.71
X103.92Y-40.71
X106.46Y-40.71
X118.63Y-40.71
X121.17Y-40.71
X123.71Y-40.71
T7
X66.88Y-43.25
X69.42Y-43.25
X71.96Y-43.25
X82.38Y-43.25
X84.92Y-43.25
X87.46Y-43.25
X58.Y-106.
X58.Y-108.54
X101.38Y-43.25
X103.92Y-43.25
X106.46Y-43.25
X118.63Y-43.25
X121.17Y-43.25
X123.71Y-43.25
T8
X121.25Y-90.
X136.25Y-90.
X127.75Y-51.75
X127.75Y-66.75
T9
X55.25Y-43.25
X135.25Y-43.25
X55.25Y-123.25
X135.25Y-123.25
T0
M30
