M48
;DRILL file {KiCad 5.0.2-5.0.2} date Sun 29 Sep 2019 16:34:54 BST
;FORMAT={-:-/ absolute / metric / decimal}
FMAT,2
METRIC,TZ
T1C0.750
T2C0.762
T3C0.800
T4C0.900
T5C1.000
T6C1.100
T7C1.200
T8C1.250
T9C4.300
%
G90
G05
T1
X86.75Y-59.75
X86.75Y-62.29
X88.02Y-61.02
T2
X52.Y-100.25
X62.16Y-100.25
T3
X127.84Y-88.25
X138.Y-88.25
X62.5Y-76.5
X62.5Y-81.5
X50.75Y-76.25
X50.75Y-86.41
X102.75Y-56.
X102.75Y-66.16
X68.5Y-76.5
X68.5Y-81.5
X95.25Y-56.
X95.25Y-66.16
X50.75Y-58.5
X50.75Y-68.66
X83.25Y-73.63
X83.25Y-81.25
X85.79Y-73.63
X85.79Y-81.25
X88.33Y-73.63
X88.33Y-81.25
X90.87Y-73.63
X90.87Y-81.25
X93.41Y-73.63
X93.41Y-81.25
X95.95Y-73.63
X95.95Y-81.25
X98.49Y-73.63
X98.49Y-81.25
X101.03Y-73.63
X101.03Y-81.25
X103.57Y-73.63
X103.57Y-81.25
X106.11Y-73.63
X106.11Y-81.25
X108.65Y-73.63
X108.65Y-81.25
X111.19Y-73.63
X111.19Y-81.25
X113.73Y-73.63
X113.73Y-81.25
X116.27Y-73.63
X116.27Y-81.25
X58.75Y-87.
X66.37Y-87.
X97.25Y-88.25
X102.13Y-88.25
X56.75Y-76.5
X56.75Y-81.5
X78.75Y-55.84
X78.75Y-66.
X74.75Y-76.34
X74.75Y-86.5
X63.63Y-59.75
X63.63Y-67.37
X66.17Y-59.75
X66.17Y-67.37
X68.71Y-59.75
X68.71Y-67.37
X71.25Y-59.75
X71.25Y-67.37
T4
X56.75Y-59.88
X56.75Y-67.5
T5
X136.29Y-95.38
X136.29Y-97.92
X136.29Y-100.46
X136.29Y-103.
X132.217Y-74.847
X132.217Y-77.387
X132.217Y-79.927
X134.757Y-74.847
X134.757Y-77.387
X134.757Y-79.927
X102.67Y-40.71
X105.21Y-40.71
X107.75Y-40.71
X62.77Y-40.71
X65.31Y-40.71
X67.85Y-40.71
X72.75Y-40.71
X75.29Y-40.71
X77.83Y-40.71
X92.77Y-40.71
X95.31Y-40.71
X97.85Y-40.71
X82.77Y-40.71
X85.31Y-40.71
X87.85Y-40.71
X91.5Y-112.01
X91.5Y-127.25
X119.5Y-112.01
X119.5Y-119.63
X108.75Y-88.25
X118.75Y-88.25
X80.75Y-88.25
X90.75Y-88.25
X122.67Y-40.71
X125.21Y-40.71
X127.75Y-40.71
X112.67Y-40.71
X115.21Y-40.71
X117.75Y-40.71
T6
X82.77Y-43.25
X85.31Y-43.25
X87.85Y-43.25
X122.67Y-43.25
X125.21Y-43.25
X127.75Y-43.25
X112.67Y-43.25
X115.21Y-43.25
X117.75Y-43.25
X133.75Y-95.38
X133.75Y-97.92
X133.75Y-100.46
X133.75Y-103.
X102.67Y-43.25
X105.21Y-43.25
X107.75Y-43.25
X62.77Y-43.25
X65.31Y-43.25
X67.85Y-43.25
X72.75Y-43.25
X75.29Y-43.25
X77.83Y-43.25
X92.77Y-43.25
X95.31Y-43.25
X97.85Y-43.25
T7
X113.25Y-56.25
X128.25Y-56.25
X113.25Y-65.75
X128.25Y-65.75
T8
X68.75Y-117.75
X73.83Y-117.75
T9
X55.25Y-43.25
X135.25Y-43.25
X55.25Y-123.25
X135.25Y-123.25
T0
M30
