G04 #@! TF.GenerationSoftware,KiCad,Pcbnew,5.0.2-5.0.2*
G04 #@! TF.CreationDate,2019-08-16T20:36:11+01:00*
G04 #@! TF.ProjectId,MaquinaSafetyLevel,4d617175-696e-4615-9361-666574794c65,rev?*
G04 #@! TF.SameCoordinates,Original*
G04 #@! TF.FileFunction,Legend,Top*
G04 #@! TF.FilePolarity,Positive*
%FSLAX46Y46*%
G04 Gerber Fmt 4.6, Leading zero omitted, Abs format (unit mm)*
G04 Created by KiCad (PCBNEW 5.0.2-5.0.2) date Fri 16 Aug 2019 20:36:11 BST*
%MOMM*%
%LPD*%
G01*
G04 APERTURE LIST*
%ADD10C,0.300000*%
%ADD11C,0.150000*%
%ADD12C,0.120000*%
%ADD13C,0.010000*%
G04 APERTURE END LIST*
D10*
X118678571Y-49750000D02*
X119392857Y-49750000D01*
X118535714Y-50178571D02*
X119035714Y-48678571D01*
X119535714Y-50178571D01*
X120035714Y-48678571D02*
X120035714Y-49892857D01*
X120107142Y-50035714D01*
X120178571Y-50107142D01*
X120321428Y-50178571D01*
X120607142Y-50178571D01*
X120750000Y-50107142D01*
X120821428Y-50035714D01*
X120892857Y-49892857D01*
X120892857Y-48678571D01*
X121464285Y-48678571D02*
X122464285Y-50178571D01*
X122464285Y-48678571D02*
X121464285Y-50178571D01*
X122964285Y-48821428D02*
X123035714Y-48750000D01*
X123178571Y-48678571D01*
X123535714Y-48678571D01*
X123678571Y-48750000D01*
X123750000Y-48821428D01*
X123821428Y-48964285D01*
X123821428Y-49107142D01*
X123750000Y-49321428D01*
X122892857Y-50178571D01*
X123821428Y-50178571D01*
X101428571Y-49750000D02*
X102142857Y-49750000D01*
X101285714Y-50178571D02*
X101785714Y-48678571D01*
X102285714Y-50178571D01*
X102785714Y-48678571D02*
X102785714Y-49892857D01*
X102857142Y-50035714D01*
X102928571Y-50107142D01*
X103071428Y-50178571D01*
X103357142Y-50178571D01*
X103500000Y-50107142D01*
X103571428Y-50035714D01*
X103642857Y-49892857D01*
X103642857Y-48678571D01*
X104214285Y-48678571D02*
X105214285Y-50178571D01*
X105214285Y-48678571D02*
X104214285Y-50178571D01*
X106571428Y-50178571D02*
X105714285Y-50178571D01*
X106142857Y-50178571D02*
X106142857Y-48678571D01*
X106000000Y-48892857D01*
X105857142Y-49035714D01*
X105714285Y-49107142D01*
X83428571Y-50428571D02*
X82714285Y-50428571D01*
X82714285Y-48928571D01*
X83928571Y-49642857D02*
X84428571Y-49642857D01*
X84642857Y-50428571D02*
X83928571Y-50428571D01*
X83928571Y-48928571D01*
X84642857Y-48928571D01*
X85285714Y-50428571D02*
X85285714Y-48928571D01*
X85642857Y-48928571D01*
X85857142Y-49000000D01*
X86000000Y-49142857D01*
X86071428Y-49285714D01*
X86142857Y-49571428D01*
X86142857Y-49785714D01*
X86071428Y-50071428D01*
X86000000Y-50214285D01*
X85857142Y-50357142D01*
X85642857Y-50428571D01*
X85285714Y-50428571D01*
X86714285Y-50357142D02*
X86857142Y-50428571D01*
X87142857Y-50428571D01*
X87285714Y-50357142D01*
X87357142Y-50214285D01*
X87357142Y-50142857D01*
X87285714Y-50000000D01*
X87142857Y-49928571D01*
X86928571Y-49928571D01*
X86785714Y-49857142D01*
X86714285Y-49714285D01*
X86714285Y-49642857D01*
X86785714Y-49500000D01*
X86928571Y-49428571D01*
X87142857Y-49428571D01*
X87285714Y-49500000D01*
X68214285Y-50178571D02*
X68214285Y-48678571D01*
X69214285Y-48678571D02*
X69500000Y-48678571D01*
X69642857Y-48750000D01*
X69785714Y-48892857D01*
X69857142Y-49178571D01*
X69857142Y-49678571D01*
X69785714Y-49964285D01*
X69642857Y-50107142D01*
X69500000Y-50178571D01*
X69214285Y-50178571D01*
X69071428Y-50107142D01*
X68928571Y-49964285D01*
X68857142Y-49678571D01*
X68857142Y-49178571D01*
X68928571Y-48892857D01*
X69071428Y-48750000D01*
X69214285Y-48678571D01*
X54714285Y-101500000D02*
X55428571Y-101500000D01*
X54571428Y-101928571D02*
X55071428Y-100428571D01*
X55571428Y-101928571D01*
X56071428Y-100928571D02*
X56071428Y-101928571D01*
X56071428Y-101071428D02*
X56142857Y-101000000D01*
X56285714Y-100928571D01*
X56500000Y-100928571D01*
X56642857Y-101000000D01*
X56714285Y-101142857D01*
X56714285Y-101928571D01*
X58071428Y-101928571D02*
X58071428Y-100428571D01*
X58071428Y-101857142D02*
X57928571Y-101928571D01*
X57642857Y-101928571D01*
X57500000Y-101857142D01*
X57428571Y-101785714D01*
X57357142Y-101642857D01*
X57357142Y-101214285D01*
X57428571Y-101071428D01*
X57500000Y-101000000D01*
X57642857Y-100928571D01*
X57928571Y-100928571D01*
X58071428Y-101000000D01*
X58642857Y-100928571D02*
X59000000Y-101928571D01*
X59357142Y-100928571D02*
X59000000Y-101928571D01*
X58857142Y-102285714D01*
X58785714Y-102357142D01*
X58642857Y-102428571D01*
X61000000Y-101857142D02*
X61214285Y-101928571D01*
X61571428Y-101928571D01*
X61714285Y-101857142D01*
X61785714Y-101785714D01*
X61857142Y-101642857D01*
X61857142Y-101500000D01*
X61785714Y-101357142D01*
X61714285Y-101285714D01*
X61571428Y-101214285D01*
X61285714Y-101142857D01*
X61142857Y-101071428D01*
X61071428Y-101000000D01*
X61000000Y-100857142D01*
X61000000Y-100714285D01*
X61071428Y-100571428D01*
X61142857Y-100500000D01*
X61285714Y-100428571D01*
X61642857Y-100428571D01*
X61857142Y-100500000D01*
X62285714Y-100928571D02*
X62857142Y-100928571D01*
X62500000Y-100428571D02*
X62500000Y-101714285D01*
X62571428Y-101857142D01*
X62714285Y-101928571D01*
X62857142Y-101928571D01*
X63571428Y-101928571D02*
X63428571Y-101857142D01*
X63357142Y-101785714D01*
X63285714Y-101642857D01*
X63285714Y-101214285D01*
X63357142Y-101071428D01*
X63428571Y-101000000D01*
X63571428Y-100928571D01*
X63785714Y-100928571D01*
X63928571Y-101000000D01*
X64000000Y-101071428D01*
X64071428Y-101214285D01*
X64071428Y-101642857D01*
X64000000Y-101785714D01*
X63928571Y-101857142D01*
X63785714Y-101928571D01*
X63571428Y-101928571D01*
X64714285Y-100928571D02*
X64714285Y-102428571D01*
X64714285Y-101000000D02*
X64857142Y-100928571D01*
X65142857Y-100928571D01*
X65285714Y-101000000D01*
X65357142Y-101071428D01*
X65428571Y-101214285D01*
X65428571Y-101642857D01*
X65357142Y-101785714D01*
X65285714Y-101857142D01*
X65142857Y-101928571D01*
X64857142Y-101928571D01*
X64714285Y-101857142D01*
X65857142Y-100928571D02*
X66428571Y-100928571D01*
X66071428Y-101928571D02*
X66071428Y-100642857D01*
X66142857Y-100500000D01*
X66285714Y-100428571D01*
X66428571Y-100428571D01*
X67142857Y-101928571D02*
X67000000Y-101857142D01*
X66928571Y-101785714D01*
X66857142Y-101642857D01*
X66857142Y-101214285D01*
X66928571Y-101071428D01*
X67000000Y-101000000D01*
X67142857Y-100928571D01*
X67357142Y-100928571D01*
X67500000Y-101000000D01*
X67571428Y-101071428D01*
X67642857Y-101214285D01*
X67642857Y-101642857D01*
X67571428Y-101785714D01*
X67500000Y-101857142D01*
X67357142Y-101928571D01*
X67142857Y-101928571D01*
X68285714Y-101928571D02*
X68285714Y-100928571D01*
X68285714Y-101214285D02*
X68357142Y-101071428D01*
X68428571Y-101000000D01*
X68571428Y-100928571D01*
X68714285Y-100928571D01*
X69857142Y-101928571D02*
X69857142Y-100428571D01*
X69857142Y-101857142D02*
X69714285Y-101928571D01*
X69428571Y-101928571D01*
X69285714Y-101857142D01*
X69214285Y-101785714D01*
X69142857Y-101642857D01*
X69142857Y-101214285D01*
X69214285Y-101071428D01*
X69285714Y-101000000D01*
X69428571Y-100928571D01*
X69714285Y-100928571D01*
X69857142Y-101000000D01*
X71642857Y-100571428D02*
X71714285Y-100500000D01*
X71857142Y-100428571D01*
X72214285Y-100428571D01*
X72357142Y-100500000D01*
X72428571Y-100571428D01*
X72500000Y-100714285D01*
X72500000Y-100857142D01*
X72428571Y-101071428D01*
X71571428Y-101928571D01*
X72500000Y-101928571D01*
X73428571Y-100428571D02*
X73571428Y-100428571D01*
X73714285Y-100500000D01*
X73785714Y-100571428D01*
X73857142Y-100714285D01*
X73928571Y-101000000D01*
X73928571Y-101357142D01*
X73857142Y-101642857D01*
X73785714Y-101785714D01*
X73714285Y-101857142D01*
X73571428Y-101928571D01*
X73428571Y-101928571D01*
X73285714Y-101857142D01*
X73214285Y-101785714D01*
X73142857Y-101642857D01*
X73071428Y-101357142D01*
X73071428Y-101000000D01*
X73142857Y-100714285D01*
X73214285Y-100571428D01*
X73285714Y-100500000D01*
X73428571Y-100428571D01*
X75357142Y-101928571D02*
X74500000Y-101928571D01*
X74928571Y-101928571D02*
X74928571Y-100428571D01*
X74785714Y-100642857D01*
X74642857Y-100785714D01*
X74500000Y-100857142D01*
X76071428Y-101928571D02*
X76357142Y-101928571D01*
X76500000Y-101857142D01*
X76571428Y-101785714D01*
X76714285Y-101571428D01*
X76785714Y-101285714D01*
X76785714Y-100714285D01*
X76714285Y-100571428D01*
X76642857Y-100500000D01*
X76500000Y-100428571D01*
X76214285Y-100428571D01*
X76071428Y-100500000D01*
X76000000Y-100571428D01*
X75928571Y-100714285D01*
X75928571Y-101071428D01*
X76000000Y-101214285D01*
X76071428Y-101285714D01*
X76214285Y-101357142D01*
X76500000Y-101357142D01*
X76642857Y-101285714D01*
X76714285Y-101214285D01*
X76785714Y-101071428D01*
X53785714Y-111821428D02*
X53857142Y-111750000D01*
X54000000Y-111678571D01*
X54357142Y-111678571D01*
X54500000Y-111750000D01*
X54571428Y-111821428D01*
X54642857Y-111964285D01*
X54642857Y-112107142D01*
X54571428Y-112321428D01*
X53714285Y-113178571D01*
X54642857Y-113178571D01*
X55928571Y-112178571D02*
X55928571Y-113178571D01*
X55571428Y-111607142D02*
X55214285Y-112678571D01*
X56142857Y-112678571D01*
X57000000Y-111678571D02*
X57142857Y-111678571D01*
X57285714Y-111750000D01*
X57357142Y-111821428D01*
X57428571Y-111964285D01*
X57500000Y-112250000D01*
X57500000Y-112607142D01*
X57428571Y-112892857D01*
X57357142Y-113035714D01*
X57285714Y-113107142D01*
X57142857Y-113178571D01*
X57000000Y-113178571D01*
X56857142Y-113107142D01*
X56785714Y-113035714D01*
X56714285Y-112892857D01*
X56642857Y-112607142D01*
X56642857Y-112250000D01*
X56714285Y-111964285D01*
X56785714Y-111821428D01*
X56857142Y-111750000D01*
X57000000Y-111678571D01*
X57928571Y-111678571D02*
X58428571Y-113178571D01*
X58928571Y-111678571D01*
X60500000Y-112750000D02*
X61214285Y-112750000D01*
X60357142Y-113178571D02*
X60857142Y-111678571D01*
X61357142Y-113178571D01*
X62714285Y-113035714D02*
X62642857Y-113107142D01*
X62428571Y-113178571D01*
X62285714Y-113178571D01*
X62071428Y-113107142D01*
X61928571Y-112964285D01*
X61857142Y-112821428D01*
X61785714Y-112535714D01*
X61785714Y-112321428D01*
X61857142Y-112035714D01*
X61928571Y-111892857D01*
X62071428Y-111750000D01*
X62285714Y-111678571D01*
X62428571Y-111678571D01*
X62642857Y-111750000D01*
X62714285Y-111821428D01*
X51714285Y-109178571D02*
X51000000Y-109178571D01*
X51000000Y-107678571D01*
X51071428Y-106678571D02*
X51071428Y-105178571D01*
X51928571Y-106678571D01*
X51928571Y-105178571D01*
D11*
X124202380Y-38988095D02*
X123202380Y-38988095D01*
X123202380Y-38607142D01*
X123250000Y-38511904D01*
X123297619Y-38464285D01*
X123392857Y-38416666D01*
X123535714Y-38416666D01*
X123630952Y-38464285D01*
X123678571Y-38511904D01*
X123726190Y-38607142D01*
X123726190Y-38988095D01*
X124202380Y-37988095D02*
X123202380Y-37988095D01*
X123202380Y-37750000D01*
X123250000Y-37607142D01*
X123345238Y-37511904D01*
X123440476Y-37464285D01*
X123630952Y-37416666D01*
X123773809Y-37416666D01*
X123964285Y-37464285D01*
X124059523Y-37511904D01*
X124154761Y-37607142D01*
X124202380Y-37750000D01*
X124202380Y-37988095D01*
X123202380Y-36511904D02*
X123202380Y-36988095D01*
X123678571Y-37035714D01*
X123630952Y-36988095D01*
X123583333Y-36892857D01*
X123583333Y-36654761D01*
X123630952Y-36559523D01*
X123678571Y-36511904D01*
X123773809Y-36464285D01*
X124011904Y-36464285D01*
X124107142Y-36511904D01*
X124154761Y-36559523D01*
X124202380Y-36654761D01*
X124202380Y-36892857D01*
X124154761Y-36988095D01*
X124107142Y-37035714D01*
X120702380Y-39083333D02*
X121702380Y-38750000D01*
X120702380Y-38416666D01*
X121607142Y-37511904D02*
X121654761Y-37559523D01*
X121702380Y-37702380D01*
X121702380Y-37797619D01*
X121654761Y-37940476D01*
X121559523Y-38035714D01*
X121464285Y-38083333D01*
X121273809Y-38130952D01*
X121130952Y-38130952D01*
X120940476Y-38083333D01*
X120845238Y-38035714D01*
X120750000Y-37940476D01*
X120702380Y-37797619D01*
X120702380Y-37702380D01*
X120750000Y-37559523D01*
X120797619Y-37511904D01*
X121607142Y-36511904D02*
X121654761Y-36559523D01*
X121702380Y-36702380D01*
X121702380Y-36797619D01*
X121654761Y-36940476D01*
X121559523Y-37035714D01*
X121464285Y-37083333D01*
X121273809Y-37130952D01*
X121130952Y-37130952D01*
X120940476Y-37083333D01*
X120845238Y-37035714D01*
X120750000Y-36940476D01*
X120702380Y-36797619D01*
X120702380Y-36702380D01*
X120750000Y-36559523D01*
X120797619Y-36511904D01*
X106952380Y-38988095D02*
X105952380Y-38988095D01*
X105952380Y-38607142D01*
X106000000Y-38511904D01*
X106047619Y-38464285D01*
X106142857Y-38416666D01*
X106285714Y-38416666D01*
X106380952Y-38464285D01*
X106428571Y-38511904D01*
X106476190Y-38607142D01*
X106476190Y-38988095D01*
X106952380Y-37988095D02*
X105952380Y-37988095D01*
X105952380Y-37750000D01*
X106000000Y-37607142D01*
X106095238Y-37511904D01*
X106190476Y-37464285D01*
X106380952Y-37416666D01*
X106523809Y-37416666D01*
X106714285Y-37464285D01*
X106809523Y-37511904D01*
X106904761Y-37607142D01*
X106952380Y-37750000D01*
X106952380Y-37988095D01*
X106285714Y-36559523D02*
X106952380Y-36559523D01*
X105904761Y-36797619D02*
X106619047Y-37035714D01*
X106619047Y-36416666D01*
X103452380Y-39083333D02*
X104452380Y-38750000D01*
X103452380Y-38416666D01*
X104357142Y-37511904D02*
X104404761Y-37559523D01*
X104452380Y-37702380D01*
X104452380Y-37797619D01*
X104404761Y-37940476D01*
X104309523Y-38035714D01*
X104214285Y-38083333D01*
X104023809Y-38130952D01*
X103880952Y-38130952D01*
X103690476Y-38083333D01*
X103595238Y-38035714D01*
X103500000Y-37940476D01*
X103452380Y-37797619D01*
X103452380Y-37702380D01*
X103500000Y-37559523D01*
X103547619Y-37511904D01*
X104357142Y-36511904D02*
X104404761Y-36559523D01*
X104452380Y-36702380D01*
X104452380Y-36797619D01*
X104404761Y-36940476D01*
X104309523Y-37035714D01*
X104214285Y-37083333D01*
X104023809Y-37130952D01*
X103880952Y-37130952D01*
X103690476Y-37083333D01*
X103595238Y-37035714D01*
X103500000Y-36940476D01*
X103452380Y-36797619D01*
X103452380Y-36702380D01*
X103500000Y-36559523D01*
X103547619Y-36511904D01*
X86952380Y-39130952D02*
X87952380Y-38892857D01*
X87238095Y-38702380D01*
X87952380Y-38511904D01*
X86952380Y-38273809D01*
X87666666Y-37940476D02*
X87666666Y-37464285D01*
X87952380Y-38035714D02*
X86952380Y-37702380D01*
X87952380Y-37369047D01*
X87952380Y-36464285D02*
X87476190Y-36797619D01*
X87952380Y-37035714D02*
X86952380Y-37035714D01*
X86952380Y-36654761D01*
X87000000Y-36559523D01*
X87047619Y-36511904D01*
X87142857Y-36464285D01*
X87285714Y-36464285D01*
X87380952Y-36511904D01*
X87428571Y-36559523D01*
X87476190Y-36654761D01*
X87476190Y-37035714D01*
X87952380Y-36035714D02*
X86952380Y-36035714D01*
X87952380Y-35464285D01*
X86952380Y-35464285D01*
X85452380Y-39083333D02*
X84452380Y-39083333D01*
X84452380Y-38702380D01*
X84500000Y-38607142D01*
X84547619Y-38559523D01*
X84642857Y-38511904D01*
X84785714Y-38511904D01*
X84880952Y-38559523D01*
X84928571Y-38607142D01*
X84976190Y-38702380D01*
X84976190Y-39083333D01*
X84452380Y-38178571D02*
X85452380Y-37940476D01*
X84738095Y-37750000D01*
X85452380Y-37559523D01*
X84452380Y-37321428D01*
X85452380Y-36369047D02*
X84976190Y-36702380D01*
X85452380Y-36940476D02*
X84452380Y-36940476D01*
X84452380Y-36559523D01*
X84500000Y-36464285D01*
X84547619Y-36416666D01*
X84642857Y-36369047D01*
X84785714Y-36369047D01*
X84880952Y-36416666D01*
X84928571Y-36464285D01*
X84976190Y-36559523D01*
X84976190Y-36940476D01*
X72502380Y-39288095D02*
X71502380Y-39288095D01*
X71502380Y-38907142D01*
X71550000Y-38811904D01*
X71597619Y-38764285D01*
X71692857Y-38716666D01*
X71835714Y-38716666D01*
X71930952Y-38764285D01*
X71978571Y-38811904D01*
X72026190Y-38907142D01*
X72026190Y-39288095D01*
X72502380Y-37716666D02*
X72026190Y-38050000D01*
X72502380Y-38288095D02*
X71502380Y-38288095D01*
X71502380Y-37907142D01*
X71550000Y-37811904D01*
X71597619Y-37764285D01*
X71692857Y-37716666D01*
X71835714Y-37716666D01*
X71930952Y-37764285D01*
X71978571Y-37811904D01*
X72026190Y-37907142D01*
X72026190Y-38288095D01*
X71502380Y-37097619D02*
X71502380Y-36907142D01*
X71550000Y-36811904D01*
X71645238Y-36716666D01*
X71835714Y-36669047D01*
X72169047Y-36669047D01*
X72359523Y-36716666D01*
X72454761Y-36811904D01*
X72502380Y-36907142D01*
X72502380Y-37097619D01*
X72454761Y-37192857D01*
X72359523Y-37288095D01*
X72169047Y-37335714D01*
X71835714Y-37335714D01*
X71645238Y-37288095D01*
X71550000Y-37192857D01*
X71502380Y-37097619D01*
X71978571Y-35907142D02*
X72026190Y-35764285D01*
X72073809Y-35716666D01*
X72169047Y-35669047D01*
X72311904Y-35669047D01*
X72407142Y-35716666D01*
X72454761Y-35764285D01*
X72502380Y-35859523D01*
X72502380Y-36240476D01*
X71502380Y-36240476D01*
X71502380Y-35907142D01*
X71550000Y-35811904D01*
X71597619Y-35764285D01*
X71692857Y-35716666D01*
X71788095Y-35716666D01*
X71883333Y-35764285D01*
X71930952Y-35811904D01*
X71978571Y-35907142D01*
X71978571Y-36240476D01*
X71978571Y-35240476D02*
X71978571Y-34907142D01*
X72502380Y-34764285D02*
X72502380Y-35240476D01*
X71502380Y-35240476D01*
X71502380Y-34764285D01*
X66450000Y-38611904D02*
X66402380Y-38707142D01*
X66402380Y-38850000D01*
X66450000Y-38992857D01*
X66545238Y-39088095D01*
X66640476Y-39135714D01*
X66830952Y-39183333D01*
X66973809Y-39183333D01*
X67164285Y-39135714D01*
X67259523Y-39088095D01*
X67354761Y-38992857D01*
X67402380Y-38850000D01*
X67402380Y-38754761D01*
X67354761Y-38611904D01*
X67307142Y-38564285D01*
X66973809Y-38564285D01*
X66973809Y-38754761D01*
X67402380Y-38135714D02*
X66402380Y-38135714D01*
X67402380Y-37564285D01*
X66402380Y-37564285D01*
X67402380Y-37088095D02*
X66402380Y-37088095D01*
X66402380Y-36850000D01*
X66450000Y-36707142D01*
X66545238Y-36611904D01*
X66640476Y-36564285D01*
X66830952Y-36516666D01*
X66973809Y-36516666D01*
X67164285Y-36564285D01*
X67259523Y-36611904D01*
X67354761Y-36707142D01*
X67402380Y-36850000D01*
X67402380Y-37088095D01*
D10*
X52107142Y-99178571D02*
X51392857Y-99178571D01*
X51392857Y-97678571D01*
X52821428Y-99178571D02*
X52678571Y-99107142D01*
X52607142Y-99035714D01*
X52535714Y-98892857D01*
X52535714Y-98464285D01*
X52607142Y-98321428D01*
X52678571Y-98250000D01*
X52821428Y-98178571D01*
X53035714Y-98178571D01*
X53178571Y-98250000D01*
X53250000Y-98321428D01*
X53321428Y-98464285D01*
X53321428Y-98892857D01*
X53250000Y-99035714D01*
X53178571Y-99107142D01*
X53035714Y-99178571D01*
X52821428Y-99178571D01*
X53821428Y-98178571D02*
X54107142Y-99178571D01*
X54392857Y-98464285D01*
X54678571Y-99178571D01*
X54964285Y-98178571D01*
X56535714Y-97678571D02*
X56892857Y-99178571D01*
X57178571Y-98107142D01*
X57464285Y-99178571D01*
X57821428Y-97678571D01*
X59035714Y-99178571D02*
X59035714Y-98392857D01*
X58964285Y-98250000D01*
X58821428Y-98178571D01*
X58535714Y-98178571D01*
X58392857Y-98250000D01*
X59035714Y-99107142D02*
X58892857Y-99178571D01*
X58535714Y-99178571D01*
X58392857Y-99107142D01*
X58321428Y-98964285D01*
X58321428Y-98821428D01*
X58392857Y-98678571D01*
X58535714Y-98607142D01*
X58892857Y-98607142D01*
X59035714Y-98535714D01*
X59535714Y-98178571D02*
X60107142Y-98178571D01*
X59750000Y-97678571D02*
X59750000Y-98964285D01*
X59821428Y-99107142D01*
X59964285Y-99178571D01*
X60107142Y-99178571D01*
X61178571Y-99107142D02*
X61035714Y-99178571D01*
X60750000Y-99178571D01*
X60607142Y-99107142D01*
X60535714Y-98964285D01*
X60535714Y-98392857D01*
X60607142Y-98250000D01*
X60750000Y-98178571D01*
X61035714Y-98178571D01*
X61178571Y-98250000D01*
X61250000Y-98392857D01*
X61250000Y-98535714D01*
X60535714Y-98678571D01*
X61892857Y-99178571D02*
X61892857Y-98178571D01*
X61892857Y-98464285D02*
X61964285Y-98321428D01*
X62035714Y-98250000D01*
X62178571Y-98178571D01*
X62321428Y-98178571D01*
X63964285Y-99178571D02*
X63964285Y-97678571D01*
X64535714Y-97678571D01*
X64678571Y-97750000D01*
X64750000Y-97821428D01*
X64821428Y-97964285D01*
X64821428Y-98178571D01*
X64750000Y-98321428D01*
X64678571Y-98392857D01*
X64535714Y-98464285D01*
X63964285Y-98464285D01*
X65464285Y-99178571D02*
X65464285Y-98178571D01*
X65464285Y-98464285D02*
X65535714Y-98321428D01*
X65607142Y-98250000D01*
X65750000Y-98178571D01*
X65892857Y-98178571D01*
X66607142Y-99178571D02*
X66464285Y-99107142D01*
X66392857Y-99035714D01*
X66321428Y-98892857D01*
X66321428Y-98464285D01*
X66392857Y-98321428D01*
X66464285Y-98250000D01*
X66607142Y-98178571D01*
X66821428Y-98178571D01*
X66964285Y-98250000D01*
X67035714Y-98321428D01*
X67107142Y-98464285D01*
X67107142Y-98892857D01*
X67035714Y-99035714D01*
X66964285Y-99107142D01*
X66821428Y-99178571D01*
X66607142Y-99178571D01*
X67535714Y-98178571D02*
X68107142Y-98178571D01*
X67750000Y-97678571D02*
X67750000Y-98964285D01*
X67821428Y-99107142D01*
X67964285Y-99178571D01*
X68107142Y-99178571D01*
X69178571Y-99107142D02*
X69035714Y-99178571D01*
X68750000Y-99178571D01*
X68607142Y-99107142D01*
X68535714Y-98964285D01*
X68535714Y-98392857D01*
X68607142Y-98250000D01*
X68750000Y-98178571D01*
X69035714Y-98178571D01*
X69178571Y-98250000D01*
X69250000Y-98392857D01*
X69250000Y-98535714D01*
X68535714Y-98678571D01*
X70535714Y-99107142D02*
X70392857Y-99178571D01*
X70107142Y-99178571D01*
X69964285Y-99107142D01*
X69892857Y-99035714D01*
X69821428Y-98892857D01*
X69821428Y-98464285D01*
X69892857Y-98321428D01*
X69964285Y-98250000D01*
X70107142Y-98178571D01*
X70392857Y-98178571D01*
X70535714Y-98250000D01*
X70964285Y-98178571D02*
X71535714Y-98178571D01*
X71178571Y-97678571D02*
X71178571Y-98964285D01*
X71250000Y-99107142D01*
X71392857Y-99178571D01*
X71535714Y-99178571D01*
X72035714Y-99178571D02*
X72035714Y-98178571D01*
X72035714Y-97678571D02*
X71964285Y-97750000D01*
X72035714Y-97821428D01*
X72107142Y-97750000D01*
X72035714Y-97678571D01*
X72035714Y-97821428D01*
X72964285Y-99178571D02*
X72821428Y-99107142D01*
X72750000Y-99035714D01*
X72678571Y-98892857D01*
X72678571Y-98464285D01*
X72750000Y-98321428D01*
X72821428Y-98250000D01*
X72964285Y-98178571D01*
X73178571Y-98178571D01*
X73321428Y-98250000D01*
X73392857Y-98321428D01*
X73464285Y-98464285D01*
X73464285Y-98892857D01*
X73392857Y-99035714D01*
X73321428Y-99107142D01*
X73178571Y-99178571D01*
X72964285Y-99178571D01*
X74107142Y-98178571D02*
X74107142Y-99178571D01*
X74107142Y-98321428D02*
X74178571Y-98250000D01*
X74321428Y-98178571D01*
X74535714Y-98178571D01*
X74678571Y-98250000D01*
X74750000Y-98392857D01*
X74750000Y-99178571D01*
X76464285Y-98178571D02*
X76821428Y-99178571D01*
X77178571Y-98178571D01*
X78535714Y-99178571D02*
X77678571Y-99178571D01*
X78107142Y-99178571D02*
X78107142Y-97678571D01*
X77964285Y-97892857D01*
X77821428Y-98035714D01*
X77678571Y-98107142D01*
X79178571Y-99035714D02*
X79250000Y-99107142D01*
X79178571Y-99178571D01*
X79107142Y-99107142D01*
X79178571Y-99035714D01*
X79178571Y-99178571D01*
X80178571Y-97678571D02*
X80321428Y-97678571D01*
X80464285Y-97750000D01*
X80535714Y-97821428D01*
X80607142Y-97964285D01*
X80678571Y-98250000D01*
X80678571Y-98607142D01*
X80607142Y-98892857D01*
X80535714Y-99035714D01*
X80464285Y-99107142D01*
X80321428Y-99178571D01*
X80178571Y-99178571D01*
X80035714Y-99107142D01*
X79964285Y-99035714D01*
X79892857Y-98892857D01*
X79821428Y-98607142D01*
X79821428Y-98250000D01*
X79892857Y-97964285D01*
X79964285Y-97821428D01*
X80035714Y-97750000D01*
X80178571Y-97678571D01*
D11*
X118250000Y-38511904D02*
X118202380Y-38607142D01*
X118202380Y-38750000D01*
X118250000Y-38892857D01*
X118345238Y-38988095D01*
X118440476Y-39035714D01*
X118630952Y-39083333D01*
X118773809Y-39083333D01*
X118964285Y-39035714D01*
X119059523Y-38988095D01*
X119154761Y-38892857D01*
X119202380Y-38750000D01*
X119202380Y-38654761D01*
X119154761Y-38511904D01*
X119107142Y-38464285D01*
X118773809Y-38464285D01*
X118773809Y-38654761D01*
X119202380Y-38035714D02*
X118202380Y-38035714D01*
X119202380Y-37464285D01*
X118202380Y-37464285D01*
X119202380Y-36988095D02*
X118202380Y-36988095D01*
X118202380Y-36750000D01*
X118250000Y-36607142D01*
X118345238Y-36511904D01*
X118440476Y-36464285D01*
X118630952Y-36416666D01*
X118773809Y-36416666D01*
X118964285Y-36464285D01*
X119059523Y-36511904D01*
X119154761Y-36607142D01*
X119202380Y-36750000D01*
X119202380Y-36988095D01*
X101000000Y-38511904D02*
X100952380Y-38607142D01*
X100952380Y-38750000D01*
X101000000Y-38892857D01*
X101095238Y-38988095D01*
X101190476Y-39035714D01*
X101380952Y-39083333D01*
X101523809Y-39083333D01*
X101714285Y-39035714D01*
X101809523Y-38988095D01*
X101904761Y-38892857D01*
X101952380Y-38750000D01*
X101952380Y-38654761D01*
X101904761Y-38511904D01*
X101857142Y-38464285D01*
X101523809Y-38464285D01*
X101523809Y-38654761D01*
X101952380Y-38035714D02*
X100952380Y-38035714D01*
X101952380Y-37464285D01*
X100952380Y-37464285D01*
X101952380Y-36988095D02*
X100952380Y-36988095D01*
X100952380Y-36750000D01*
X101000000Y-36607142D01*
X101095238Y-36511904D01*
X101190476Y-36464285D01*
X101380952Y-36416666D01*
X101523809Y-36416666D01*
X101714285Y-36464285D01*
X101809523Y-36511904D01*
X101904761Y-36607142D01*
X101952380Y-36750000D01*
X101952380Y-36988095D01*
X132458978Y-82926800D02*
X131458978Y-82926800D01*
X132173264Y-82593466D01*
X131458978Y-82260133D01*
X132458978Y-82260133D01*
X132458978Y-81783942D02*
X131458978Y-81783942D01*
X132411359Y-81355371D02*
X132458978Y-81212514D01*
X132458978Y-80974419D01*
X132411359Y-80879180D01*
X132363740Y-80831561D01*
X132268502Y-80783942D01*
X132173264Y-80783942D01*
X132078026Y-80831561D01*
X132030407Y-80879180D01*
X131982788Y-80974419D01*
X131935169Y-81164895D01*
X131887550Y-81260133D01*
X131839931Y-81307752D01*
X131744693Y-81355371D01*
X131649455Y-81355371D01*
X131554217Y-81307752D01*
X131506598Y-81260133D01*
X131458978Y-81164895D01*
X131458978Y-80926800D01*
X131506598Y-80783942D01*
X131458978Y-80164895D02*
X131458978Y-79974419D01*
X131506598Y-79879180D01*
X131601836Y-79783942D01*
X131792312Y-79736323D01*
X132125645Y-79736323D01*
X132316121Y-79783942D01*
X132411359Y-79879180D01*
X132458978Y-79974419D01*
X132458978Y-80164895D01*
X132411359Y-80260133D01*
X132316121Y-80355371D01*
X132125645Y-80402990D01*
X131792312Y-80402990D01*
X131601836Y-80355371D01*
X131506598Y-80260133D01*
X131458978Y-80164895D01*
X132458978Y-77974419D02*
X131982788Y-78307752D01*
X132458978Y-78545847D02*
X131458978Y-78545847D01*
X131458978Y-78164895D01*
X131506598Y-78069657D01*
X131554217Y-78022038D01*
X131649455Y-77974419D01*
X131792312Y-77974419D01*
X131887550Y-78022038D01*
X131935169Y-78069657D01*
X131982788Y-78164895D01*
X131982788Y-78545847D01*
X132411359Y-77593466D02*
X132458978Y-77450609D01*
X132458978Y-77212514D01*
X132411359Y-77117276D01*
X132363740Y-77069657D01*
X132268502Y-77022038D01*
X132173264Y-77022038D01*
X132078026Y-77069657D01*
X132030407Y-77117276D01*
X131982788Y-77212514D01*
X131935169Y-77402990D01*
X131887550Y-77498228D01*
X131839931Y-77545847D01*
X131744693Y-77593466D01*
X131649455Y-77593466D01*
X131554217Y-77545847D01*
X131506598Y-77498228D01*
X131458978Y-77402990D01*
X131458978Y-77164895D01*
X131506598Y-77022038D01*
X131458978Y-76736323D02*
X131458978Y-76164895D01*
X132458978Y-76450609D02*
X131458978Y-76450609D01*
X132458978Y-75069657D02*
X131458978Y-75069657D01*
X132173264Y-74736323D01*
X131458978Y-74402990D01*
X132458978Y-74402990D01*
X131458978Y-73736323D02*
X131458978Y-73545847D01*
X131506598Y-73450609D01*
X131601836Y-73355371D01*
X131792312Y-73307752D01*
X132125645Y-73307752D01*
X132316121Y-73355371D01*
X132411359Y-73450609D01*
X132458978Y-73545847D01*
X132458978Y-73736323D01*
X132411359Y-73831561D01*
X132316121Y-73926800D01*
X132125645Y-73974419D01*
X131792312Y-73974419D01*
X131601836Y-73926800D01*
X131506598Y-73831561D01*
X131458978Y-73736323D01*
X132411359Y-72926800D02*
X132458978Y-72783942D01*
X132458978Y-72545847D01*
X132411359Y-72450609D01*
X132363740Y-72402990D01*
X132268502Y-72355371D01*
X132173264Y-72355371D01*
X132078026Y-72402990D01*
X132030407Y-72450609D01*
X131982788Y-72545847D01*
X131935169Y-72736323D01*
X131887550Y-72831561D01*
X131839931Y-72879180D01*
X131744693Y-72926800D01*
X131649455Y-72926800D01*
X131554217Y-72879180D01*
X131506598Y-72831561D01*
X131458978Y-72736323D01*
X131458978Y-72498228D01*
X131506598Y-72355371D01*
X132458978Y-71926800D02*
X131458978Y-71926800D01*
X123911359Y-82426800D02*
X123958978Y-82283942D01*
X123958978Y-82045847D01*
X123911359Y-81950609D01*
X123863740Y-81902990D01*
X123768502Y-81855371D01*
X123673264Y-81855371D01*
X123578026Y-81902990D01*
X123530407Y-81950609D01*
X123482788Y-82045847D01*
X123435169Y-82236323D01*
X123387550Y-82331561D01*
X123339931Y-82379180D01*
X123244693Y-82426800D01*
X123149455Y-82426800D01*
X123054217Y-82379180D01*
X123006598Y-82331561D01*
X122958978Y-82236323D01*
X122958978Y-81998228D01*
X123006598Y-81855371D01*
X123863740Y-80855371D02*
X123911359Y-80902990D01*
X123958978Y-81045847D01*
X123958978Y-81141085D01*
X123911359Y-81283942D01*
X123816121Y-81379180D01*
X123720883Y-81426800D01*
X123530407Y-81474419D01*
X123387550Y-81474419D01*
X123197074Y-81426800D01*
X123101836Y-81379180D01*
X123006598Y-81283942D01*
X122958978Y-81141085D01*
X122958978Y-81045847D01*
X123006598Y-80902990D01*
X123054217Y-80855371D01*
X123958978Y-80426800D02*
X122958978Y-80426800D01*
X123958978Y-79855371D02*
X123387550Y-80283942D01*
X122958978Y-79855371D02*
X123530407Y-80426800D01*
X123006598Y-78141085D02*
X122958978Y-78236323D01*
X122958978Y-78379180D01*
X123006598Y-78522038D01*
X123101836Y-78617276D01*
X123197074Y-78664895D01*
X123387550Y-78712514D01*
X123530407Y-78712514D01*
X123720883Y-78664895D01*
X123816121Y-78617276D01*
X123911359Y-78522038D01*
X123958978Y-78379180D01*
X123958978Y-78283942D01*
X123911359Y-78141085D01*
X123863740Y-78093466D01*
X123530407Y-78093466D01*
X123530407Y-78283942D01*
X123958978Y-77664895D02*
X122958978Y-77664895D01*
X123958978Y-77093466D01*
X122958978Y-77093466D01*
X123958978Y-76617276D02*
X122958978Y-76617276D01*
X122958978Y-76379180D01*
X123006598Y-76236323D01*
X123101836Y-76141085D01*
X123197074Y-76093466D01*
X123387550Y-76045847D01*
X123530407Y-76045847D01*
X123720883Y-76093466D01*
X123816121Y-76141085D01*
X123911359Y-76236323D01*
X123958978Y-76379180D01*
X123958978Y-76617276D01*
X122958978Y-74998228D02*
X123958978Y-74664895D01*
X122958978Y-74331561D01*
X123863740Y-73426800D02*
X123911359Y-73474419D01*
X123958978Y-73617276D01*
X123958978Y-73712514D01*
X123911359Y-73855371D01*
X123816121Y-73950609D01*
X123720883Y-73998228D01*
X123530407Y-74045847D01*
X123387550Y-74045847D01*
X123197074Y-73998228D01*
X123101836Y-73950609D01*
X123006598Y-73855371D01*
X122958978Y-73712514D01*
X122958978Y-73617276D01*
X123006598Y-73474419D01*
X123054217Y-73426800D01*
X123863740Y-72426800D02*
X123911359Y-72474419D01*
X123958978Y-72617276D01*
X123958978Y-72712514D01*
X123911359Y-72855371D01*
X123816121Y-72950609D01*
X123720883Y-72998228D01*
X123530407Y-73045847D01*
X123387550Y-73045847D01*
X123197074Y-72998228D01*
X123101836Y-72950609D01*
X123006598Y-72855371D01*
X122958978Y-72712514D01*
X122958978Y-72617276D01*
X123006598Y-72474419D01*
X123054217Y-72426800D01*
X69952380Y-38654761D02*
X69476190Y-38988095D01*
X69952380Y-39226190D02*
X68952380Y-39226190D01*
X68952380Y-38845238D01*
X69000000Y-38750000D01*
X69047619Y-38702380D01*
X69142857Y-38654761D01*
X69285714Y-38654761D01*
X69380952Y-38702380D01*
X69428571Y-38750000D01*
X69476190Y-38845238D01*
X69476190Y-39226190D01*
X69428571Y-38226190D02*
X69428571Y-37892857D01*
X69952380Y-37750000D02*
X69952380Y-38226190D01*
X68952380Y-38226190D01*
X68952380Y-37750000D01*
X69952380Y-36845238D02*
X69952380Y-37321428D01*
X68952380Y-37321428D01*
X69666666Y-36559523D02*
X69666666Y-36083333D01*
X69952380Y-36654761D02*
X68952380Y-36321428D01*
X69952380Y-35988095D01*
X69476190Y-35464285D02*
X69952380Y-35464285D01*
X68952380Y-35797619D02*
X69476190Y-35464285D01*
X68952380Y-35130952D01*
X81750000Y-38642857D02*
X81702380Y-38738095D01*
X81702380Y-38880952D01*
X81750000Y-39023809D01*
X81845238Y-39119047D01*
X81940476Y-39166666D01*
X82130952Y-39214285D01*
X82273809Y-39214285D01*
X82464285Y-39166666D01*
X82559523Y-39119047D01*
X82654761Y-39023809D01*
X82702380Y-38880952D01*
X82702380Y-38785714D01*
X82654761Y-38642857D01*
X82607142Y-38595238D01*
X82273809Y-38595238D01*
X82273809Y-38785714D01*
X82702380Y-38166666D02*
X81702380Y-38166666D01*
X82702380Y-37595238D01*
X81702380Y-37595238D01*
X82702380Y-37119047D02*
X81702380Y-37119047D01*
X81702380Y-36880952D01*
X81750000Y-36738095D01*
X81845238Y-36642857D01*
X81940476Y-36595238D01*
X82130952Y-36547619D01*
X82273809Y-36547619D01*
X82464285Y-36595238D01*
X82559523Y-36642857D01*
X82654761Y-36738095D01*
X82702380Y-36880952D01*
X82702380Y-37119047D01*
G04 #@! TO.C,U3*
X78440000Y-106200000D02*
X114000000Y-106200000D01*
X114000000Y-106200000D02*
X114000000Y-126520000D01*
X111460000Y-129060000D02*
X78440000Y-129060000D01*
X78440000Y-129060000D02*
X78440000Y-106200000D01*
X111460000Y-129060000D02*
X114000000Y-126520000D01*
X73360000Y-117630000D02*
G75*
G02X74630000Y-117630000I635000J0D01*
G01*
X75900000Y-117630000D02*
G75*
G02X74630000Y-117630000I-635000J0D01*
G01*
X76535000Y-110010000D02*
X74630000Y-110010000D01*
X74630000Y-110010000D02*
X74630000Y-116360000D01*
X76535000Y-125250000D02*
X74630000Y-125250000D01*
X74630000Y-125250000D02*
X74630000Y-119535000D01*
D12*
G04 #@! TO.C,C1*
X69870000Y-76380000D02*
X69870000Y-81620000D01*
X67130000Y-76380000D02*
X67130000Y-81620000D01*
X69870000Y-76380000D02*
X69555000Y-76380000D01*
X67445000Y-76380000D02*
X67130000Y-76380000D01*
X69870000Y-81620000D02*
X69555000Y-81620000D01*
X67445000Y-81620000D02*
X67130000Y-81620000D01*
G04 #@! TO.C,C2*
X61445000Y-81620000D02*
X61130000Y-81620000D01*
X63870000Y-81620000D02*
X63555000Y-81620000D01*
X61445000Y-76380000D02*
X61130000Y-76380000D01*
X63870000Y-76380000D02*
X63555000Y-76380000D01*
X61130000Y-76380000D02*
X61130000Y-81620000D01*
X63870000Y-76380000D02*
X63870000Y-81620000D01*
G04 #@! TO.C,C3*
X58120000Y-76380000D02*
X58120000Y-81620000D01*
X55380000Y-76380000D02*
X55380000Y-81620000D01*
X58120000Y-76380000D02*
X57805000Y-76380000D01*
X55695000Y-76380000D02*
X55380000Y-76380000D01*
X58120000Y-81620000D02*
X57805000Y-81620000D01*
X55695000Y-81620000D02*
X55380000Y-81620000D01*
G04 #@! TO.C,C4*
X111870000Y-98370000D02*
X103630000Y-98370000D01*
X111870000Y-93130000D02*
X103630000Y-93130000D01*
X111870000Y-98370000D02*
X111870000Y-96696000D01*
X111870000Y-94804000D02*
X111870000Y-93130000D01*
X103630000Y-98370000D02*
X103630000Y-96696000D01*
X103630000Y-94804000D02*
X103630000Y-93130000D01*
G04 #@! TO.C,C5*
X96620000Y-96696000D02*
X96620000Y-98370000D01*
X96620000Y-93130000D02*
X96620000Y-94804000D01*
X88380000Y-96696000D02*
X88380000Y-98370000D01*
X88380000Y-93130000D02*
X88380000Y-94804000D01*
X88380000Y-98370000D02*
X96620000Y-98370000D01*
X88380000Y-93130000D02*
X96620000Y-93130000D01*
G04 #@! TO.C,C6*
X125130000Y-68370000D02*
X125130000Y-50130000D01*
X130370000Y-68370000D02*
X130370000Y-50130000D01*
X125130000Y-68370000D02*
X130370000Y-68370000D01*
X125130000Y-50130000D02*
X130370000Y-50130000D01*
G04 #@! TO.C,C7*
X137870000Y-87380000D02*
X137870000Y-92620000D01*
X119630000Y-87380000D02*
X119630000Y-92620000D01*
X119630000Y-92620000D02*
X137870000Y-92620000D01*
X119630000Y-87380000D02*
X137870000Y-87380000D01*
G04 #@! TO.C,D1*
X55610000Y-66410000D02*
X55280000Y-66410000D01*
X55280000Y-66410000D02*
X55280000Y-60970000D01*
X55280000Y-60970000D02*
X55610000Y-60970000D01*
X57890000Y-66410000D02*
X58220000Y-66410000D01*
X58220000Y-66410000D02*
X58220000Y-60970000D01*
X58220000Y-60970000D02*
X57890000Y-60970000D01*
X55280000Y-65510000D02*
X58220000Y-65510000D01*
X55280000Y-65390000D02*
X58220000Y-65390000D01*
X55280000Y-65630000D02*
X58220000Y-65630000D01*
G04 #@! TO.C,J1*
X130336598Y-73516800D02*
X125136598Y-73516800D01*
X130336598Y-78656800D02*
X130336598Y-73516800D01*
X125136598Y-81256800D02*
X125136598Y-73516800D01*
X130336598Y-78656800D02*
X127736598Y-78656800D01*
X127736598Y-78656800D02*
X127736598Y-81256800D01*
X127736598Y-81256800D02*
X125136598Y-81256800D01*
X130336598Y-79926800D02*
X130336598Y-81256800D01*
X130336598Y-81256800D02*
X129006598Y-81256800D01*
G04 #@! TO.C,R1*
X59290000Y-85960000D02*
X59290000Y-85630000D01*
X59290000Y-85630000D02*
X65830000Y-85630000D01*
X65830000Y-85630000D02*
X65830000Y-85960000D01*
X59290000Y-88040000D02*
X59290000Y-88370000D01*
X59290000Y-88370000D02*
X65830000Y-88370000D01*
X65830000Y-88370000D02*
X65830000Y-88040000D01*
G04 #@! TO.C,R2*
X74750000Y-77380000D02*
X74750000Y-78150000D01*
X74750000Y-85460000D02*
X74750000Y-84690000D01*
X73380000Y-78150000D02*
X73380000Y-84690000D01*
X76120000Y-78150000D02*
X73380000Y-78150000D01*
X76120000Y-84690000D02*
X76120000Y-78150000D01*
X73380000Y-84690000D02*
X76120000Y-84690000D01*
G04 #@! TO.C,R3*
X52120000Y-60310000D02*
X49380000Y-60310000D01*
X49380000Y-60310000D02*
X49380000Y-66850000D01*
X49380000Y-66850000D02*
X52120000Y-66850000D01*
X52120000Y-66850000D02*
X52120000Y-60310000D01*
X50750000Y-59540000D02*
X50750000Y-60310000D01*
X50750000Y-67620000D02*
X50750000Y-66850000D01*
G04 #@! TO.C,R4*
X52120000Y-78060000D02*
X49380000Y-78060000D01*
X49380000Y-78060000D02*
X49380000Y-84600000D01*
X49380000Y-84600000D02*
X52120000Y-84600000D01*
X52120000Y-84600000D02*
X52120000Y-78060000D01*
X50750000Y-77290000D02*
X50750000Y-78060000D01*
X50750000Y-85370000D02*
X50750000Y-84600000D01*
G04 #@! TO.C,R5*
X118000000Y-62620000D02*
X118000000Y-61850000D01*
X118000000Y-54540000D02*
X118000000Y-55310000D01*
X119370000Y-61850000D02*
X119370000Y-55310000D01*
X116630000Y-61850000D02*
X119370000Y-61850000D01*
X116630000Y-55310000D02*
X116630000Y-61850000D01*
X119370000Y-55310000D02*
X116630000Y-55310000D01*
G04 #@! TO.C,R6*
X77380000Y-61690000D02*
X80120000Y-61690000D01*
X80120000Y-61690000D02*
X80120000Y-55150000D01*
X80120000Y-55150000D02*
X77380000Y-55150000D01*
X77380000Y-55150000D02*
X77380000Y-61690000D01*
X78750000Y-62460000D02*
X78750000Y-61690000D01*
X78750000Y-54380000D02*
X78750000Y-55150000D01*
G04 #@! TO.C,R7*
X102750000Y-62620000D02*
X102750000Y-61850000D01*
X102750000Y-54540000D02*
X102750000Y-55310000D01*
X104120000Y-61850000D02*
X104120000Y-55310000D01*
X101380000Y-61850000D02*
X104120000Y-61850000D01*
X101380000Y-55310000D02*
X101380000Y-61850000D01*
X104120000Y-55310000D02*
X101380000Y-55310000D01*
G04 #@! TO.C,R8*
X111620000Y-55310000D02*
X108880000Y-55310000D01*
X108880000Y-55310000D02*
X108880000Y-61850000D01*
X108880000Y-61850000D02*
X111620000Y-61850000D01*
X111620000Y-61850000D02*
X111620000Y-55310000D01*
X110250000Y-54540000D02*
X110250000Y-55310000D01*
X110250000Y-62620000D02*
X110250000Y-61850000D01*
G04 #@! TO.C,R9*
X86500000Y-54380000D02*
X86500000Y-55150000D01*
X86500000Y-62460000D02*
X86500000Y-61690000D01*
X85130000Y-55150000D02*
X85130000Y-61690000D01*
X87870000Y-55150000D02*
X85130000Y-55150000D01*
X87870000Y-61690000D02*
X87870000Y-55150000D01*
X85130000Y-61690000D02*
X87870000Y-61690000D01*
G04 #@! TO.C,U1*
X72580000Y-64560000D02*
G75*
G02X72580000Y-62560000I0J1000000D01*
G01*
X72580000Y-62560000D02*
X72580000Y-60910000D01*
X72580000Y-60910000D02*
X62300000Y-60910000D01*
X62300000Y-60910000D02*
X62300000Y-66210000D01*
X62300000Y-66210000D02*
X72580000Y-66210000D01*
X72580000Y-66210000D02*
X72580000Y-64560000D01*
G04 #@! TO.C,U2*
X81920000Y-76440000D02*
G75*
G02X81920000Y-78440000I0J-1000000D01*
G01*
X81920000Y-78440000D02*
X81920000Y-80090000D01*
X81920000Y-80090000D02*
X117600000Y-80090000D01*
X117600000Y-80090000D02*
X117600000Y-74790000D01*
X117600000Y-74790000D02*
X81920000Y-74790000D01*
X81920000Y-74790000D02*
X81920000Y-76440000D01*
G04 #@! TO.C,Y1*
X96490000Y-85725000D02*
X102890000Y-85725000D01*
X96490000Y-90775000D02*
X102890000Y-90775000D01*
X96490000Y-90775000D02*
G75*
G02X96490000Y-85725000I0J2525000D01*
G01*
X102890000Y-90775000D02*
G75*
G03X102890000Y-85725000I0J2525000D01*
G01*
D11*
G04 #@! TO.C,J3*
X80880000Y-46350000D02*
X80880000Y-40150000D01*
X88960000Y-46350000D02*
X80880000Y-46350000D01*
X88960000Y-40150000D02*
X88960000Y-46350000D01*
X88960000Y-40150000D02*
X80880000Y-40150000D01*
G04 #@! TO.C,BZ1*
X140330000Y-105750000D02*
G75*
G03X140330000Y-105750000I-8500000J0D01*
G01*
X128250000Y-105750000D02*
G75*
G03X128250000Y-105750000I-1500000J0D01*
G01*
X138410000Y-105750000D02*
G75*
G03X138410000Y-105750000I-1500000J0D01*
G01*
G04 #@! TO.C,J4*
X107960000Y-40150000D02*
X99880000Y-40150000D01*
X107960000Y-40150000D02*
X107960000Y-46350000D01*
X107960000Y-46350000D02*
X99880000Y-46350000D01*
X99880000Y-46350000D02*
X99880000Y-40150000D01*
G04 #@! TO.C,J5*
X117130000Y-46350000D02*
X117130000Y-40150000D01*
X125210000Y-46350000D02*
X117130000Y-46350000D01*
X125210000Y-40150000D02*
X125210000Y-46350000D01*
X125210000Y-40150000D02*
X117130000Y-40150000D01*
G04 #@! TO.C,J6*
X54900000Y-104500000D02*
X54900000Y-110040000D01*
X54900000Y-104500000D02*
X61100000Y-104500000D01*
X61100000Y-104500000D02*
X61100000Y-110040000D01*
X61100000Y-110040000D02*
X54900000Y-110040000D01*
G04 #@! TO.C,J2*
X65380000Y-46350000D02*
X65380000Y-40150000D01*
X73460000Y-46350000D02*
X65380000Y-46350000D01*
X73460000Y-40150000D02*
X73460000Y-46350000D01*
X73460000Y-40150000D02*
X65380000Y-40150000D01*
D12*
G04 #@! TO.C,Q1*
X92400000Y-56720000D02*
X92400000Y-60320000D01*
X92411522Y-56681522D02*
G75*
G02X96850000Y-58520000I1838478J-1838478D01*
G01*
X92411522Y-60358478D02*
G75*
G03X96850000Y-58520000I1838478J1838478D01*
G01*
G04 #@! TO.C,R10*
X137630000Y-80940000D02*
X140370000Y-80940000D01*
X140370000Y-80940000D02*
X140370000Y-74400000D01*
X140370000Y-74400000D02*
X137630000Y-74400000D01*
X137630000Y-74400000D02*
X137630000Y-80940000D01*
X139000000Y-81710000D02*
X139000000Y-80940000D01*
X139000000Y-73630000D02*
X139000000Y-74400000D01*
D13*
G04 #@! TO.C,G\002A\002A\002A*
G36*
X77716222Y-92469889D02*
X77365796Y-92469889D01*
X77269065Y-92469525D01*
X77181809Y-92468501D01*
X77107955Y-92466921D01*
X77051432Y-92464887D01*
X77016167Y-92462501D01*
X77005963Y-92460481D01*
X77003082Y-92444099D01*
X77000558Y-92403929D01*
X76998534Y-92344405D01*
X76997156Y-92269963D01*
X76996567Y-92185036D01*
X76996555Y-92171204D01*
X76996555Y-91891333D01*
X77716222Y-91891333D01*
X77716222Y-92469889D01*
X77716222Y-92469889D01*
G37*
X77716222Y-92469889D02*
X77365796Y-92469889D01*
X77269065Y-92469525D01*
X77181809Y-92468501D01*
X77107955Y-92466921D01*
X77051432Y-92464887D01*
X77016167Y-92462501D01*
X77005963Y-92460481D01*
X77003082Y-92444099D01*
X77000558Y-92403929D01*
X76998534Y-92344405D01*
X76997156Y-92269963D01*
X76996567Y-92185036D01*
X76996555Y-92171204D01*
X76996555Y-91891333D01*
X77716222Y-91891333D01*
X77716222Y-92469889D01*
G36*
X56542500Y-91912500D02*
X56546110Y-93073139D01*
X56549719Y-94233778D01*
X53642667Y-94233778D01*
X53642667Y-91904690D01*
X53850805Y-91908595D01*
X54058944Y-91912500D01*
X54062622Y-92522805D01*
X54066300Y-93133111D01*
X54460811Y-93133111D01*
X54464489Y-92522805D01*
X54468167Y-91912500D01*
X54676305Y-91908595D01*
X54884444Y-91904690D01*
X54884444Y-93133111D01*
X55293667Y-93133111D01*
X55293667Y-91905444D01*
X55717000Y-91905444D01*
X55717000Y-93133111D01*
X56126222Y-93133111D01*
X56126222Y-91904690D01*
X56542500Y-91912500D01*
X56542500Y-91912500D01*
G37*
X56542500Y-91912500D02*
X56546110Y-93073139D01*
X56549719Y-94233778D01*
X53642667Y-94233778D01*
X53642667Y-91904690D01*
X53850805Y-91908595D01*
X54058944Y-91912500D01*
X54062622Y-92522805D01*
X54066300Y-93133111D01*
X54460811Y-93133111D01*
X54464489Y-92522805D01*
X54468167Y-91912500D01*
X54676305Y-91908595D01*
X54884444Y-91904690D01*
X54884444Y-93133111D01*
X55293667Y-93133111D01*
X55293667Y-91905444D01*
X55717000Y-91905444D01*
X55717000Y-93133111D01*
X56126222Y-93133111D01*
X56126222Y-91904690D01*
X56542500Y-91912500D01*
G36*
X77716222Y-95278000D02*
X77365796Y-95278000D01*
X77269065Y-95277636D01*
X77181809Y-95276612D01*
X77107955Y-95275032D01*
X77051432Y-95272998D01*
X77016167Y-95270612D01*
X77005963Y-95268592D01*
X77004555Y-95253388D01*
X77003210Y-95212009D01*
X77001945Y-95146505D01*
X77000776Y-95058923D01*
X76999716Y-94951311D01*
X76998784Y-94825719D01*
X76997992Y-94684193D01*
X76997359Y-94528782D01*
X76996898Y-94361535D01*
X76996627Y-94184499D01*
X76996555Y-94033870D01*
X76996555Y-92808555D01*
X77716222Y-92808555D01*
X77716222Y-95278000D01*
X77716222Y-95278000D01*
G37*
X77716222Y-95278000D02*
X77365796Y-95278000D01*
X77269065Y-95277636D01*
X77181809Y-95276612D01*
X77107955Y-95275032D01*
X77051432Y-95272998D01*
X77016167Y-95270612D01*
X77005963Y-95268592D01*
X77004555Y-95253388D01*
X77003210Y-95212009D01*
X77001945Y-95146505D01*
X77000776Y-95058923D01*
X76999716Y-94951311D01*
X76998784Y-94825719D01*
X76997992Y-94684193D01*
X76997359Y-94528782D01*
X76996898Y-94361535D01*
X76996627Y-94184499D01*
X76996555Y-94033870D01*
X76996555Y-92808555D01*
X77716222Y-92808555D01*
X77716222Y-95278000D01*
G36*
X75863755Y-92720996D02*
X75872043Y-92721977D01*
X76020849Y-92750376D01*
X76149050Y-92797242D01*
X76258280Y-92863670D01*
X76350174Y-92950753D01*
X76426367Y-93059584D01*
X76453547Y-93110950D01*
X76475944Y-93158424D01*
X76495375Y-93204254D01*
X76512050Y-93250760D01*
X76526177Y-93300265D01*
X76537964Y-93355088D01*
X76547621Y-93417551D01*
X76555356Y-93489974D01*
X76561378Y-93574680D01*
X76565895Y-93673987D01*
X76569117Y-93790218D01*
X76571251Y-93925694D01*
X76572507Y-94082734D01*
X76573094Y-94263661D01*
X76573222Y-94441781D01*
X76573222Y-95278468D01*
X76202805Y-95274706D01*
X75832389Y-95270944D01*
X75825333Y-94424278D01*
X75823849Y-94248535D01*
X75822488Y-94098697D01*
X75821155Y-93972446D01*
X75819753Y-93867466D01*
X75818185Y-93781441D01*
X75816354Y-93712053D01*
X75814165Y-93656986D01*
X75811521Y-93613922D01*
X75808324Y-93580545D01*
X75804478Y-93554539D01*
X75799888Y-93533585D01*
X75794455Y-93515369D01*
X75788084Y-93497572D01*
X75786521Y-93493415D01*
X75744014Y-93403256D01*
X75691087Y-93335122D01*
X75623037Y-93283402D01*
X75599845Y-93270694D01*
X75550090Y-93248402D01*
X75503328Y-93236502D01*
X75446449Y-93232153D01*
X75420788Y-93231889D01*
X75305161Y-93242661D01*
X75205397Y-93275565D01*
X75120353Y-93331478D01*
X75048888Y-93411279D01*
X74989859Y-93515846D01*
X74962125Y-93584667D01*
X74955115Y-93604718D01*
X74949158Y-93624193D01*
X74944145Y-93645512D01*
X74939967Y-93671095D01*
X74936517Y-93703363D01*
X74933686Y-93744736D01*
X74931364Y-93797634D01*
X74929443Y-93864479D01*
X74927815Y-93947690D01*
X74926370Y-94049687D01*
X74925001Y-94172893D01*
X74923599Y-94319726D01*
X74922222Y-94473667D01*
X74915167Y-95270944D01*
X74202555Y-95278484D01*
X74202555Y-92808555D01*
X74894000Y-92808555D01*
X74894000Y-93090778D01*
X74977114Y-93007663D01*
X75093532Y-92910435D01*
X75228422Y-92831093D01*
X75377337Y-92771059D01*
X75535829Y-92731751D01*
X75699450Y-92714591D01*
X75863755Y-92720996D01*
X75863755Y-92720996D01*
G37*
X75863755Y-92720996D02*
X75872043Y-92721977D01*
X76020849Y-92750376D01*
X76149050Y-92797242D01*
X76258280Y-92863670D01*
X76350174Y-92950753D01*
X76426367Y-93059584D01*
X76453547Y-93110950D01*
X76475944Y-93158424D01*
X76495375Y-93204254D01*
X76512050Y-93250760D01*
X76526177Y-93300265D01*
X76537964Y-93355088D01*
X76547621Y-93417551D01*
X76555356Y-93489974D01*
X76561378Y-93574680D01*
X76565895Y-93673987D01*
X76569117Y-93790218D01*
X76571251Y-93925694D01*
X76572507Y-94082734D01*
X76573094Y-94263661D01*
X76573222Y-94441781D01*
X76573222Y-95278468D01*
X76202805Y-95274706D01*
X75832389Y-95270944D01*
X75825333Y-94424278D01*
X75823849Y-94248535D01*
X75822488Y-94098697D01*
X75821155Y-93972446D01*
X75819753Y-93867466D01*
X75818185Y-93781441D01*
X75816354Y-93712053D01*
X75814165Y-93656986D01*
X75811521Y-93613922D01*
X75808324Y-93580545D01*
X75804478Y-93554539D01*
X75799888Y-93533585D01*
X75794455Y-93515369D01*
X75788084Y-93497572D01*
X75786521Y-93493415D01*
X75744014Y-93403256D01*
X75691087Y-93335122D01*
X75623037Y-93283402D01*
X75599845Y-93270694D01*
X75550090Y-93248402D01*
X75503328Y-93236502D01*
X75446449Y-93232153D01*
X75420788Y-93231889D01*
X75305161Y-93242661D01*
X75205397Y-93275565D01*
X75120353Y-93331478D01*
X75048888Y-93411279D01*
X74989859Y-93515846D01*
X74962125Y-93584667D01*
X74955115Y-93604718D01*
X74949158Y-93624193D01*
X74944145Y-93645512D01*
X74939967Y-93671095D01*
X74936517Y-93703363D01*
X74933686Y-93744736D01*
X74931364Y-93797634D01*
X74929443Y-93864479D01*
X74927815Y-93947690D01*
X74926370Y-94049687D01*
X74925001Y-94172893D01*
X74923599Y-94319726D01*
X74922222Y-94473667D01*
X74915167Y-95270944D01*
X74202555Y-95278484D01*
X74202555Y-92808555D01*
X74894000Y-92808555D01*
X74894000Y-93090778D01*
X74977114Y-93007663D01*
X75093532Y-92910435D01*
X75228422Y-92831093D01*
X75377337Y-92771059D01*
X75535829Y-92731751D01*
X75699450Y-92714591D01*
X75863755Y-92720996D01*
G36*
X69151007Y-93676389D02*
X69196064Y-93826875D01*
X69238876Y-93969085D01*
X69278748Y-94100757D01*
X69314982Y-94219630D01*
X69346884Y-94323443D01*
X69373758Y-94409935D01*
X69394907Y-94476845D01*
X69409636Y-94521912D01*
X69417248Y-94542875D01*
X69418049Y-94544125D01*
X69423405Y-94530973D01*
X69436028Y-94493145D01*
X69455183Y-94433027D01*
X69480135Y-94353007D01*
X69510147Y-94255473D01*
X69544486Y-94142811D01*
X69582415Y-94017409D01*
X69623199Y-93881655D01*
X69658197Y-93764487D01*
X69701615Y-93618780D01*
X69743323Y-93478858D01*
X69782499Y-93347479D01*
X69818319Y-93227401D01*
X69849959Y-93121381D01*
X69876598Y-93032178D01*
X69897412Y-92962550D01*
X69911577Y-92915255D01*
X69917147Y-92896750D01*
X69943844Y-92808555D01*
X70337533Y-92808555D01*
X70439633Y-92808676D01*
X70531872Y-92809018D01*
X70610676Y-92809549D01*
X70672471Y-92810236D01*
X70713683Y-92811049D01*
X70730739Y-92811953D01*
X70730995Y-92812083D01*
X70726237Y-92825551D01*
X70712476Y-92863680D01*
X70690387Y-92924618D01*
X70660643Y-93006515D01*
X70623919Y-93107518D01*
X70580887Y-93225777D01*
X70532222Y-93359441D01*
X70478597Y-93506658D01*
X70420685Y-93665578D01*
X70359161Y-93834348D01*
X70294698Y-94011118D01*
X70282968Y-94043278D01*
X69835167Y-95270944D01*
X69430927Y-95274686D01*
X69026688Y-95278428D01*
X69012626Y-95239408D01*
X69005787Y-95220593D01*
X68989987Y-95177228D01*
X68965943Y-95111275D01*
X68934369Y-95024695D01*
X68895983Y-94919449D01*
X68851498Y-94797500D01*
X68801631Y-94660810D01*
X68747098Y-94511339D01*
X68688613Y-94351049D01*
X68626893Y-94181903D01*
X68566671Y-94016874D01*
X68502886Y-93841947D01*
X68441943Y-93674550D01*
X68384529Y-93516586D01*
X68331332Y-93369958D01*
X68283039Y-93236571D01*
X68240339Y-93118328D01*
X68203918Y-93017133D01*
X68174465Y-92934890D01*
X68152666Y-92873503D01*
X68139210Y-92834875D01*
X68134778Y-92820957D01*
X68148280Y-92817679D01*
X68186357Y-92814727D01*
X68245361Y-92812218D01*
X68321643Y-92810274D01*
X68411558Y-92809013D01*
X68511457Y-92808556D01*
X68513318Y-92808555D01*
X68891859Y-92808555D01*
X69151007Y-93676389D01*
X69151007Y-93676389D01*
G37*
X69151007Y-93676389D02*
X69196064Y-93826875D01*
X69238876Y-93969085D01*
X69278748Y-94100757D01*
X69314982Y-94219630D01*
X69346884Y-94323443D01*
X69373758Y-94409935D01*
X69394907Y-94476845D01*
X69409636Y-94521912D01*
X69417248Y-94542875D01*
X69418049Y-94544125D01*
X69423405Y-94530973D01*
X69436028Y-94493145D01*
X69455183Y-94433027D01*
X69480135Y-94353007D01*
X69510147Y-94255473D01*
X69544486Y-94142811D01*
X69582415Y-94017409D01*
X69623199Y-93881655D01*
X69658197Y-93764487D01*
X69701615Y-93618780D01*
X69743323Y-93478858D01*
X69782499Y-93347479D01*
X69818319Y-93227401D01*
X69849959Y-93121381D01*
X69876598Y-93032178D01*
X69897412Y-92962550D01*
X69911577Y-92915255D01*
X69917147Y-92896750D01*
X69943844Y-92808555D01*
X70337533Y-92808555D01*
X70439633Y-92808676D01*
X70531872Y-92809018D01*
X70610676Y-92809549D01*
X70672471Y-92810236D01*
X70713683Y-92811049D01*
X70730739Y-92811953D01*
X70730995Y-92812083D01*
X70726237Y-92825551D01*
X70712476Y-92863680D01*
X70690387Y-92924618D01*
X70660643Y-93006515D01*
X70623919Y-93107518D01*
X70580887Y-93225777D01*
X70532222Y-93359441D01*
X70478597Y-93506658D01*
X70420685Y-93665578D01*
X70359161Y-93834348D01*
X70294698Y-94011118D01*
X70282968Y-94043278D01*
X69835167Y-95270944D01*
X69430927Y-95274686D01*
X69026688Y-95278428D01*
X69012626Y-95239408D01*
X69005787Y-95220593D01*
X68989987Y-95177228D01*
X68965943Y-95111275D01*
X68934369Y-95024695D01*
X68895983Y-94919449D01*
X68851498Y-94797500D01*
X68801631Y-94660810D01*
X68747098Y-94511339D01*
X68688613Y-94351049D01*
X68626893Y-94181903D01*
X68566671Y-94016874D01*
X68502886Y-93841947D01*
X68441943Y-93674550D01*
X68384529Y-93516586D01*
X68331332Y-93369958D01*
X68283039Y-93236571D01*
X68240339Y-93118328D01*
X68203918Y-93017133D01*
X68174465Y-92934890D01*
X68152666Y-92873503D01*
X68139210Y-92834875D01*
X68134778Y-92820957D01*
X68148280Y-92817679D01*
X68186357Y-92814727D01*
X68245361Y-92812218D01*
X68321643Y-92810274D01*
X68411558Y-92809013D01*
X68511457Y-92808556D01*
X68513318Y-92808555D01*
X68891859Y-92808555D01*
X69151007Y-93676389D01*
G36*
X63461676Y-91891589D02*
X63640332Y-91892343D01*
X63799896Y-91893571D01*
X63938872Y-91895252D01*
X64055765Y-91897362D01*
X64149080Y-91899879D01*
X64217321Y-91902780D01*
X64258993Y-91906043D01*
X64261745Y-91906402D01*
X64451165Y-91943148D01*
X64621604Y-91997786D01*
X64772042Y-92069775D01*
X64901460Y-92158573D01*
X65008837Y-92263638D01*
X65059625Y-92330353D01*
X65129242Y-92449783D01*
X65179771Y-92576801D01*
X65212447Y-92716031D01*
X65228504Y-92872097D01*
X65230692Y-92970833D01*
X65220213Y-93165304D01*
X65189600Y-93340234D01*
X65138561Y-93496154D01*
X65066803Y-93633594D01*
X64974031Y-93753085D01*
X64859954Y-93855159D01*
X64724277Y-93940346D01*
X64683763Y-93960586D01*
X64606018Y-93994853D01*
X64526993Y-94023610D01*
X64443496Y-94047281D01*
X64352336Y-94066293D01*
X64250320Y-94081070D01*
X64134257Y-94092037D01*
X64000953Y-94099619D01*
X63847217Y-94104242D01*
X63669857Y-94106331D01*
X63587629Y-94106554D01*
X63196202Y-94106778D01*
X63192517Y-94688861D01*
X63188833Y-95270944D01*
X62783139Y-95274688D01*
X62377444Y-95278433D01*
X62377444Y-93445442D01*
X63195889Y-93445442D01*
X63615694Y-93440653D01*
X63736656Y-93439164D01*
X63832980Y-93437593D01*
X63908250Y-93435682D01*
X63966051Y-93433171D01*
X64009966Y-93429801D01*
X64043581Y-93425313D01*
X64070478Y-93419450D01*
X64094242Y-93411950D01*
X64113111Y-93404718D01*
X64206386Y-93356397D01*
X64277721Y-93293714D01*
X64331337Y-93212895D01*
X64334311Y-93206922D01*
X64353508Y-93164363D01*
X64365278Y-93126396D01*
X64371346Y-93083573D01*
X64373434Y-93026447D01*
X64373532Y-92992015D01*
X64365883Y-92879802D01*
X64342734Y-92788872D01*
X64302867Y-92716173D01*
X64245066Y-92658646D01*
X64239030Y-92654173D01*
X64204942Y-92630805D01*
X64171509Y-92611881D01*
X64135272Y-92596868D01*
X64092769Y-92585232D01*
X64040541Y-92576442D01*
X63975127Y-92569964D01*
X63893065Y-92565266D01*
X63790897Y-92561814D01*
X63665160Y-92559076D01*
X63615694Y-92558201D01*
X63195889Y-92551040D01*
X63195889Y-93445442D01*
X62377444Y-93445442D01*
X62377444Y-91891333D01*
X63265423Y-91891333D01*
X63461676Y-91891589D01*
X63461676Y-91891589D01*
G37*
X63461676Y-91891589D02*
X63640332Y-91892343D01*
X63799896Y-91893571D01*
X63938872Y-91895252D01*
X64055765Y-91897362D01*
X64149080Y-91899879D01*
X64217321Y-91902780D01*
X64258993Y-91906043D01*
X64261745Y-91906402D01*
X64451165Y-91943148D01*
X64621604Y-91997786D01*
X64772042Y-92069775D01*
X64901460Y-92158573D01*
X65008837Y-92263638D01*
X65059625Y-92330353D01*
X65129242Y-92449783D01*
X65179771Y-92576801D01*
X65212447Y-92716031D01*
X65228504Y-92872097D01*
X65230692Y-92970833D01*
X65220213Y-93165304D01*
X65189600Y-93340234D01*
X65138561Y-93496154D01*
X65066803Y-93633594D01*
X64974031Y-93753085D01*
X64859954Y-93855159D01*
X64724277Y-93940346D01*
X64683763Y-93960586D01*
X64606018Y-93994853D01*
X64526993Y-94023610D01*
X64443496Y-94047281D01*
X64352336Y-94066293D01*
X64250320Y-94081070D01*
X64134257Y-94092037D01*
X64000953Y-94099619D01*
X63847217Y-94104242D01*
X63669857Y-94106331D01*
X63587629Y-94106554D01*
X63196202Y-94106778D01*
X63192517Y-94688861D01*
X63188833Y-95270944D01*
X62783139Y-95274688D01*
X62377444Y-95278433D01*
X62377444Y-93445442D01*
X63195889Y-93445442D01*
X63615694Y-93440653D01*
X63736656Y-93439164D01*
X63832980Y-93437593D01*
X63908250Y-93435682D01*
X63966051Y-93433171D01*
X64009966Y-93429801D01*
X64043581Y-93425313D01*
X64070478Y-93419450D01*
X64094242Y-93411950D01*
X64113111Y-93404718D01*
X64206386Y-93356397D01*
X64277721Y-93293714D01*
X64331337Y-93212895D01*
X64334311Y-93206922D01*
X64353508Y-93164363D01*
X64365278Y-93126396D01*
X64371346Y-93083573D01*
X64373434Y-93026447D01*
X64373532Y-92992015D01*
X64365883Y-92879802D01*
X64342734Y-92788872D01*
X64302867Y-92716173D01*
X64245066Y-92658646D01*
X64239030Y-92654173D01*
X64204942Y-92630805D01*
X64171509Y-92611881D01*
X64135272Y-92596868D01*
X64092769Y-92585232D01*
X64040541Y-92576442D01*
X63975127Y-92569964D01*
X63893065Y-92565266D01*
X63790897Y-92561814D01*
X63665160Y-92559076D01*
X63615694Y-92558201D01*
X63195889Y-92551040D01*
X63195889Y-93445442D01*
X62377444Y-93445442D01*
X62377444Y-91891333D01*
X63265423Y-91891333D01*
X63461676Y-91891589D01*
G36*
X57876000Y-95278000D02*
X57511463Y-95278000D01*
X57412747Y-95277650D01*
X57323452Y-95276664D01*
X57247425Y-95275139D01*
X57188510Y-95273172D01*
X57150553Y-95270859D01*
X57137518Y-95268592D01*
X57136314Y-95253548D01*
X57135154Y-95212024D01*
X57134049Y-95145762D01*
X57133007Y-95056505D01*
X57132040Y-94945995D01*
X57131156Y-94815974D01*
X57130365Y-94668185D01*
X57129677Y-94504370D01*
X57129102Y-94326272D01*
X57128649Y-94135632D01*
X57128327Y-93934193D01*
X57128147Y-93723697D01*
X57128111Y-93575259D01*
X57128111Y-91891333D01*
X57876000Y-91891333D01*
X57876000Y-95278000D01*
X57876000Y-95278000D01*
G37*
X57876000Y-95278000D02*
X57511463Y-95278000D01*
X57412747Y-95277650D01*
X57323452Y-95276664D01*
X57247425Y-95275139D01*
X57188510Y-95273172D01*
X57150553Y-95270859D01*
X57137518Y-95268592D01*
X57136314Y-95253548D01*
X57135154Y-95212024D01*
X57134049Y-95145762D01*
X57133007Y-95056505D01*
X57132040Y-94945995D01*
X57131156Y-94815974D01*
X57130365Y-94668185D01*
X57129677Y-94504370D01*
X57129102Y-94326272D01*
X57128649Y-94135632D01*
X57128327Y-93934193D01*
X57128147Y-93723697D01*
X57128111Y-93575259D01*
X57128111Y-91891333D01*
X57876000Y-91891333D01*
X57876000Y-95278000D01*
G36*
X72549357Y-92733479D02*
X72741033Y-92771947D01*
X72906371Y-92824758D01*
X73065592Y-92900220D01*
X73209144Y-92998422D01*
X73335380Y-93117611D01*
X73442656Y-93256035D01*
X73529324Y-93411941D01*
X73581021Y-93542924D01*
X73620876Y-93698931D01*
X73643663Y-93869567D01*
X73649580Y-94047694D01*
X73638828Y-94226175D01*
X73611603Y-94397873D01*
X73568105Y-94555651D01*
X73551591Y-94600011D01*
X73471682Y-94764345D01*
X73370557Y-94910242D01*
X73248754Y-95037246D01*
X73106809Y-95144902D01*
X72945259Y-95232751D01*
X72764644Y-95300339D01*
X72708455Y-95316168D01*
X72649194Y-95330553D01*
X72593787Y-95340846D01*
X72534874Y-95347839D01*
X72465094Y-95352325D01*
X72377086Y-95355095D01*
X72339889Y-95355819D01*
X72257672Y-95356822D01*
X72181813Y-95356965D01*
X72118369Y-95356295D01*
X72073399Y-95354858D01*
X72057667Y-95353630D01*
X71894049Y-95321729D01*
X71732840Y-95268991D01*
X71579743Y-95198162D01*
X71440462Y-95111986D01*
X71320703Y-95013209D01*
X71293641Y-94985985D01*
X71188411Y-94859475D01*
X71104372Y-94722452D01*
X71040523Y-94572239D01*
X70995861Y-94406159D01*
X70969383Y-94221533D01*
X70961771Y-94099722D01*
X70963451Y-93984681D01*
X71720696Y-93984681D01*
X71723507Y-94135270D01*
X71739822Y-94279958D01*
X71768763Y-94414327D01*
X71809454Y-94533957D01*
X71861020Y-94634430D01*
X71902300Y-94690069D01*
X71984311Y-94762669D01*
X72082839Y-94814743D01*
X72193903Y-94845162D01*
X72313522Y-94852798D01*
X72427389Y-94838800D01*
X72541036Y-94801528D01*
X72638366Y-94741673D01*
X72686641Y-94697104D01*
X72732327Y-94645545D01*
X72765587Y-94598801D01*
X72792097Y-94547055D01*
X72817534Y-94480489D01*
X72825613Y-94456734D01*
X72858801Y-94328325D01*
X72878683Y-94186325D01*
X72885488Y-94037427D01*
X72879443Y-93888324D01*
X72860776Y-93745712D01*
X72829714Y-93616285D01*
X72793824Y-93521825D01*
X72743578Y-93431645D01*
X72685026Y-93362811D01*
X72611673Y-93308505D01*
X72568284Y-93285095D01*
X72527881Y-93265834D01*
X72494518Y-93252846D01*
X72460963Y-93244897D01*
X72419985Y-93240753D01*
X72364354Y-93239181D01*
X72297852Y-93238944D01*
X72219492Y-93239626D01*
X72162642Y-93242228D01*
X72120611Y-93247583D01*
X72086708Y-93256527D01*
X72055939Y-93269104D01*
X71963810Y-93324195D01*
X71887642Y-93397666D01*
X71826522Y-93491109D01*
X71779537Y-93606117D01*
X71745770Y-93744279D01*
X71732263Y-93832610D01*
X71720696Y-93984681D01*
X70963451Y-93984681D01*
X70964900Y-93885567D01*
X70990217Y-93687762D01*
X71037558Y-93506681D01*
X71106762Y-93342695D01*
X71197667Y-93196178D01*
X71310109Y-93067500D01*
X71443926Y-92957035D01*
X71467177Y-92941163D01*
X71619639Y-92855951D01*
X71788548Y-92790550D01*
X71969938Y-92745282D01*
X72159846Y-92720467D01*
X72354307Y-92716426D01*
X72549357Y-92733479D01*
X72549357Y-92733479D01*
G37*
X72549357Y-92733479D02*
X72741033Y-92771947D01*
X72906371Y-92824758D01*
X73065592Y-92900220D01*
X73209144Y-92998422D01*
X73335380Y-93117611D01*
X73442656Y-93256035D01*
X73529324Y-93411941D01*
X73581021Y-93542924D01*
X73620876Y-93698931D01*
X73643663Y-93869567D01*
X73649580Y-94047694D01*
X73638828Y-94226175D01*
X73611603Y-94397873D01*
X73568105Y-94555651D01*
X73551591Y-94600011D01*
X73471682Y-94764345D01*
X73370557Y-94910242D01*
X73248754Y-95037246D01*
X73106809Y-95144902D01*
X72945259Y-95232751D01*
X72764644Y-95300339D01*
X72708455Y-95316168D01*
X72649194Y-95330553D01*
X72593787Y-95340846D01*
X72534874Y-95347839D01*
X72465094Y-95352325D01*
X72377086Y-95355095D01*
X72339889Y-95355819D01*
X72257672Y-95356822D01*
X72181813Y-95356965D01*
X72118369Y-95356295D01*
X72073399Y-95354858D01*
X72057667Y-95353630D01*
X71894049Y-95321729D01*
X71732840Y-95268991D01*
X71579743Y-95198162D01*
X71440462Y-95111986D01*
X71320703Y-95013209D01*
X71293641Y-94985985D01*
X71188411Y-94859475D01*
X71104372Y-94722452D01*
X71040523Y-94572239D01*
X70995861Y-94406159D01*
X70969383Y-94221533D01*
X70961771Y-94099722D01*
X70963451Y-93984681D01*
X71720696Y-93984681D01*
X71723507Y-94135270D01*
X71739822Y-94279958D01*
X71768763Y-94414327D01*
X71809454Y-94533957D01*
X71861020Y-94634430D01*
X71902300Y-94690069D01*
X71984311Y-94762669D01*
X72082839Y-94814743D01*
X72193903Y-94845162D01*
X72313522Y-94852798D01*
X72427389Y-94838800D01*
X72541036Y-94801528D01*
X72638366Y-94741673D01*
X72686641Y-94697104D01*
X72732327Y-94645545D01*
X72765587Y-94598801D01*
X72792097Y-94547055D01*
X72817534Y-94480489D01*
X72825613Y-94456734D01*
X72858801Y-94328325D01*
X72878683Y-94186325D01*
X72885488Y-94037427D01*
X72879443Y-93888324D01*
X72860776Y-93745712D01*
X72829714Y-93616285D01*
X72793824Y-93521825D01*
X72743578Y-93431645D01*
X72685026Y-93362811D01*
X72611673Y-93308505D01*
X72568284Y-93285095D01*
X72527881Y-93265834D01*
X72494518Y-93252846D01*
X72460963Y-93244897D01*
X72419985Y-93240753D01*
X72364354Y-93239181D01*
X72297852Y-93238944D01*
X72219492Y-93239626D01*
X72162642Y-93242228D01*
X72120611Y-93247583D01*
X72086708Y-93256527D01*
X72055939Y-93269104D01*
X71963810Y-93324195D01*
X71887642Y-93397666D01*
X71826522Y-93491109D01*
X71779537Y-93606117D01*
X71745770Y-93744279D01*
X71732263Y-93832610D01*
X71720696Y-93984681D01*
X70963451Y-93984681D01*
X70964900Y-93885567D01*
X70990217Y-93687762D01*
X71037558Y-93506681D01*
X71106762Y-93342695D01*
X71197667Y-93196178D01*
X71310109Y-93067500D01*
X71443926Y-92957035D01*
X71467177Y-92941163D01*
X71619639Y-92855951D01*
X71788548Y-92790550D01*
X71969938Y-92745282D01*
X72159846Y-92720467D01*
X72354307Y-92716426D01*
X72549357Y-92733479D01*
G36*
X66858611Y-92717821D02*
X66979190Y-92727349D01*
X67095706Y-92741611D01*
X67197964Y-92759725D01*
X67229093Y-92766961D01*
X67369240Y-92812833D01*
X67497166Y-92875622D01*
X67609078Y-92952704D01*
X67701182Y-93041454D01*
X67769683Y-93139248D01*
X67771185Y-93142017D01*
X67787762Y-93173424D01*
X67801980Y-93203003D01*
X67814030Y-93233119D01*
X67824102Y-93266137D01*
X67832386Y-93304422D01*
X67839074Y-93350340D01*
X67844354Y-93406255D01*
X67848419Y-93474533D01*
X67851458Y-93557539D01*
X67853661Y-93657639D01*
X67855219Y-93777197D01*
X67856323Y-93918579D01*
X67857162Y-94084151D01*
X67857698Y-94216729D01*
X67858594Y-94405517D01*
X67859737Y-94567717D01*
X67861167Y-94704966D01*
X67862921Y-94818897D01*
X67865040Y-94911145D01*
X67867561Y-94983345D01*
X67870522Y-95037132D01*
X67873964Y-95074140D01*
X67877924Y-95096004D01*
X67878535Y-95097990D01*
X67901525Y-95141364D01*
X67936240Y-95182210D01*
X67944915Y-95189713D01*
X67974888Y-95218881D01*
X67992073Y-95245781D01*
X67993666Y-95253305D01*
X67991954Y-95260689D01*
X67984746Y-95266441D01*
X67968935Y-95270763D01*
X67941413Y-95273857D01*
X67899072Y-95275925D01*
X67838804Y-95277168D01*
X67757502Y-95277790D01*
X67652059Y-95277991D01*
X67613617Y-95278000D01*
X67499772Y-95277879D01*
X67410983Y-95277383D01*
X67344083Y-95276310D01*
X67295905Y-95274457D01*
X67263285Y-95271622D01*
X67243055Y-95267604D01*
X67232050Y-95262201D01*
X67227103Y-95255210D01*
X67226474Y-95253305D01*
X67200265Y-95162761D01*
X67180738Y-95097006D01*
X67167136Y-95053604D01*
X67158697Y-95030121D01*
X67154959Y-95024000D01*
X67143317Y-95033161D01*
X67116672Y-95057544D01*
X67080060Y-95092498D01*
X67066916Y-95105299D01*
X66962653Y-95189866D01*
X66838205Y-95261018D01*
X66699806Y-95315272D01*
X66681103Y-95320905D01*
X66624784Y-95335042D01*
X66564545Y-95344962D01*
X66493038Y-95351505D01*
X66402915Y-95355508D01*
X66370889Y-95356346D01*
X66295615Y-95357612D01*
X66228706Y-95357861D01*
X66176072Y-95357136D01*
X66143625Y-95355481D01*
X66138055Y-95354672D01*
X66108575Y-95348358D01*
X66063518Y-95339086D01*
X66032222Y-95332782D01*
X65897793Y-95292788D01*
X65779658Y-95231025D01*
X65679225Y-95149700D01*
X65597901Y-95051020D01*
X65537094Y-94937193D01*
X65498211Y-94810424D01*
X65482659Y-94672922D01*
X65489373Y-94566179D01*
X66230234Y-94566179D01*
X66237475Y-94638100D01*
X66256036Y-94699757D01*
X66269965Y-94724653D01*
X66322307Y-94775402D01*
X66394765Y-94813456D01*
X66481815Y-94837910D01*
X66577931Y-94847860D01*
X66677590Y-94842403D01*
X66775266Y-94820634D01*
X66801278Y-94811580D01*
X66863782Y-94781807D01*
X66922973Y-94739062D01*
X66971846Y-94693624D01*
X67028605Y-94631084D01*
X67070108Y-94569552D01*
X67098755Y-94502598D01*
X67116949Y-94423792D01*
X67127090Y-94326703D01*
X67129848Y-94270479D01*
X67132198Y-94199620D01*
X67132716Y-94152595D01*
X67130845Y-94125045D01*
X67126024Y-94112610D01*
X67117695Y-94110930D01*
X67109743Y-94113708D01*
X67010167Y-94152367D01*
X66906735Y-94184634D01*
X66790638Y-94213013D01*
X66687698Y-94233674D01*
X66607516Y-94249873D01*
X66531657Y-94267431D01*
X66467083Y-94284579D01*
X66420755Y-94299551D01*
X66409417Y-94304287D01*
X66345755Y-94343656D01*
X66291068Y-94394986D01*
X66251825Y-94451173D01*
X66235911Y-94494784D01*
X66230234Y-94566179D01*
X65489373Y-94566179D01*
X65491845Y-94526893D01*
X65497316Y-94493897D01*
X65533011Y-94370558D01*
X65592289Y-94261169D01*
X65675538Y-94165359D01*
X65783148Y-94082754D01*
X65915507Y-94012985D01*
X66053389Y-93961711D01*
X66115667Y-93943363D01*
X66181930Y-93926609D01*
X66256447Y-93910643D01*
X66343488Y-93894662D01*
X66447321Y-93877861D01*
X66572218Y-93859435D01*
X66665286Y-93846403D01*
X66775615Y-93830856D01*
X66861800Y-93817666D01*
X66927720Y-93805842D01*
X66977251Y-93794393D01*
X67014274Y-93782329D01*
X67042667Y-93768660D01*
X67066309Y-93752394D01*
X67080525Y-93740354D01*
X67102106Y-93719920D01*
X67115446Y-93700882D01*
X67122526Y-93675970D01*
X67125327Y-93637912D01*
X67125833Y-93579439D01*
X67125833Y-93574134D01*
X67124994Y-93511376D01*
X67121161Y-93467772D01*
X67112356Y-93434273D01*
X67096603Y-93401831D01*
X67083374Y-93379722D01*
X67039231Y-93322254D01*
X66985616Y-93281074D01*
X66917684Y-93253965D01*
X66830587Y-93238708D01*
X66765567Y-93234257D01*
X66656928Y-93234758D01*
X66568779Y-93247019D01*
X66495289Y-93272617D01*
X66430628Y-93313126D01*
X66409775Y-93330438D01*
X66350191Y-93400165D01*
X66312672Y-93482357D01*
X66300333Y-93566014D01*
X66300333Y-93612889D01*
X65591526Y-93612889D01*
X65601447Y-93533483D01*
X65633099Y-93372323D01*
X65685684Y-93229188D01*
X65759451Y-93103881D01*
X65854650Y-92996207D01*
X65971531Y-92905971D01*
X66110345Y-92832978D01*
X66271342Y-92777030D01*
X66454771Y-92737934D01*
X66646055Y-92716501D01*
X66744168Y-92713911D01*
X66858611Y-92717821D01*
X66858611Y-92717821D01*
G37*
X66858611Y-92717821D02*
X66979190Y-92727349D01*
X67095706Y-92741611D01*
X67197964Y-92759725D01*
X67229093Y-92766961D01*
X67369240Y-92812833D01*
X67497166Y-92875622D01*
X67609078Y-92952704D01*
X67701182Y-93041454D01*
X67769683Y-93139248D01*
X67771185Y-93142017D01*
X67787762Y-93173424D01*
X67801980Y-93203003D01*
X67814030Y-93233119D01*
X67824102Y-93266137D01*
X67832386Y-93304422D01*
X67839074Y-93350340D01*
X67844354Y-93406255D01*
X67848419Y-93474533D01*
X67851458Y-93557539D01*
X67853661Y-93657639D01*
X67855219Y-93777197D01*
X67856323Y-93918579D01*
X67857162Y-94084151D01*
X67857698Y-94216729D01*
X67858594Y-94405517D01*
X67859737Y-94567717D01*
X67861167Y-94704966D01*
X67862921Y-94818897D01*
X67865040Y-94911145D01*
X67867561Y-94983345D01*
X67870522Y-95037132D01*
X67873964Y-95074140D01*
X67877924Y-95096004D01*
X67878535Y-95097990D01*
X67901525Y-95141364D01*
X67936240Y-95182210D01*
X67944915Y-95189713D01*
X67974888Y-95218881D01*
X67992073Y-95245781D01*
X67993666Y-95253305D01*
X67991954Y-95260689D01*
X67984746Y-95266441D01*
X67968935Y-95270763D01*
X67941413Y-95273857D01*
X67899072Y-95275925D01*
X67838804Y-95277168D01*
X67757502Y-95277790D01*
X67652059Y-95277991D01*
X67613617Y-95278000D01*
X67499772Y-95277879D01*
X67410983Y-95277383D01*
X67344083Y-95276310D01*
X67295905Y-95274457D01*
X67263285Y-95271622D01*
X67243055Y-95267604D01*
X67232050Y-95262201D01*
X67227103Y-95255210D01*
X67226474Y-95253305D01*
X67200265Y-95162761D01*
X67180738Y-95097006D01*
X67167136Y-95053604D01*
X67158697Y-95030121D01*
X67154959Y-95024000D01*
X67143317Y-95033161D01*
X67116672Y-95057544D01*
X67080060Y-95092498D01*
X67066916Y-95105299D01*
X66962653Y-95189866D01*
X66838205Y-95261018D01*
X66699806Y-95315272D01*
X66681103Y-95320905D01*
X66624784Y-95335042D01*
X66564545Y-95344962D01*
X66493038Y-95351505D01*
X66402915Y-95355508D01*
X66370889Y-95356346D01*
X66295615Y-95357612D01*
X66228706Y-95357861D01*
X66176072Y-95357136D01*
X66143625Y-95355481D01*
X66138055Y-95354672D01*
X66108575Y-95348358D01*
X66063518Y-95339086D01*
X66032222Y-95332782D01*
X65897793Y-95292788D01*
X65779658Y-95231025D01*
X65679225Y-95149700D01*
X65597901Y-95051020D01*
X65537094Y-94937193D01*
X65498211Y-94810424D01*
X65482659Y-94672922D01*
X65489373Y-94566179D01*
X66230234Y-94566179D01*
X66237475Y-94638100D01*
X66256036Y-94699757D01*
X66269965Y-94724653D01*
X66322307Y-94775402D01*
X66394765Y-94813456D01*
X66481815Y-94837910D01*
X66577931Y-94847860D01*
X66677590Y-94842403D01*
X66775266Y-94820634D01*
X66801278Y-94811580D01*
X66863782Y-94781807D01*
X66922973Y-94739062D01*
X66971846Y-94693624D01*
X67028605Y-94631084D01*
X67070108Y-94569552D01*
X67098755Y-94502598D01*
X67116949Y-94423792D01*
X67127090Y-94326703D01*
X67129848Y-94270479D01*
X67132198Y-94199620D01*
X67132716Y-94152595D01*
X67130845Y-94125045D01*
X67126024Y-94112610D01*
X67117695Y-94110930D01*
X67109743Y-94113708D01*
X67010167Y-94152367D01*
X66906735Y-94184634D01*
X66790638Y-94213013D01*
X66687698Y-94233674D01*
X66607516Y-94249873D01*
X66531657Y-94267431D01*
X66467083Y-94284579D01*
X66420755Y-94299551D01*
X66409417Y-94304287D01*
X66345755Y-94343656D01*
X66291068Y-94394986D01*
X66251825Y-94451173D01*
X66235911Y-94494784D01*
X66230234Y-94566179D01*
X65489373Y-94566179D01*
X65491845Y-94526893D01*
X65497316Y-94493897D01*
X65533011Y-94370558D01*
X65592289Y-94261169D01*
X65675538Y-94165359D01*
X65783148Y-94082754D01*
X65915507Y-94012985D01*
X66053389Y-93961711D01*
X66115667Y-93943363D01*
X66181930Y-93926609D01*
X66256447Y-93910643D01*
X66343488Y-93894662D01*
X66447321Y-93877861D01*
X66572218Y-93859435D01*
X66665286Y-93846403D01*
X66775615Y-93830856D01*
X66861800Y-93817666D01*
X66927720Y-93805842D01*
X66977251Y-93794393D01*
X67014274Y-93782329D01*
X67042667Y-93768660D01*
X67066309Y-93752394D01*
X67080525Y-93740354D01*
X67102106Y-93719920D01*
X67115446Y-93700882D01*
X67122526Y-93675970D01*
X67125327Y-93637912D01*
X67125833Y-93579439D01*
X67125833Y-93574134D01*
X67124994Y-93511376D01*
X67121161Y-93467772D01*
X67112356Y-93434273D01*
X67096603Y-93401831D01*
X67083374Y-93379722D01*
X67039231Y-93322254D01*
X66985616Y-93281074D01*
X66917684Y-93253965D01*
X66830587Y-93238708D01*
X66765567Y-93234257D01*
X66656928Y-93234758D01*
X66568779Y-93247019D01*
X66495289Y-93272617D01*
X66430628Y-93313126D01*
X66409775Y-93330438D01*
X66350191Y-93400165D01*
X66312672Y-93482357D01*
X66300333Y-93566014D01*
X66300333Y-93612889D01*
X65591526Y-93612889D01*
X65601447Y-93533483D01*
X65633099Y-93372323D01*
X65685684Y-93229188D01*
X65759451Y-93103881D01*
X65854650Y-92996207D01*
X65971531Y-92905971D01*
X66110345Y-92832978D01*
X66271342Y-92777030D01*
X66454771Y-92737934D01*
X66646055Y-92716501D01*
X66744168Y-92713911D01*
X66858611Y-92717821D01*
G36*
X59823596Y-92721836D02*
X59994621Y-92742967D01*
X60153773Y-92778806D01*
X60295164Y-92829366D01*
X60304429Y-92833542D01*
X60436284Y-92907112D01*
X60545020Y-92996734D01*
X60631076Y-93102916D01*
X60694889Y-93226169D01*
X60727065Y-93324827D01*
X60733192Y-93349561D01*
X60738372Y-93374173D01*
X60742676Y-93401122D01*
X60746173Y-93432870D01*
X60748931Y-93471877D01*
X60751022Y-93520602D01*
X60752513Y-93581507D01*
X60753474Y-93657053D01*
X60753976Y-93749698D01*
X60754086Y-93861905D01*
X60753874Y-93996132D01*
X60753411Y-94154842D01*
X60753093Y-94247889D01*
X60750250Y-95059278D01*
X60781559Y-95120411D01*
X60809397Y-95162665D01*
X60842412Y-95196694D01*
X60854514Y-95205077D01*
X60881692Y-95226657D01*
X60892435Y-95247905D01*
X60892253Y-95249778D01*
X60887697Y-95256176D01*
X60874668Y-95261273D01*
X60850189Y-95265259D01*
X60811283Y-95268323D01*
X60754972Y-95270656D01*
X60678279Y-95272448D01*
X60578225Y-95273887D01*
X60501455Y-95274703D01*
X60376557Y-95275546D01*
X60277858Y-95275338D01*
X60203353Y-95274014D01*
X60151036Y-95271511D01*
X60118902Y-95267764D01*
X60104944Y-95262709D01*
X60104402Y-95262023D01*
X60097525Y-95240953D01*
X60088469Y-95199958D01*
X60078962Y-95147062D01*
X60077007Y-95134791D01*
X60068151Y-95083131D01*
X60059936Y-95044322D01*
X60053821Y-95025010D01*
X60052712Y-95024000D01*
X60039915Y-95032987D01*
X60011838Y-95056969D01*
X59973637Y-95091479D01*
X59957180Y-95106761D01*
X59845946Y-95196434D01*
X59724368Y-95265501D01*
X59587497Y-95316318D01*
X59450325Y-95347836D01*
X59378237Y-95356250D01*
X59288117Y-95360399D01*
X59189811Y-95360416D01*
X59093166Y-95356433D01*
X59008027Y-95348583D01*
X58962555Y-95341273D01*
X58838922Y-95309717D01*
X58736279Y-95268507D01*
X58648105Y-95214281D01*
X58567879Y-95143678D01*
X58556639Y-95132009D01*
X58482333Y-95039540D01*
X58429756Y-94940231D01*
X58397158Y-94829206D01*
X58382788Y-94701595D01*
X58381751Y-94645190D01*
X58388177Y-94564777D01*
X59121783Y-94564777D01*
X59127332Y-94636971D01*
X59148154Y-94698467D01*
X59161437Y-94719091D01*
X59225255Y-94778322D01*
X59307200Y-94820373D01*
X59402361Y-94844363D01*
X59505823Y-94849411D01*
X59612674Y-94834633D01*
X59684392Y-94812949D01*
X59792649Y-94758274D01*
X59882305Y-94682501D01*
X59952733Y-94586290D01*
X59999860Y-94480722D01*
X60008479Y-94445500D01*
X60016743Y-94394731D01*
X60024154Y-94334546D01*
X60030211Y-94271073D01*
X60034415Y-94210444D01*
X60036269Y-94158786D01*
X60035271Y-94122231D01*
X60030924Y-94106906D01*
X60030310Y-94106778D01*
X60013930Y-94111609D01*
X59978346Y-94124413D01*
X59930545Y-94142652D01*
X59918950Y-94147194D01*
X59858252Y-94169886D01*
X59800469Y-94188335D01*
X59738353Y-94204356D01*
X59664656Y-94219764D01*
X59572128Y-94236373D01*
X59543462Y-94241218D01*
X59415708Y-94268334D01*
X59313519Y-94303160D01*
X59235010Y-94346848D01*
X59178299Y-94400546D01*
X59141500Y-94465404D01*
X59132753Y-94491747D01*
X59121783Y-94564777D01*
X58388177Y-94564777D01*
X58393211Y-94501794D01*
X58426746Y-94375577D01*
X58482869Y-94265506D01*
X58562093Y-94170550D01*
X58654609Y-94096465D01*
X58723701Y-94054093D01*
X58797876Y-94016897D01*
X58880500Y-93983923D01*
X58974939Y-93954212D01*
X59084558Y-93926808D01*
X59212722Y-93900755D01*
X59362798Y-93875095D01*
X59512889Y-93852479D01*
X59606940Y-93838405D01*
X59695746Y-93824084D01*
X59773991Y-93810452D01*
X59836358Y-93798448D01*
X59877532Y-93789008D01*
X59884430Y-93786987D01*
X59940180Y-93761767D01*
X59977238Y-93725364D01*
X59998394Y-93673040D01*
X60006436Y-93600060D01*
X60006725Y-93579248D01*
X59998498Y-93473153D01*
X59972933Y-93387754D01*
X59928891Y-93322086D01*
X59865236Y-93275189D01*
X59780828Y-93246097D01*
X59674530Y-93233850D01*
X59599041Y-93234214D01*
X59528969Y-93238237D01*
X59477375Y-93245067D01*
X59434522Y-93256795D01*
X59390675Y-93275513D01*
X59378153Y-93281662D01*
X59300955Y-93331619D01*
X59246067Y-93395053D01*
X59210300Y-93476292D01*
X59198494Y-93525445D01*
X59181876Y-93612889D01*
X58496889Y-93612889D01*
X58496889Y-93551646D01*
X58503628Y-93480263D01*
X58521873Y-93395033D01*
X58548670Y-93306345D01*
X58581061Y-93224586D01*
X58601530Y-93183928D01*
X58684657Y-93064305D01*
X58790497Y-92961423D01*
X58919059Y-92875274D01*
X58996490Y-92836361D01*
X59138547Y-92784141D01*
X59298175Y-92746566D01*
X59469485Y-92723648D01*
X59646588Y-92715400D01*
X59823596Y-92721836D01*
X59823596Y-92721836D01*
G37*
X59823596Y-92721836D02*
X59994621Y-92742967D01*
X60153773Y-92778806D01*
X60295164Y-92829366D01*
X60304429Y-92833542D01*
X60436284Y-92907112D01*
X60545020Y-92996734D01*
X60631076Y-93102916D01*
X60694889Y-93226169D01*
X60727065Y-93324827D01*
X60733192Y-93349561D01*
X60738372Y-93374173D01*
X60742676Y-93401122D01*
X60746173Y-93432870D01*
X60748931Y-93471877D01*
X60751022Y-93520602D01*
X60752513Y-93581507D01*
X60753474Y-93657053D01*
X60753976Y-93749698D01*
X60754086Y-93861905D01*
X60753874Y-93996132D01*
X60753411Y-94154842D01*
X60753093Y-94247889D01*
X60750250Y-95059278D01*
X60781559Y-95120411D01*
X60809397Y-95162665D01*
X60842412Y-95196694D01*
X60854514Y-95205077D01*
X60881692Y-95226657D01*
X60892435Y-95247905D01*
X60892253Y-95249778D01*
X60887697Y-95256176D01*
X60874668Y-95261273D01*
X60850189Y-95265259D01*
X60811283Y-95268323D01*
X60754972Y-95270656D01*
X60678279Y-95272448D01*
X60578225Y-95273887D01*
X60501455Y-95274703D01*
X60376557Y-95275546D01*
X60277858Y-95275338D01*
X60203353Y-95274014D01*
X60151036Y-95271511D01*
X60118902Y-95267764D01*
X60104944Y-95262709D01*
X60104402Y-95262023D01*
X60097525Y-95240953D01*
X60088469Y-95199958D01*
X60078962Y-95147062D01*
X60077007Y-95134791D01*
X60068151Y-95083131D01*
X60059936Y-95044322D01*
X60053821Y-95025010D01*
X60052712Y-95024000D01*
X60039915Y-95032987D01*
X60011838Y-95056969D01*
X59973637Y-95091479D01*
X59957180Y-95106761D01*
X59845946Y-95196434D01*
X59724368Y-95265501D01*
X59587497Y-95316318D01*
X59450325Y-95347836D01*
X59378237Y-95356250D01*
X59288117Y-95360399D01*
X59189811Y-95360416D01*
X59093166Y-95356433D01*
X59008027Y-95348583D01*
X58962555Y-95341273D01*
X58838922Y-95309717D01*
X58736279Y-95268507D01*
X58648105Y-95214281D01*
X58567879Y-95143678D01*
X58556639Y-95132009D01*
X58482333Y-95039540D01*
X58429756Y-94940231D01*
X58397158Y-94829206D01*
X58382788Y-94701595D01*
X58381751Y-94645190D01*
X58388177Y-94564777D01*
X59121783Y-94564777D01*
X59127332Y-94636971D01*
X59148154Y-94698467D01*
X59161437Y-94719091D01*
X59225255Y-94778322D01*
X59307200Y-94820373D01*
X59402361Y-94844363D01*
X59505823Y-94849411D01*
X59612674Y-94834633D01*
X59684392Y-94812949D01*
X59792649Y-94758274D01*
X59882305Y-94682501D01*
X59952733Y-94586290D01*
X59999860Y-94480722D01*
X60008479Y-94445500D01*
X60016743Y-94394731D01*
X60024154Y-94334546D01*
X60030211Y-94271073D01*
X60034415Y-94210444D01*
X60036269Y-94158786D01*
X60035271Y-94122231D01*
X60030924Y-94106906D01*
X60030310Y-94106778D01*
X60013930Y-94111609D01*
X59978346Y-94124413D01*
X59930545Y-94142652D01*
X59918950Y-94147194D01*
X59858252Y-94169886D01*
X59800469Y-94188335D01*
X59738353Y-94204356D01*
X59664656Y-94219764D01*
X59572128Y-94236373D01*
X59543462Y-94241218D01*
X59415708Y-94268334D01*
X59313519Y-94303160D01*
X59235010Y-94346848D01*
X59178299Y-94400546D01*
X59141500Y-94465404D01*
X59132753Y-94491747D01*
X59121783Y-94564777D01*
X58388177Y-94564777D01*
X58393211Y-94501794D01*
X58426746Y-94375577D01*
X58482869Y-94265506D01*
X58562093Y-94170550D01*
X58654609Y-94096465D01*
X58723701Y-94054093D01*
X58797876Y-94016897D01*
X58880500Y-93983923D01*
X58974939Y-93954212D01*
X59084558Y-93926808D01*
X59212722Y-93900755D01*
X59362798Y-93875095D01*
X59512889Y-93852479D01*
X59606940Y-93838405D01*
X59695746Y-93824084D01*
X59773991Y-93810452D01*
X59836358Y-93798448D01*
X59877532Y-93789008D01*
X59884430Y-93786987D01*
X59940180Y-93761767D01*
X59977238Y-93725364D01*
X59998394Y-93673040D01*
X60006436Y-93600060D01*
X60006725Y-93579248D01*
X59998498Y-93473153D01*
X59972933Y-93387754D01*
X59928891Y-93322086D01*
X59865236Y-93275189D01*
X59780828Y-93246097D01*
X59674530Y-93233850D01*
X59599041Y-93234214D01*
X59528969Y-93238237D01*
X59477375Y-93245067D01*
X59434522Y-93256795D01*
X59390675Y-93275513D01*
X59378153Y-93281662D01*
X59300955Y-93331619D01*
X59246067Y-93395053D01*
X59210300Y-93476292D01*
X59198494Y-93525445D01*
X59181876Y-93612889D01*
X58496889Y-93612889D01*
X58496889Y-93551646D01*
X58503628Y-93480263D01*
X58521873Y-93395033D01*
X58548670Y-93306345D01*
X58581061Y-93224586D01*
X58601530Y-93183928D01*
X58684657Y-93064305D01*
X58790497Y-92961423D01*
X58919059Y-92875274D01*
X58996490Y-92836361D01*
X59138547Y-92784141D01*
X59298175Y-92746566D01*
X59469485Y-92723648D01*
X59646588Y-92715400D01*
X59823596Y-92721836D01*
G36*
X80319722Y-96216389D02*
X65753087Y-96219923D01*
X64955865Y-96220111D01*
X64186428Y-96220280D01*
X63444341Y-96220430D01*
X62729168Y-96220560D01*
X62040472Y-96220670D01*
X61377817Y-96220760D01*
X60740767Y-96220829D01*
X60128886Y-96220877D01*
X59541737Y-96220903D01*
X58978884Y-96220907D01*
X58439891Y-96220888D01*
X57924322Y-96220847D01*
X57431740Y-96220782D01*
X56961710Y-96220693D01*
X56513795Y-96220580D01*
X56087558Y-96220443D01*
X55682564Y-96220280D01*
X55298377Y-96220092D01*
X54934559Y-96219878D01*
X54590676Y-96219638D01*
X54266290Y-96219371D01*
X53960965Y-96219077D01*
X53674266Y-96218755D01*
X53405756Y-96218406D01*
X53154999Y-96218027D01*
X52921558Y-96217620D01*
X52704997Y-96217184D01*
X52504881Y-96216718D01*
X52320772Y-96216222D01*
X52152235Y-96215695D01*
X51998834Y-96215138D01*
X51860131Y-96214549D01*
X51735692Y-96213928D01*
X51625079Y-96213275D01*
X51527857Y-96212589D01*
X51443589Y-96211870D01*
X51371839Y-96211118D01*
X51312171Y-96210332D01*
X51264149Y-96209511D01*
X51227336Y-96208656D01*
X51201296Y-96207765D01*
X51185593Y-96206839D01*
X51179791Y-96205877D01*
X51179745Y-96205812D01*
X51179083Y-96190119D01*
X51178477Y-96147580D01*
X51177926Y-96079573D01*
X51177434Y-95987475D01*
X51177002Y-95872664D01*
X51176631Y-95736516D01*
X51176323Y-95580409D01*
X51176079Y-95405719D01*
X51175901Y-95213823D01*
X51175790Y-95006100D01*
X51175749Y-94783925D01*
X51175778Y-94548677D01*
X51175880Y-94301731D01*
X51176055Y-94044466D01*
X51176306Y-93778258D01*
X51176633Y-93504484D01*
X51176658Y-93485889D01*
X51179720Y-91199889D01*
X51596555Y-91199889D01*
X51596555Y-95800111D01*
X79917555Y-95800111D01*
X79917555Y-91199889D01*
X51596555Y-91199889D01*
X51179720Y-91199889D01*
X51180278Y-90783611D01*
X80319722Y-90783611D01*
X80319722Y-96216389D01*
X80319722Y-96216389D01*
G37*
X80319722Y-96216389D02*
X65753087Y-96219923D01*
X64955865Y-96220111D01*
X64186428Y-96220280D01*
X63444341Y-96220430D01*
X62729168Y-96220560D01*
X62040472Y-96220670D01*
X61377817Y-96220760D01*
X60740767Y-96220829D01*
X60128886Y-96220877D01*
X59541737Y-96220903D01*
X58978884Y-96220907D01*
X58439891Y-96220888D01*
X57924322Y-96220847D01*
X57431740Y-96220782D01*
X56961710Y-96220693D01*
X56513795Y-96220580D01*
X56087558Y-96220443D01*
X55682564Y-96220280D01*
X55298377Y-96220092D01*
X54934559Y-96219878D01*
X54590676Y-96219638D01*
X54266290Y-96219371D01*
X53960965Y-96219077D01*
X53674266Y-96218755D01*
X53405756Y-96218406D01*
X53154999Y-96218027D01*
X52921558Y-96217620D01*
X52704997Y-96217184D01*
X52504881Y-96216718D01*
X52320772Y-96216222D01*
X52152235Y-96215695D01*
X51998834Y-96215138D01*
X51860131Y-96214549D01*
X51735692Y-96213928D01*
X51625079Y-96213275D01*
X51527857Y-96212589D01*
X51443589Y-96211870D01*
X51371839Y-96211118D01*
X51312171Y-96210332D01*
X51264149Y-96209511D01*
X51227336Y-96208656D01*
X51201296Y-96207765D01*
X51185593Y-96206839D01*
X51179791Y-96205877D01*
X51179745Y-96205812D01*
X51179083Y-96190119D01*
X51178477Y-96147580D01*
X51177926Y-96079573D01*
X51177434Y-95987475D01*
X51177002Y-95872664D01*
X51176631Y-95736516D01*
X51176323Y-95580409D01*
X51176079Y-95405719D01*
X51175901Y-95213823D01*
X51175790Y-95006100D01*
X51175749Y-94783925D01*
X51175778Y-94548677D01*
X51175880Y-94301731D01*
X51176055Y-94044466D01*
X51176306Y-93778258D01*
X51176633Y-93504484D01*
X51176658Y-93485889D01*
X51179720Y-91199889D01*
X51596555Y-91199889D01*
X51596555Y-95800111D01*
X79917555Y-95800111D01*
X79917555Y-91199889D01*
X51596555Y-91199889D01*
X51179720Y-91199889D01*
X51180278Y-90783611D01*
X80319722Y-90783611D01*
X80319722Y-96216389D01*
G04 #@! TO.C,U3*
D11*
X96488095Y-129702380D02*
X96488095Y-130511904D01*
X96535714Y-130607142D01*
X96583333Y-130654761D01*
X96678571Y-130702380D01*
X96869047Y-130702380D01*
X96964285Y-130654761D01*
X97011904Y-130607142D01*
X97059523Y-130511904D01*
X97059523Y-129702380D01*
X97440476Y-129702380D02*
X98059523Y-129702380D01*
X97726190Y-130083333D01*
X97869047Y-130083333D01*
X97964285Y-130130952D01*
X98011904Y-130178571D01*
X98059523Y-130273809D01*
X98059523Y-130511904D01*
X98011904Y-130607142D01*
X97964285Y-130654761D01*
X97869047Y-130702380D01*
X97583333Y-130702380D01*
X97488095Y-130654761D01*
X97440476Y-130607142D01*
X77479523Y-125702380D02*
X77003333Y-125702380D01*
X77003333Y-124702380D01*
X76884285Y-110462380D02*
X76884285Y-109462380D01*
X77455714Y-110462380D01*
X77455714Y-109462380D01*
X114794047Y-117701428D02*
X115555952Y-117701428D01*
X115175000Y-118082380D02*
X115175000Y-117320476D01*
X116651190Y-117082380D02*
X116984523Y-118082380D01*
X117317857Y-117082380D01*
X117794047Y-118082380D02*
X117698809Y-118034761D01*
X117651190Y-117987142D01*
X117603571Y-117891904D01*
X117603571Y-117606190D01*
X117651190Y-117510952D01*
X117698809Y-117463333D01*
X117794047Y-117415714D01*
X117936904Y-117415714D01*
X118032142Y-117463333D01*
X118079761Y-117510952D01*
X118127380Y-117606190D01*
X118127380Y-117891904D01*
X118079761Y-117987142D01*
X118032142Y-118034761D01*
X117936904Y-118082380D01*
X117794047Y-118082380D01*
X118984523Y-117415714D02*
X118984523Y-118082380D01*
X118555952Y-117415714D02*
X118555952Y-117939523D01*
X118603571Y-118034761D01*
X118698809Y-118082380D01*
X118841666Y-118082380D01*
X118936904Y-118034761D01*
X118984523Y-117987142D01*
X119317857Y-117415714D02*
X119698809Y-117415714D01*
X119460714Y-117082380D02*
X119460714Y-117939523D01*
X119508333Y-118034761D01*
X119603571Y-118082380D01*
X119698809Y-118082380D01*
X114794047Y-110081428D02*
X115555952Y-110081428D01*
X116651190Y-109462380D02*
X116984523Y-110462380D01*
X117317857Y-109462380D01*
X117794047Y-110462380D02*
X117698809Y-110414761D01*
X117651190Y-110367142D01*
X117603571Y-110271904D01*
X117603571Y-109986190D01*
X117651190Y-109890952D01*
X117698809Y-109843333D01*
X117794047Y-109795714D01*
X117936904Y-109795714D01*
X118032142Y-109843333D01*
X118079761Y-109890952D01*
X118127380Y-109986190D01*
X118127380Y-110271904D01*
X118079761Y-110367142D01*
X118032142Y-110414761D01*
X117936904Y-110462380D01*
X117794047Y-110462380D01*
X118984523Y-109795714D02*
X118984523Y-110462380D01*
X118555952Y-109795714D02*
X118555952Y-110319523D01*
X118603571Y-110414761D01*
X118698809Y-110462380D01*
X118841666Y-110462380D01*
X118936904Y-110414761D01*
X118984523Y-110367142D01*
X119317857Y-109795714D02*
X119698809Y-109795714D01*
X119460714Y-109462380D02*
X119460714Y-110319523D01*
X119508333Y-110414761D01*
X119603571Y-110462380D01*
X119698809Y-110462380D01*
D10*
G04 #@! TO.C,C1*
D11*
X71107142Y-79166666D02*
X71154761Y-79214285D01*
X71202380Y-79357142D01*
X71202380Y-79452380D01*
X71154761Y-79595238D01*
X71059523Y-79690476D01*
X70964285Y-79738095D01*
X70773809Y-79785714D01*
X70630952Y-79785714D01*
X70440476Y-79738095D01*
X70345238Y-79690476D01*
X70250000Y-79595238D01*
X70202380Y-79452380D01*
X70202380Y-79357142D01*
X70250000Y-79214285D01*
X70297619Y-79166666D01*
X71202380Y-78214285D02*
X71202380Y-78785714D01*
X71202380Y-78500000D02*
X70202380Y-78500000D01*
X70345238Y-78595238D01*
X70440476Y-78690476D01*
X70488095Y-78785714D01*
G04 #@! TO.C,C2*
X65107142Y-79166666D02*
X65154761Y-79214285D01*
X65202380Y-79357142D01*
X65202380Y-79452380D01*
X65154761Y-79595238D01*
X65059523Y-79690476D01*
X64964285Y-79738095D01*
X64773809Y-79785714D01*
X64630952Y-79785714D01*
X64440476Y-79738095D01*
X64345238Y-79690476D01*
X64250000Y-79595238D01*
X64202380Y-79452380D01*
X64202380Y-79357142D01*
X64250000Y-79214285D01*
X64297619Y-79166666D01*
X64297619Y-78785714D02*
X64250000Y-78738095D01*
X64202380Y-78642857D01*
X64202380Y-78404761D01*
X64250000Y-78309523D01*
X64297619Y-78261904D01*
X64392857Y-78214285D01*
X64488095Y-78214285D01*
X64630952Y-78261904D01*
X65202380Y-78833333D01*
X65202380Y-78214285D01*
G04 #@! TO.C,C3*
X59357142Y-79166666D02*
X59404761Y-79214285D01*
X59452380Y-79357142D01*
X59452380Y-79452380D01*
X59404761Y-79595238D01*
X59309523Y-79690476D01*
X59214285Y-79738095D01*
X59023809Y-79785714D01*
X58880952Y-79785714D01*
X58690476Y-79738095D01*
X58595238Y-79690476D01*
X58500000Y-79595238D01*
X58452380Y-79452380D01*
X58452380Y-79357142D01*
X58500000Y-79214285D01*
X58547619Y-79166666D01*
X58452380Y-78833333D02*
X58452380Y-78214285D01*
X58833333Y-78547619D01*
X58833333Y-78404761D01*
X58880952Y-78309523D01*
X58928571Y-78261904D01*
X59023809Y-78214285D01*
X59261904Y-78214285D01*
X59357142Y-78261904D01*
X59404761Y-78309523D01*
X59452380Y-78404761D01*
X59452380Y-78690476D01*
X59404761Y-78785714D01*
X59357142Y-78833333D01*
G04 #@! TO.C,C4*
X107583333Y-99857142D02*
X107535714Y-99904761D01*
X107392857Y-99952380D01*
X107297619Y-99952380D01*
X107154761Y-99904761D01*
X107059523Y-99809523D01*
X107011904Y-99714285D01*
X106964285Y-99523809D01*
X106964285Y-99380952D01*
X107011904Y-99190476D01*
X107059523Y-99095238D01*
X107154761Y-99000000D01*
X107297619Y-98952380D01*
X107392857Y-98952380D01*
X107535714Y-99000000D01*
X107583333Y-99047619D01*
X108440476Y-99285714D02*
X108440476Y-99952380D01*
X108202380Y-98904761D02*
X107964285Y-99619047D01*
X108583333Y-99619047D01*
G04 #@! TO.C,C5*
X92333333Y-99857142D02*
X92285714Y-99904761D01*
X92142857Y-99952380D01*
X92047619Y-99952380D01*
X91904761Y-99904761D01*
X91809523Y-99809523D01*
X91761904Y-99714285D01*
X91714285Y-99523809D01*
X91714285Y-99380952D01*
X91761904Y-99190476D01*
X91809523Y-99095238D01*
X91904761Y-99000000D01*
X92047619Y-98952380D01*
X92142857Y-98952380D01*
X92285714Y-99000000D01*
X92333333Y-99047619D01*
X93238095Y-98952380D02*
X92761904Y-98952380D01*
X92714285Y-99428571D01*
X92761904Y-99380952D01*
X92857142Y-99333333D01*
X93095238Y-99333333D01*
X93190476Y-99380952D01*
X93238095Y-99428571D01*
X93285714Y-99523809D01*
X93285714Y-99761904D01*
X93238095Y-99857142D01*
X93190476Y-99904761D01*
X93095238Y-99952380D01*
X92857142Y-99952380D01*
X92761904Y-99904761D01*
X92714285Y-99857142D01*
G04 #@! TO.C,C6*
X131607142Y-59166666D02*
X131654761Y-59214285D01*
X131702380Y-59357142D01*
X131702380Y-59452380D01*
X131654761Y-59595238D01*
X131559523Y-59690476D01*
X131464285Y-59738095D01*
X131273809Y-59785714D01*
X131130952Y-59785714D01*
X130940476Y-59738095D01*
X130845238Y-59690476D01*
X130750000Y-59595238D01*
X130702380Y-59452380D01*
X130702380Y-59357142D01*
X130750000Y-59214285D01*
X130797619Y-59166666D01*
X130702380Y-58309523D02*
X130702380Y-58500000D01*
X130750000Y-58595238D01*
X130797619Y-58642857D01*
X130940476Y-58738095D01*
X131130952Y-58785714D01*
X131511904Y-58785714D01*
X131607142Y-58738095D01*
X131654761Y-58690476D01*
X131702380Y-58595238D01*
X131702380Y-58404761D01*
X131654761Y-58309523D01*
X131607142Y-58261904D01*
X131511904Y-58214285D01*
X131273809Y-58214285D01*
X131178571Y-58261904D01*
X131130952Y-58309523D01*
X131083333Y-58404761D01*
X131083333Y-58595238D01*
X131130952Y-58690476D01*
X131178571Y-58738095D01*
X131273809Y-58785714D01*
G04 #@! TO.C,C7*
X128833333Y-94107142D02*
X128785714Y-94154761D01*
X128642857Y-94202380D01*
X128547619Y-94202380D01*
X128404761Y-94154761D01*
X128309523Y-94059523D01*
X128261904Y-93964285D01*
X128214285Y-93773809D01*
X128214285Y-93630952D01*
X128261904Y-93440476D01*
X128309523Y-93345238D01*
X128404761Y-93250000D01*
X128547619Y-93202380D01*
X128642857Y-93202380D01*
X128785714Y-93250000D01*
X128833333Y-93297619D01*
X129166666Y-93202380D02*
X129833333Y-93202380D01*
X129404761Y-94202380D01*
G04 #@! TO.C,D1*
X59702380Y-63988095D02*
X58702380Y-63988095D01*
X58702380Y-63750000D01*
X58750000Y-63607142D01*
X58845238Y-63511904D01*
X58940476Y-63464285D01*
X59130952Y-63416666D01*
X59273809Y-63416666D01*
X59464285Y-63464285D01*
X59559523Y-63511904D01*
X59654761Y-63607142D01*
X59702380Y-63750000D01*
X59702380Y-63988095D01*
X59702380Y-62464285D02*
X59702380Y-63035714D01*
X59702380Y-62750000D02*
X58702380Y-62750000D01*
X58845238Y-62845238D01*
X58940476Y-62940476D01*
X58988095Y-63035714D01*
G04 #@! TO.C,J1*
X127423264Y-82379180D02*
X127423264Y-83093466D01*
X127375645Y-83236323D01*
X127280407Y-83331561D01*
X127137550Y-83379180D01*
X127042312Y-83379180D01*
X128423264Y-83379180D02*
X127851836Y-83379180D01*
X128137550Y-83379180D02*
X128137550Y-82379180D01*
X128042312Y-82522038D01*
X127947074Y-82617276D01*
X127851836Y-82664895D01*
G04 #@! TO.C,R1*
X62393333Y-90202380D02*
X62060000Y-89726190D01*
X61821904Y-90202380D02*
X61821904Y-89202380D01*
X62202857Y-89202380D01*
X62298095Y-89250000D01*
X62345714Y-89297619D01*
X62393333Y-89392857D01*
X62393333Y-89535714D01*
X62345714Y-89630952D01*
X62298095Y-89678571D01*
X62202857Y-89726190D01*
X61821904Y-89726190D01*
X63345714Y-90202380D02*
X62774285Y-90202380D01*
X63060000Y-90202380D02*
X63060000Y-89202380D01*
X62964761Y-89345238D01*
X62869523Y-89440476D01*
X62774285Y-89488095D01*
G04 #@! TO.C,R2*
X77702380Y-81666666D02*
X77226190Y-82000000D01*
X77702380Y-82238095D02*
X76702380Y-82238095D01*
X76702380Y-81857142D01*
X76750000Y-81761904D01*
X76797619Y-81714285D01*
X76892857Y-81666666D01*
X77035714Y-81666666D01*
X77130952Y-81714285D01*
X77178571Y-81761904D01*
X77226190Y-81857142D01*
X77226190Y-82238095D01*
X76797619Y-81285714D02*
X76750000Y-81238095D01*
X76702380Y-81142857D01*
X76702380Y-80904761D01*
X76750000Y-80809523D01*
X76797619Y-80761904D01*
X76892857Y-80714285D01*
X76988095Y-80714285D01*
X77130952Y-80761904D01*
X77702380Y-81333333D01*
X77702380Y-80714285D01*
G04 #@! TO.C,R3*
X53452380Y-63916666D02*
X52976190Y-64250000D01*
X53452380Y-64488095D02*
X52452380Y-64488095D01*
X52452380Y-64107142D01*
X52500000Y-64011904D01*
X52547619Y-63964285D01*
X52642857Y-63916666D01*
X52785714Y-63916666D01*
X52880952Y-63964285D01*
X52928571Y-64011904D01*
X52976190Y-64107142D01*
X52976190Y-64488095D01*
X52452380Y-63583333D02*
X52452380Y-62964285D01*
X52833333Y-63297619D01*
X52833333Y-63154761D01*
X52880952Y-63059523D01*
X52928571Y-63011904D01*
X53023809Y-62964285D01*
X53261904Y-62964285D01*
X53357142Y-63011904D01*
X53404761Y-63059523D01*
X53452380Y-63154761D01*
X53452380Y-63440476D01*
X53404761Y-63535714D01*
X53357142Y-63583333D01*
G04 #@! TO.C,R4*
X53452380Y-81416666D02*
X52976190Y-81750000D01*
X53452380Y-81988095D02*
X52452380Y-81988095D01*
X52452380Y-81607142D01*
X52500000Y-81511904D01*
X52547619Y-81464285D01*
X52642857Y-81416666D01*
X52785714Y-81416666D01*
X52880952Y-81464285D01*
X52928571Y-81511904D01*
X52976190Y-81607142D01*
X52976190Y-81988095D01*
X52785714Y-80559523D02*
X53452380Y-80559523D01*
X52404761Y-80797619D02*
X53119047Y-81035714D01*
X53119047Y-80416666D01*
G04 #@! TO.C,R5*
X120822380Y-58746666D02*
X120346190Y-59080000D01*
X120822380Y-59318095D02*
X119822380Y-59318095D01*
X119822380Y-58937142D01*
X119870000Y-58841904D01*
X119917619Y-58794285D01*
X120012857Y-58746666D01*
X120155714Y-58746666D01*
X120250952Y-58794285D01*
X120298571Y-58841904D01*
X120346190Y-58937142D01*
X120346190Y-59318095D01*
X119822380Y-57841904D02*
X119822380Y-58318095D01*
X120298571Y-58365714D01*
X120250952Y-58318095D01*
X120203333Y-58222857D01*
X120203333Y-57984761D01*
X120250952Y-57889523D01*
X120298571Y-57841904D01*
X120393809Y-57794285D01*
X120631904Y-57794285D01*
X120727142Y-57841904D01*
X120774761Y-57889523D01*
X120822380Y-57984761D01*
X120822380Y-58222857D01*
X120774761Y-58318095D01*
X120727142Y-58365714D01*
G04 #@! TO.C,R6*
X81452380Y-58416666D02*
X80976190Y-58750000D01*
X81452380Y-58988095D02*
X80452380Y-58988095D01*
X80452380Y-58607142D01*
X80500000Y-58511904D01*
X80547619Y-58464285D01*
X80642857Y-58416666D01*
X80785714Y-58416666D01*
X80880952Y-58464285D01*
X80928571Y-58511904D01*
X80976190Y-58607142D01*
X80976190Y-58988095D01*
X80452380Y-57559523D02*
X80452380Y-57750000D01*
X80500000Y-57845238D01*
X80547619Y-57892857D01*
X80690476Y-57988095D01*
X80880952Y-58035714D01*
X81261904Y-58035714D01*
X81357142Y-57988095D01*
X81404761Y-57940476D01*
X81452380Y-57845238D01*
X81452380Y-57654761D01*
X81404761Y-57559523D01*
X81357142Y-57511904D01*
X81261904Y-57464285D01*
X81023809Y-57464285D01*
X80928571Y-57511904D01*
X80880952Y-57559523D01*
X80833333Y-57654761D01*
X80833333Y-57845238D01*
X80880952Y-57940476D01*
X80928571Y-57988095D01*
X81023809Y-58035714D01*
G04 #@! TO.C,R7*
X105702380Y-58916666D02*
X105226190Y-59250000D01*
X105702380Y-59488095D02*
X104702380Y-59488095D01*
X104702380Y-59107142D01*
X104750000Y-59011904D01*
X104797619Y-58964285D01*
X104892857Y-58916666D01*
X105035714Y-58916666D01*
X105130952Y-58964285D01*
X105178571Y-59011904D01*
X105226190Y-59107142D01*
X105226190Y-59488095D01*
X104702380Y-58583333D02*
X104702380Y-57916666D01*
X105702380Y-58345238D01*
G04 #@! TO.C,R8*
X113072380Y-58746666D02*
X112596190Y-59080000D01*
X113072380Y-59318095D02*
X112072380Y-59318095D01*
X112072380Y-58937142D01*
X112120000Y-58841904D01*
X112167619Y-58794285D01*
X112262857Y-58746666D01*
X112405714Y-58746666D01*
X112500952Y-58794285D01*
X112548571Y-58841904D01*
X112596190Y-58937142D01*
X112596190Y-59318095D01*
X112500952Y-58175238D02*
X112453333Y-58270476D01*
X112405714Y-58318095D01*
X112310476Y-58365714D01*
X112262857Y-58365714D01*
X112167619Y-58318095D01*
X112120000Y-58270476D01*
X112072380Y-58175238D01*
X112072380Y-57984761D01*
X112120000Y-57889523D01*
X112167619Y-57841904D01*
X112262857Y-57794285D01*
X112310476Y-57794285D01*
X112405714Y-57841904D01*
X112453333Y-57889523D01*
X112500952Y-57984761D01*
X112500952Y-58175238D01*
X112548571Y-58270476D01*
X112596190Y-58318095D01*
X112691428Y-58365714D01*
X112881904Y-58365714D01*
X112977142Y-58318095D01*
X113024761Y-58270476D01*
X113072380Y-58175238D01*
X113072380Y-57984761D01*
X113024761Y-57889523D01*
X112977142Y-57841904D01*
X112881904Y-57794285D01*
X112691428Y-57794285D01*
X112596190Y-57841904D01*
X112548571Y-57889523D01*
X112500952Y-57984761D01*
G04 #@! TO.C,R9*
X89452380Y-58416666D02*
X88976190Y-58750000D01*
X89452380Y-58988095D02*
X88452380Y-58988095D01*
X88452380Y-58607142D01*
X88500000Y-58511904D01*
X88547619Y-58464285D01*
X88642857Y-58416666D01*
X88785714Y-58416666D01*
X88880952Y-58464285D01*
X88928571Y-58511904D01*
X88976190Y-58607142D01*
X88976190Y-58988095D01*
X89452380Y-57940476D02*
X89452380Y-57750000D01*
X89404761Y-57654761D01*
X89357142Y-57607142D01*
X89214285Y-57511904D01*
X89023809Y-57464285D01*
X88642857Y-57464285D01*
X88547619Y-57511904D01*
X88500000Y-57559523D01*
X88452380Y-57654761D01*
X88452380Y-57845238D01*
X88500000Y-57940476D01*
X88547619Y-57988095D01*
X88642857Y-58035714D01*
X88880952Y-58035714D01*
X88976190Y-57988095D01*
X89023809Y-57940476D01*
X89071428Y-57845238D01*
X89071428Y-57654761D01*
X89023809Y-57559523D01*
X88976190Y-57511904D01*
X88880952Y-57464285D01*
G04 #@! TO.C,U1*
X66738095Y-69202380D02*
X66738095Y-70011904D01*
X66785714Y-70107142D01*
X66833333Y-70154761D01*
X66928571Y-70202380D01*
X67119047Y-70202380D01*
X67214285Y-70154761D01*
X67261904Y-70107142D01*
X67309523Y-70011904D01*
X67309523Y-69202380D01*
X68309523Y-70202380D02*
X67738095Y-70202380D01*
X68023809Y-70202380D02*
X68023809Y-69202380D01*
X67928571Y-69345238D01*
X67833333Y-69440476D01*
X67738095Y-69488095D01*
G04 #@! TO.C,U2*
X98988095Y-82702380D02*
X98988095Y-83511904D01*
X99035714Y-83607142D01*
X99083333Y-83654761D01*
X99178571Y-83702380D01*
X99369047Y-83702380D01*
X99464285Y-83654761D01*
X99511904Y-83607142D01*
X99559523Y-83511904D01*
X99559523Y-82702380D01*
X99988095Y-82797619D02*
X100035714Y-82750000D01*
X100130952Y-82702380D01*
X100369047Y-82702380D01*
X100464285Y-82750000D01*
X100511904Y-82797619D01*
X100559523Y-82892857D01*
X100559523Y-82988095D01*
X100511904Y-83130952D01*
X99940476Y-83702380D01*
X100559523Y-83702380D01*
G04 #@! TO.C,Y1*
X99523809Y-91976190D02*
X99523809Y-92452380D01*
X99190476Y-91452380D02*
X99523809Y-91976190D01*
X99857142Y-91452380D01*
X100714285Y-92452380D02*
X100142857Y-92452380D01*
X100428571Y-92452380D02*
X100428571Y-91452380D01*
X100333333Y-91595238D01*
X100238095Y-91690476D01*
X100142857Y-91738095D01*
G04 #@! TO.C,J3*
X84626666Y-46702380D02*
X84626666Y-47416666D01*
X84579047Y-47559523D01*
X84483809Y-47654761D01*
X84340952Y-47702380D01*
X84245714Y-47702380D01*
X85007619Y-46702380D02*
X85626666Y-46702380D01*
X85293333Y-47083333D01*
X85436190Y-47083333D01*
X85531428Y-47130952D01*
X85579047Y-47178571D01*
X85626666Y-47273809D01*
X85626666Y-47511904D01*
X85579047Y-47607142D01*
X85531428Y-47654761D01*
X85436190Y-47702380D01*
X85150476Y-47702380D01*
X85055238Y-47654761D01*
X85007619Y-47607142D01*
G04 #@! TO.C,BZ1*
X130949047Y-115838571D02*
X131091904Y-115886190D01*
X131139523Y-115933809D01*
X131187142Y-116029047D01*
X131187142Y-116171904D01*
X131139523Y-116267142D01*
X131091904Y-116314761D01*
X130996666Y-116362380D01*
X130615714Y-116362380D01*
X130615714Y-115362380D01*
X130949047Y-115362380D01*
X131044285Y-115410000D01*
X131091904Y-115457619D01*
X131139523Y-115552857D01*
X131139523Y-115648095D01*
X131091904Y-115743333D01*
X131044285Y-115790952D01*
X130949047Y-115838571D01*
X130615714Y-115838571D01*
X131520476Y-115362380D02*
X132187142Y-115362380D01*
X131520476Y-116362380D01*
X132187142Y-116362380D01*
X133091904Y-116362380D02*
X132520476Y-116362380D01*
X132806190Y-116362380D02*
X132806190Y-115362380D01*
X132710952Y-115505238D01*
X132615714Y-115600476D01*
X132520476Y-115648095D01*
X125988095Y-109142857D02*
X127511904Y-109142857D01*
X126750000Y-109904761D02*
X126750000Y-108380952D01*
X136238095Y-109142857D02*
X137761904Y-109142857D01*
G04 #@! TO.C,J4*
X103626666Y-46902380D02*
X103626666Y-47616666D01*
X103579047Y-47759523D01*
X103483809Y-47854761D01*
X103340952Y-47902380D01*
X103245714Y-47902380D01*
X104531428Y-47235714D02*
X104531428Y-47902380D01*
X104293333Y-46854761D02*
X104055238Y-47569047D01*
X104674285Y-47569047D01*
G04 #@! TO.C,J5*
X120776666Y-46702380D02*
X120776666Y-47416666D01*
X120729047Y-47559523D01*
X120633809Y-47654761D01*
X120490952Y-47702380D01*
X120395714Y-47702380D01*
X121729047Y-46702380D02*
X121252857Y-46702380D01*
X121205238Y-47178571D01*
X121252857Y-47130952D01*
X121348095Y-47083333D01*
X121586190Y-47083333D01*
X121681428Y-47130952D01*
X121729047Y-47178571D01*
X121776666Y-47273809D01*
X121776666Y-47511904D01*
X121729047Y-47607142D01*
X121681428Y-47654761D01*
X121586190Y-47702380D01*
X121348095Y-47702380D01*
X121252857Y-47654761D01*
X121205238Y-47607142D01*
G04 #@! TO.C,J6*
X61452380Y-107533333D02*
X62166666Y-107533333D01*
X62309523Y-107580952D01*
X62404761Y-107676190D01*
X62452380Y-107819047D01*
X62452380Y-107914285D01*
X61452380Y-106628571D02*
X61452380Y-106819047D01*
X61500000Y-106914285D01*
X61547619Y-106961904D01*
X61690476Y-107057142D01*
X61880952Y-107104761D01*
X62261904Y-107104761D01*
X62357142Y-107057142D01*
X62404761Y-107009523D01*
X62452380Y-106914285D01*
X62452380Y-106723809D01*
X62404761Y-106628571D01*
X62357142Y-106580952D01*
X62261904Y-106533333D01*
X62023809Y-106533333D01*
X61928571Y-106580952D01*
X61880952Y-106628571D01*
X61833333Y-106723809D01*
X61833333Y-106914285D01*
X61880952Y-107009523D01*
X61928571Y-107057142D01*
X62023809Y-107104761D01*
G04 #@! TO.C,J2*
X68626666Y-46702380D02*
X68626666Y-47416666D01*
X68579047Y-47559523D01*
X68483809Y-47654761D01*
X68340952Y-47702380D01*
X68245714Y-47702380D01*
X69055238Y-46797619D02*
X69102857Y-46750000D01*
X69198095Y-46702380D01*
X69436190Y-46702380D01*
X69531428Y-46750000D01*
X69579047Y-46797619D01*
X69626666Y-46892857D01*
X69626666Y-46988095D01*
X69579047Y-47130952D01*
X69007619Y-47702380D01*
X69626666Y-47702380D01*
G04 #@! TO.C,Q1*
X94654761Y-62797619D02*
X94559523Y-62750000D01*
X94464285Y-62654761D01*
X94321428Y-62511904D01*
X94226190Y-62464285D01*
X94130952Y-62464285D01*
X94178571Y-62702380D02*
X94083333Y-62654761D01*
X93988095Y-62559523D01*
X93940476Y-62369047D01*
X93940476Y-62035714D01*
X93988095Y-61845238D01*
X94083333Y-61750000D01*
X94178571Y-61702380D01*
X94369047Y-61702380D01*
X94464285Y-61750000D01*
X94559523Y-61845238D01*
X94607142Y-62035714D01*
X94607142Y-62369047D01*
X94559523Y-62559523D01*
X94464285Y-62654761D01*
X94369047Y-62702380D01*
X94178571Y-62702380D01*
X95559523Y-62702380D02*
X94988095Y-62702380D01*
X95273809Y-62702380D02*
X95273809Y-61702380D01*
X95178571Y-61845238D01*
X95083333Y-61940476D01*
X94988095Y-61988095D01*
G04 #@! TO.C,R10*
X141702380Y-78312857D02*
X141226190Y-78646190D01*
X141702380Y-78884285D02*
X140702380Y-78884285D01*
X140702380Y-78503333D01*
X140750000Y-78408095D01*
X140797619Y-78360476D01*
X140892857Y-78312857D01*
X141035714Y-78312857D01*
X141130952Y-78360476D01*
X141178571Y-78408095D01*
X141226190Y-78503333D01*
X141226190Y-78884285D01*
X141702380Y-77360476D02*
X141702380Y-77931904D01*
X141702380Y-77646190D02*
X140702380Y-77646190D01*
X140845238Y-77741428D01*
X140940476Y-77836666D01*
X140988095Y-77931904D01*
X140702380Y-76741428D02*
X140702380Y-76646190D01*
X140750000Y-76550952D01*
X140797619Y-76503333D01*
X140892857Y-76455714D01*
X141083333Y-76408095D01*
X141321428Y-76408095D01*
X141511904Y-76455714D01*
X141607142Y-76503333D01*
X141654761Y-76550952D01*
X141702380Y-76646190D01*
X141702380Y-76741428D01*
X141654761Y-76836666D01*
X141607142Y-76884285D01*
X141511904Y-76931904D01*
X141321428Y-76979523D01*
X141083333Y-76979523D01*
X140892857Y-76931904D01*
X140797619Y-76884285D01*
X140750000Y-76836666D01*
X140702380Y-76741428D01*
G04 #@! TD*
M02*
