<?xml version="1.0" encoding="UTF-8" standalone="no"?>
<!-- Created with Inkscape (http://www.inkscape.org/) -->

<svg
   xmlns:dc="http://purl.org/dc/elements/1.1/"
   xmlns:cc="http://creativecommons.org/ns#"

   xmlns:inkscape="http://www.inkscape.org/namespaces/inkscape"
   width="84mm"
   height="5mm"
   viewBox="0 0 84 5"
   version="1.1"
   id="svg8"
   inkscape:version="0.92.4 5da689c313, 2019-01-14"
   sodipodi:docname="name.svg">
  <defs
     id="defs2" />
  <sodipodi:namedview
     id="base"
     pagecolor="#ffffff"
     bordercolor="#666666"
     borderopacity="1.0"
     inkscape:pageopacity="0.0"
     inkscape:pageshadow="2"
     inkscape:zoom="3.1167917"
     inkscape:cx="173.76178"
     inkscape:cy="-38.418581"
     inkscape:document-units="mm"
     inkscape:current-layer="layer1"
     showgrid="false"
     inkscape:window-width="1680"
     inkscape:window-height="1021"
     inkscape:window-x="0"
     inkscape:window-y="0"
     inkscape:window-maximized="1" />
  <metadata
     id="metadata5">
    <rdf:RDF>
      <cc:Work
         rdf:about="">
        <dc:format>image/svg+xml</dc:format>
        <dc:type
           rdf:resource="http://purl.org/dc/dcmitype/StillImage" />
        <dc:title></dc:title>
      </cc:Work>
    </rdf:RDF>
  </metadata>
  <g
     inkscape:label="Layer 1"
     inkscape:groupmode="layer"
     id="layer1"
     transform="translate(0,-292)">
    <text
       xml:space="preserve"
       style="font-style:normal;font-weight:normal;font-size:7.05555534px;line-height:1.25;font-family:sans-serif;letter-spacing:0px;word-spacing:0px;fill:#000000;fill-opacity:1;stroke:none;stroke-width:0.26458332"
       x="2.0797963"
       y="292.41595"
       id="text12"><tspan
         sodipodi:role="line"
         id="tspan10"
         x="2.0797963"
         y="298.65848"
         style="stroke-width:0.26458332" /></text>
    <g
       aria-label="Safety Control Relay Actuator Mechanism"
       style="font-style:normal;font-weight:normal;font-size:7.05555534px;line-height:1.25;font-family:sans-serif;letter-spacing:0px;word-spacing:0px;fill:#000000;fill-opacity:1;stroke:none;stroke-width:0.26458332"
       id="text16">
      <path
         d="m 3.4026631,292.34112 v 0.54295 q -0.3169488,-0.15159 -0.5980686,-0.226 -0.2811198,-0.0744 -0.542947,-0.0744 -0.4547526,0 -0.7027995,0.17639 -0.2452908,0.17639 -0.2452908,0.50161 0,0.27285 0.1626085,0.41341 0.1653646,0.1378 0.6228733,0.22324 l 0.3362413,0.0689 q 0.6228733,0.11851 0.9177734,0.41893 0.2976563,0.29765 0.2976563,0.79926 0,0.59807 -0.4023872,0.90675 -0.3996311,0.30868 -1.1740885,0.30868 -0.2921441,0 -0.6228733,-0.0661 -0.3279731,-0.0661 -0.68075086,-0.19568 v -0.57326 q 0.33899736,0.19017 0.66421446,0.28663 0.325217,0.0965 0.6394097,0.0965 0.4768012,0 0.7358724,-0.18741 0.2590712,-0.18741 0.2590712,-0.53468 0,-0.30317 -0.1874132,-0.47405 -0.1846572,-0.17087 -0.6090929,-0.25631 l -0.3389974,-0.0661 q -0.6228733,-0.12402 -0.901237,-0.3886 -0.27836372,-0.26459 -0.27836372,-0.73588 0,-0.5457 0.38309462,-0.85989 0.3858507,-0.31419 1.0610894,-0.31419 0.289388,0 0.5898004,0.0524 0.3004123,0.0524 0.614605,0.1571 z"
         style="font-size:5.64444447px;stroke-width:0.26458332"
         id="path113" />
      <path
         d="m 5.1741312,295.3511 q -0.3841282,0 -0.5322673,0.0879 -0.1481391,0.0879 -0.1481391,0.29972 0,0.16881 0.1102431,0.26872 0.1119656,0.0982 0.3031684,0.0982 0.2635498,0 0.4220242,-0.18603 0.1601969,-0.18776 0.1601969,-0.49782 v -0.0706 z m 0.632175,-0.13092 v 1.10071 H 5.4893574 v -0.29283 q -0.1085205,0.1757 -0.27044,0.2601 -0.1619195,0.0827 -0.396186,0.0827 -0.2962782,0 -0.471978,-0.16537 -0.1739773,-0.16709 -0.1739773,-0.44614 0,-0.32556 0.217041,-0.49092 0.2187635,-0.16537 0.651123,-0.16537 h 0.4444173 v -0.031 q 0,-0.21877 -0.144694,-0.33762 -0.1429715,-0.12058 -0.4030762,-0.12058 -0.1653645,0 -0.3221164,0.0396 -0.1567518,0.0396 -0.3014458,0.11885 v -0.29283 q 0.1739773,-0.0672 0.3376193,-0.0999 0.1636421,-0.0344 0.3186713,-0.0344 0.4185791,0 0.6252849,0.21704 0.2067057,0.21704 0.2067057,0.65801 z"
         style="font-size:3.52777767px"
         id="path115" />
      <path
         d="m 7.4358362,293.64061 v 0.26355 H 7.1326678 q -0.1705322,0 -0.2377115,0.0689 -0.065457,0.0689 -0.065457,0.24805 v 0.17053 h 0.521932 v 0.24632 h -0.521932 v 1.68293 H 6.5108281 v -1.68293 H 6.2076597 v -0.24632 h 0.3031684 v -0.13436 q 0,-0.32212 0.1498617,-0.46853 0.1498616,-0.14814 0.4754231,-0.14814 z"
         style="font-size:3.52777767px"
         id="path117" />
      <path
         d="m 9.3513091,295.27703 v 0.15503 H 7.8940337 q 0.020671,0.32728 0.1963705,0.49954 0.1774224,0.17053 0.4926486,0.17053 0.1825901,0 0.3531223,-0.0448 0.1722548,-0.0448 0.3410644,-0.13436 v 0.29973 q -0.1705322,0.0723 -0.3496771,0.11024 -0.179145,0.0379 -0.3634576,0.0379 -0.4616428,0 -0.7320828,-0.26872 -0.2687174,-0.26872 -0.2687174,-0.72692 0,-0.4737 0.254937,-0.75103 0.2566596,-0.27905 0.6907417,-0.27905 0.3892957,0 0.6149495,0.25149 0.2273763,0.24977 0.2273763,0.68041 z m -0.3169488,-0.093 q -0.00345,-0.2601 -0.1464165,-0.41513 -0.141249,-0.15503 -0.3755154,-0.15503 -0.2652724,0 -0.4254693,0.14986 -0.1584744,0.14986 -0.1825901,0.42202 z"
         style="font-size:3.52777767px"
         id="path119" />
      <path
         d="m 10.185022,293.84387 v 0.54777 h 0.652846 v 0.24632 h -0.652846 v 1.04731 q 0,0.23599 0.06373,0.30317 0.06546,0.0672 0.26355,0.0672 h 0.325562 v 0.26527 h -0.325562 q -0.366902,0 -0.506429,-0.13608 -0.1395261,-0.1378 -0.1395261,-0.49954 v -1.04731 H 9.633807 v -0.24632 h 0.2325439 v -0.54777 z"
         style="font-size:3.52777767px"
         id="path121" />
      <path
         d="m 12.057432,296.50004 q -0.134359,0.34451 -0.261827,0.44958 -0.127469,0.10508 -0.341065,0.10508 h -0.253214 v -0.26527 h 0.186035 q 0.130914,0 0.203261,-0.062 0.07235,-0.062 0.160197,-0.29283 l 0.05684,-0.14469 -0.780314,-1.89825 h 0.335896 l 0.602892,1.50895 0.602892,-1.50895 h 0.335897 z"
         style="font-size:3.52777767px"
         id="path123" />
      <path
         d="m 18.439471,292.52302 v 0.58704 q -0.28112,-0.26182 -0.600824,-0.39136 -0.316949,-0.12954 -0.675239,-0.12954 -0.705556,0 -1.080382,0.43271 -0.374827,0.42995 -0.374827,1.24575 0,0.81304 0.374827,1.24574 0.374826,0.42995 1.080382,0.42995 0.35829,0 0.675239,-0.12954 0.319704,-0.12953 0.600824,-0.39136 v 0.58153 q -0.292144,0.19844 -0.620117,0.29766 -0.325217,0.0992 -0.689019,0.0992 -0.93431,0 -1.471745,-0.57051 -0.537435,-0.57326 -0.537435,-1.56269 0,-0.99219 0.537435,-1.5627 0.537435,-0.57326 1.471745,-0.57326 0.369314,0 0.694531,0.0992 0.327973,0.0965 0.614605,0.29215 z"
         style="font-size:5.64444447px;stroke-width:0.26458332"
         id="path125" />
      <path
         d="m 19.825433,294.61385 q -0.254937,0 -0.403077,0.19981 -0.148139,0.1981 -0.148139,0.54433 0,0.34623 0.146417,0.54605 0.148139,0.19809 0.404799,0.19809 0.253214,0 0.401353,-0.19982 0.148139,-0.19981 0.148139,-0.54432 0,-0.34279 -0.148139,-0.5426 -0.148139,-0.20154 -0.401353,-0.20154 z m 0,-0.26872 q 0.413411,0 0.6494,0.26872 0.235989,0.26872 0.235989,0.74414 0,0.4737 -0.235989,0.74414 -0.235989,0.26872 -0.6494,0.26872 -0.415134,0 -0.651123,-0.26872 -0.234267,-0.27044 -0.234267,-0.74414 0,-0.47542 0.234267,-0.74414 0.235989,-0.26872 0.651123,-0.26872 z"
         style="font-size:3.52777767px"
         id="path127" />
      <path
         d="m 22.839891,295.15645 v 1.16444 h -0.316949 v -1.1541 q 0,-0.27389 -0.106798,-0.40997 -0.106798,-0.13608 -0.320394,-0.13608 -0.256659,0 -0.404799,0.16364 -0.148139,0.16364 -0.148139,0.44614 v 1.09037 h -0.318671 v -1.92925 h 0.318671 v 0.29972 q 0.113688,-0.17398 0.266995,-0.2601 0.15503,-0.0861 0.356568,-0.0861 0.332451,0 0.502984,0.20671 0.170532,0.20498 0.170532,0.60461 z"
         style="font-size:3.52777767px"
         id="path129" />
      <path
         d="m 23.785571,293.84387 v 0.54777 h 0.652846 v 0.24632 h -0.652846 v 1.04731 q 0,0.23599 0.06373,0.30317 0.06546,0.0672 0.26355,0.0672 h 0.325562 v 0.26527 h -0.325562 q -0.366903,0 -0.506429,-0.13608 -0.139526,-0.1378 -0.139526,-0.49954 v -1.04731 h -0.232544 v -0.24632 H 23.4669 v -0.54777 z"
         style="font-size:3.52777767px"
         id="path131" />
      <path
         d="m 25.973206,294.68792 q -0.0534,-0.031 -0.117133,-0.0448 -0.06201,-0.0155 -0.137804,-0.0155 -0.268717,0 -0.413411,0.1757 -0.142972,0.17398 -0.142972,0.50126 v 1.0163 h -0.318671 v -1.92925 h 0.318671 v 0.29972 q 0.09991,-0.1757 0.260105,-0.2601 0.160197,-0.0861 0.389296,-0.0861 0.03273,0 0.07235,0.005 0.03962,0.003 0.08785,0.0121 z"
         style="font-size:3.52777767px"
         id="path133" />
      <path
         d="m 26.975728,294.61385 q -0.254937,0 -0.403076,0.19981 -0.148139,0.1981 -0.148139,0.54433 0,0.34623 0.146416,0.54605 0.148139,0.19809 0.404799,0.19809 0.253214,0 0.401354,-0.19982 0.148139,-0.19981 0.148139,-0.54432 0,-0.34279 -0.148139,-0.5426 -0.14814,-0.20154 -0.401354,-0.20154 z m 0,-0.26872 q 0.413411,0 0.6494,0.26872 0.235989,0.26872 0.235989,0.74414 0,0.4737 -0.235989,0.74414 -0.235989,0.26872 -0.6494,0.26872 -0.415134,0 -0.651123,-0.26872 -0.234267,-0.27044 -0.234267,-0.74414 0,-0.47542 0.234267,-0.74414 0.235989,-0.26872 0.651123,-0.26872 z"
         style="font-size:3.52777767px"
         id="path135" />
      <path
         d="m 28.386496,293.64061 h 0.316949 v 2.68028 h -0.316949 z"
         style="font-size:3.52777767px"
         id="path137" />
      <path
         d="m 33.333652,294.39164 q 0.179145,0.0606 0.347265,0.25907 0.170877,0.19844 0.341754,0.5457 l 0.564995,1.12448 h -0.598068 l -0.526411,-1.05557 q -0.203949,-0.41342 -0.396875,-0.54846 -0.190169,-0.13505 -0.520898,-0.13505 h -0.606337 v 1.73908 H 31.38235 v -4.11482 h 1.25677 q 0.705556,0 1.052822,0.2949 0.347265,0.2949 0.347265,0.89021 0,0.38861 -0.181901,0.64492 -0.179145,0.25632 -0.523654,0.35554 z m -1.394575,-1.72806 v 1.46072 h 0.700043 q 0.402388,0 0.606337,-0.18466 0.206706,-0.18741 0.206706,-0.54846 0,-0.36104 -0.206706,-0.54294 -0.203949,-0.18466 -0.606337,-0.18466 z"
         style="font-size:5.64444447px;stroke-width:0.26458332"
         id="path139" />
      <path
         d="m 36.732927,295.27703 v 0.15503 h -1.457276 q 0.02067,0.32728 0.196371,0.49954 0.177422,0.17053 0.492648,0.17053 0.18259,0 0.353123,-0.0448 0.172254,-0.0448 0.341064,-0.13436 v 0.29973 q -0.170532,0.0723 -0.349677,0.11024 -0.179145,0.0379 -0.363458,0.0379 -0.461642,0 -0.732082,-0.26872 -0.268718,-0.26872 -0.268718,-0.72692 0,-0.4737 0.254937,-0.75103 0.25666,-0.27905 0.690742,-0.27905 0.389296,0 0.614949,0.25149 0.227377,0.24977 0.227377,0.68041 z m -0.316949,-0.093 q -0.0034,-0.2601 -0.146417,-0.41513 -0.141249,-0.15503 -0.375515,-0.15503 -0.265272,0 -0.425469,0.14986 -0.158475,0.14986 -0.18259,0.42202 z"
         style="font-size:3.52777767px"
         id="path141" />
      <path
         d="m 37.253136,293.64061 h 0.316949 v 2.68028 h -0.316949 z"
         style="font-size:3.52777767px"
         id="path143" />
      <path
         d="m 39.110042,295.3511 q -0.384128,0 -0.532267,0.0879 -0.148139,0.0879 -0.148139,0.29972 0,0.16881 0.110243,0.26872 0.111965,0.0982 0.303168,0.0982 0.26355,0 0.422024,-0.18603 0.160197,-0.18776 0.160197,-0.49782 v -0.0706 z m 0.632175,-0.13092 v 1.10071 h -0.316949 v -0.29283 q -0.10852,0.1757 -0.27044,0.2601 -0.161919,0.0827 -0.396186,0.0827 -0.296278,0 -0.471978,-0.16537 -0.173977,-0.16709 -0.173977,-0.44614 0,-0.32556 0.217041,-0.49092 0.218764,-0.16537 0.651123,-0.16537 h 0.444417 v -0.031 q 0,-0.21877 -0.144694,-0.33762 -0.142971,-0.12058 -0.403076,-0.12058 -0.165364,0 -0.322116,0.0396 -0.156752,0.0396 -0.301446,0.11885 v -0.29283 q 0.173977,-0.0672 0.337619,-0.0999 0.163642,-0.0344 0.318672,-0.0344 0.418579,0 0.625284,0.21704 0.206706,0.21704 0.206706,0.65801 z"
         style="font-size:3.52777767px"
         id="path145" />
      <path
         d="m 41.197773,296.50004 q -0.134359,0.34451 -0.261827,0.44958 -0.127469,0.10508 -0.341065,0.10508 h -0.253214 v -0.26527 h 0.186035 q 0.130914,0 0.203261,-0.062 0.07235,-0.062 0.160196,-0.29283 l 0.05684,-0.14469 -0.780315,-1.89825 h 0.335897 l 0.602892,1.50895 0.602892,-1.50895 h 0.335896 z"
         style="font-size:3.52777767px"
         id="path147" />
      <path
         d="m 45.873799,292.75453 -0.755165,2.04776 h 1.513086 z m -0.314193,-0.54846 h 0.631142 l 1.568207,4.11482 h -0.578776 l -0.374826,-1.05557 h -1.85484 l -0.374826,1.05557 h -0.587044 z"
         style="font-size:5.64444447px;stroke-width:0.26458332"
         id="path149" />
      <path
         d="m 49.526634,294.46571 v 0.29628 q -0.134359,-0.0741 -0.27044,-0.11025 -0.134359,-0.0379 -0.272163,-0.0379 -0.308336,0 -0.478868,0.19637 -0.170532,0.19465 -0.170532,0.54777 0,0.35312 0.170532,0.54949 0.170532,0.19465 0.478868,0.19465 0.137804,0 0.272163,-0.0362 0.136081,-0.0379 0.27044,-0.11197 v 0.29283 q -0.132636,0.062 -0.275608,0.093 -0.141249,0.031 -0.301446,0.031 -0.435804,0 -0.692464,-0.27389 -0.25666,-0.27388 -0.25666,-0.73897 0,-0.47198 0.258383,-0.74242 0.260104,-0.27044 0.711412,-0.27044 0.146416,0 0.285943,0.031 0.139526,0.0293 0.27044,0.0896 z"
         style="font-size:3.52777767px"
         id="path151" />
      <path
         d="m 50.391354,293.84387 v 0.54777 H 51.0442 v 0.24632 h -0.652846 v 1.04731 q 0,0.23599 0.06374,0.30317 0.06546,0.0672 0.26355,0.0672 H 51.0442 v 0.26527 h -0.325561 q -0.366903,0 -0.50643,-0.13608 -0.139526,-0.1378 -0.139526,-0.49954 v -1.04731 h -0.232544 v -0.24632 h 0.232544 v -0.54777 z"
         style="font-size:3.52777767px"
         id="path153" />
      <path
         d="m 51.428328,295.55953 v -1.16789 h 0.316949 v 1.15583 q 0,0.27388 0.106798,0.41169 0.106797,0.13608 0.320393,0.13608 0.25666,0 0.404799,-0.16364 0.149862,-0.16365 0.149862,-0.44614 v -1.09382 h 0.316949 v 1.92925 h -0.316949 v -0.29628 q -0.115411,0.1757 -0.268718,0.26183 -0.151584,0.0844 -0.353122,0.0844 -0.332452,0 -0.504706,-0.20671 -0.172255,-0.20671 -0.172255,-0.60461 z m 0.797539,-1.2144 z"
         style="font-size:3.52777767px"
         id="path155" />
      <path
         d="m 54.573699,295.3511 q -0.384128,0 -0.532267,0.0879 -0.148139,0.0879 -0.148139,0.29972 0,0.16881 0.110243,0.26872 0.111966,0.0982 0.303169,0.0982 0.263549,0 0.422024,-0.18603 0.160197,-0.18776 0.160197,-0.49782 v -0.0706 z m 0.632176,-0.13092 v 1.10071 h -0.316949 v -0.29283 q -0.108521,0.1757 -0.27044,0.2601 -0.16192,0.0827 -0.396186,0.0827 -0.296278,0 -0.471978,-0.16537 -0.173978,-0.16709 -0.173978,-0.44614 0,-0.32556 0.217041,-0.49092 0.218764,-0.16537 0.651123,-0.16537 h 0.444418 v -0.031 q 0,-0.21877 -0.144694,-0.33762 -0.142972,-0.12058 -0.403076,-0.12058 -0.165365,0 -0.322117,0.0396 -0.156752,0.0396 -0.301446,0.11885 v -0.29283 q 0.173978,-0.0672 0.33762,-0.0999 0.163642,-0.0344 0.318671,-0.0344 0.418579,0 0.625285,0.21704 0.206706,0.21704 0.206706,0.65801 z"
         style="font-size:3.52777767px"
         id="path157" />
      <path
         d="m 56.172223,293.84387 v 0.54777 h 0.652846 v 0.24632 h -0.652846 v 1.04731 q 0,0.23599 0.06373,0.30317 0.06546,0.0672 0.26355,0.0672 h 0.325562 v 0.26527 h -0.325562 q -0.366903,0 -0.506429,-0.13608 -0.139526,-0.1378 -0.139526,-0.49954 v -1.04731 h -0.232544 v -0.24632 h 0.232544 v -0.54777 z"
         style="font-size:3.52777767px"
         id="path159" />
      <path
         d="m 57.98951,294.61385 q -0.254937,0 -0.403076,0.19981 -0.148139,0.1981 -0.148139,0.54433 0,0.34623 0.146417,0.54605 0.148139,0.19809 0.404798,0.19809 0.253215,0 0.401354,-0.19982 0.148139,-0.19981 0.148139,-0.54432 0,-0.34279 -0.148139,-0.5426 -0.148139,-0.20154 -0.401354,-0.20154 z m 0,-0.26872 q 0.413412,0 0.649401,0.26872 0.235989,0.26872 0.235989,0.74414 0,0.4737 -0.235989,0.74414 -0.235989,0.26872 -0.649401,0.26872 -0.415134,0 -0.651123,-0.26872 -0.234266,-0.27044 -0.234266,-0.74414 0,-0.47542 0.234266,-0.74414 0.235989,-0.26872 0.651123,-0.26872 z"
         style="font-size:3.52777767px"
         id="path161" />
      <path
         d="m 60.51821,294.68792 q -0.0534,-0.031 -0.117133,-0.0448 -0.06201,-0.0155 -0.137804,-0.0155 -0.268717,0 -0.413411,0.1757 -0.142972,0.17398 -0.142972,0.50126 v 1.0163 h -0.318671 v -1.92925 h 0.318671 v 0.29972 q 0.09991,-0.1757 0.260105,-0.2601 0.160197,-0.0861 0.389296,-0.0861 0.03273,0 0.07235,0.005 0.03962,0.003 0.08785,0.0121 z"
         style="font-size:3.52777767px"
         id="path163" />
      <path
         d="m 62.193562,292.20607 h 0.829579 l 1.050065,2.80017 1.055578,-2.80017 h 0.829579 v 4.11482 h -0.542948 v -3.61321 l -1.061089,2.82222 h -0.559483 l -1.06109,-2.82222 v 3.61321 h -0.540191 z"
         style="font-size:5.64444447px"
         id="path165" />
      <path
         d="m 68.492227,295.27703 v 0.15503 h -1.457275 q 0.02067,0.32728 0.19637,0.49954 0.177422,0.17053 0.492649,0.17053 0.18259,0 0.353122,-0.0448 0.172255,-0.0448 0.341064,-0.13436 v 0.29973 q -0.170532,0.0723 -0.349677,0.11024 -0.179145,0.0379 -0.363457,0.0379 -0.461643,0 -0.732083,-0.26872 -0.268718,-0.26872 -0.268718,-0.72692 0,-0.4737 0.254937,-0.75103 0.25666,-0.27905 0.690742,-0.27905 0.389296,0 0.61495,0.25149 0.227376,0.24977 0.227376,0.68041 z m -0.316949,-0.093 q -0.0034,-0.2601 -0.146416,-0.41513 -0.141249,-0.15503 -0.375516,-0.15503 -0.265272,0 -0.425469,0.14986 -0.158475,0.14986 -0.18259,0.42202 z"
         style="font-size:3.52777767px"
         id="path167" />
      <path
         d="m 70.40081,294.46571 v 0.29628 q -0.134359,-0.0741 -0.27044,-0.11025 -0.134359,-0.0379 -0.272163,-0.0379 -0.308336,0 -0.478868,0.19637 -0.170532,0.19465 -0.170532,0.54777 0,0.35312 0.170532,0.54949 0.170532,0.19465 0.478868,0.19465 0.137804,0 0.272163,-0.0362 0.136081,-0.0379 0.27044,-0.11197 v 0.29283 q -0.132636,0.062 -0.275608,0.093 -0.141249,0.031 -0.301446,0.031 -0.435804,0 -0.692464,-0.27389 -0.256659,-0.27388 -0.256659,-0.73897 0,-0.47198 0.258382,-0.74242 0.260104,-0.27044 0.711412,-0.27044 0.146416,0 0.285943,0.031 0.139526,0.0293 0.27044,0.0896 z"
         style="font-size:3.52777767px"
         id="path169" />
      <path
         d="m 72.555719,295.15645 v 1.16444 H 72.23877 v -1.1541 q 0,-0.27389 -0.106798,-0.40997 -0.106798,-0.13608 -0.320394,-0.13608 -0.25666,0 -0.404799,0.16364 -0.148139,0.16364 -0.148139,0.44614 v 1.09037 h -0.318671 v -2.68028 h 0.318671 v 1.05075 q 0.113688,-0.17398 0.266995,-0.2601 0.155029,-0.0861 0.356568,-0.0861 0.332451,0 0.502983,0.20671 0.170533,0.20498 0.170533,0.60461 z"
         style="font-size:3.52777767px"
         id="path171" />
      <path
         d="m 74.064674,295.3511 q -0.384128,0 -0.532267,0.0879 -0.148139,0.0879 -0.148139,0.29972 0,0.16881 0.110243,0.26872 0.111965,0.0982 0.303168,0.0982 0.26355,0 0.422024,-0.18603 0.160197,-0.18776 0.160197,-0.49782 v -0.0706 z m 0.632175,-0.13092 v 1.10071 H 74.3799 v -0.29283 q -0.10852,0.1757 -0.27044,0.2601 -0.161919,0.0827 -0.396186,0.0827 -0.296278,0 -0.471978,-0.16537 -0.173977,-0.16709 -0.173977,-0.44614 0,-0.32556 0.217041,-0.49092 0.218763,-0.16537 0.651123,-0.16537 H 74.3799 v -0.031 q 0,-0.21877 -0.144694,-0.33762 -0.142971,-0.12058 -0.403076,-0.12058 -0.165365,0 -0.322116,0.0396 -0.156752,0.0396 -0.301446,0.11885 v -0.29283 q 0.173977,-0.0672 0.337619,-0.0999 0.163642,-0.0344 0.318671,-0.0344 0.418579,0 0.625285,0.21704 0.206706,0.21704 0.206706,0.65801 z"
         style="font-size:3.52777767px"
         id="path173" />
      <path
         d="m 76.953386,295.15645 v 1.16444 h -0.316949 v -1.1541 q 0,-0.27389 -0.106798,-0.40997 -0.106798,-0.13608 -0.320394,-0.13608 -0.25666,0 -0.404799,0.16364 -0.148139,0.16364 -0.148139,0.44614 v 1.09037 h -0.318671 v -1.92925 h 0.318671 v 0.29972 q 0.113688,-0.17398 0.266995,-0.2601 0.155029,-0.0861 0.356567,-0.0861 0.332452,0 0.502984,0.20671 0.170533,0.20498 0.170533,0.60461 z"
         style="font-size:3.52777767px"
         id="path175" />
      <path
         d="m 77.585556,294.39164 h 0.316949 v 1.92925 h -0.316949 z m 0,-0.75103 h 0.316949 v 0.40135 h -0.316949 z"
         style="font-size:3.52777767px"
         id="path177" />
      <path
         d="m 79.795589,294.44848 v 0.29973 q -0.134359,-0.0689 -0.279053,-0.10336 -0.144694,-0.0344 -0.299723,-0.0344 -0.235989,0 -0.354845,0.0723 -0.117134,0.0724 -0.117134,0.21704 0,0.11024 0.08441,0.17398 0.08441,0.062 0.339342,0.11885 l 0.108521,0.0241 q 0.337619,0.0723 0.478868,0.20498 0.142971,0.13092 0.142971,0.36691 0,0.26871 -0.213595,0.42546 -0.211874,0.15676 -0.583944,0.15676 -0.155029,0 -0.323839,-0.031 -0.167087,-0.0293 -0.353122,-0.0896 v -0.32729 q 0.175699,0.0913 0.346232,0.13781 0.170532,0.0448 0.337619,0.0448 0.223931,0 0.34451,-0.0758 0.120578,-0.0775 0.120578,-0.21704 0,-0.12919 -0.08785,-0.19809 -0.08613,-0.0689 -0.380683,-0.13264 l -0.110243,-0.0258 q -0.294556,-0.062 -0.425469,-0.18948 -0.130914,-0.12919 -0.130914,-0.35312 0,-0.27216 0.192925,-0.4203 0.192926,-0.14814 0.54777,-0.14814 0.1757,0 0.33073,0.0258 0.155029,0.0258 0.285943,0.0775 z"
         style="font-size:3.52777767px"
         id="path179" />
      <path
         d="m 81.90571,294.76199 q 0.118856,-0.2136 0.284221,-0.31523 0.165364,-0.10163 0.389296,-0.10163 0.301445,0 0.465087,0.21187 0.163642,0.21015 0.163642,0.59945 v 1.16444 h -0.318671 v -1.1541 q 0,-0.27733 -0.09819,-0.41169 -0.09819,-0.13436 -0.299723,-0.13436 -0.246325,0 -0.389296,0.16364 -0.142972,0.16364 -0.142972,0.44614 v 1.09037 h -0.318671 v -1.1541 q 0,-0.27906 -0.09819,-0.41169 -0.09819,-0.13436 -0.303169,-0.13436 -0.242879,0 -0.38585,0.16536 -0.142972,0.16364 -0.142972,0.44442 v 1.09037 h -0.318671 v -1.92925 h 0.318671 v 0.29972 q 0.108521,-0.17742 0.260105,-0.26183 0.151584,-0.0844 0.360012,-0.0844 0.210151,0 0.356568,0.1068 0.148139,0.1068 0.218763,0.31006 z"
         style="font-size:3.52777767px"
         id="path181" />
    </g>
  </g>
</svg>
